{"glyphs":{"0":{"ha":694,"x_min":64,"x_max":631,"o":"m 428 446 q 406 383 428 410 q 350 357 385 357 q 292 383 314 357 q 269 446 269 410 q 292 510 269 482 q 350 538 314 538 q 406 510 385 538 q 428 446 428 482 m 64 431 q 138 763 64 647 q 347 879 213 879 q 557 763 483 879 q 631 431 631 647 q 557 98 631 214 q 347 -18 483 -18 q 138 98 213 -18 q 64 431 64 214 m 514 431 q 506 565 514 501 q 478 675 497 628 q 426 750 458 722 q 347 778 394 778 q 268 750 300 778 q 217 675 236 722 q 189 565 197 628 q 181 431 181 501 q 189 297 181 360 q 217 186 197 233 q 268 111 236 139 q 347 83 300 83 q 426 111 394 83 q 478 186 458 139 q 506 297 497 233 q 514 431 514 360 z "},"1":{"ha":694,"x_min":104,"x_max":608,"o":"m 104 682 q 242 752 175 710 q 365 860 308 794 l 446 860 l 446 97 l 608 97 l 608 0 l 146 0 l 146 97 l 332 97 l 332 700 q 295 672 317 686 q 248 643 274 657 q 194 617 222 629 q 140 596 167 604 l 104 682 z "},"2":{"ha":694,"x_min":79,"x_max":618,"o":"m 583 640 q 566 554 583 596 q 520 472 549 513 q 456 393 492 432 q 382 317 419 354 q 333 267 361 296 q 281 207 306 238 q 239 147 256 176 q 222 97 222 118 l 618 97 l 618 0 l 97 0 q 96 15 96 7 q 96 29 96 22 q 115 138 96 88 q 165 232 135 188 q 234 316 196 276 q 310 393 272 356 q 369 453 340 424 q 419 511 397 482 q 453 572 440 540 q 467 636 467 603 q 455 700 467 674 q 423 744 443 726 q 376 769 403 761 q 319 778 350 778 q 253 768 283 778 q 201 744 224 758 q 161 717 178 731 q 136 696 144 704 l 79 776 q 113 807 90 789 q 166 841 135 825 q 236 868 197 857 q 319 879 275 879 q 519 817 454 879 q 583 640 583 756 z "},"3":{"ha":694,"x_min":82,"x_max":614,"o":"m 294 83 q 451 127 404 83 q 497 244 497 171 q 478 324 497 292 q 426 375 458 356 q 353 403 394 394 q 265 411 311 411 l 236 411 l 236 504 l 276 504 q 340 510 307 504 q 399 533 372 517 q 443 576 426 549 q 460 647 460 604 q 416 748 460 718 q 314 778 372 778 q 213 760 254 778 q 143 725 171 743 l 99 813 q 187 856 128 833 q 318 879 246 879 q 435 863 386 879 q 515 815 483 846 q 561 744 546 785 q 576 654 576 703 q 541 539 576 586 q 450 467 506 492 q 565 391 517 447 q 614 242 614 335 q 595 138 614 186 q 538 56 576 90 q 440 1 500 21 q 296 -18 379 -18 q 230 -13 264 -18 q 167 -1 196 -8 q 115 15 138 7 q 82 26 92 22 l 104 125 q 175 99 126 114 q 294 83 224 83 z "},"4":{"ha":694,"x_min":50,"x_max":647,"o":"m 50 297 q 115 425 74 353 q 207 574 156 497 q 317 726 258 651 q 435 860 375 800 l 546 860 l 546 314 l 647 314 l 647 219 l 546 219 l 546 0 l 435 0 l 435 219 l 50 219 l 50 297 m 435 724 q 359 635 397 683 q 285 533 321 586 q 217 424 249 479 q 161 314 186 368 l 435 314 l 435 724 z "},"5":{"ha":694,"x_min":92,"x_max":614,"o":"m 258 528 q 529 446 444 521 q 614 244 614 371 q 596 139 614 188 q 540 56 578 90 q 442 1 501 21 q 303 -18 383 -18 q 237 -13 269 -18 q 175 -1 204 -8 q 124 13 146 6 q 92 26 101 21 l 114 125 q 183 99 136 114 q 300 83 229 83 q 393 96 356 83 q 453 130 431 108 q 487 179 476 151 q 497 238 497 207 q 481 322 497 285 q 426 383 465 358 q 317 422 386 408 q 144 435 249 435 q 158 549 153 496 q 166 653 163 603 q 172 754 169 704 q 176 860 174 804 l 590 860 l 590 763 l 276 763 q 273 712 275 743 q 268 646 271 681 q 263 579 265 611 q 258 528 260 547 z "},"6":{"ha":694,"x_min":75,"x_max":624,"o":"m 75 344 q 109 566 75 469 q 206 728 143 663 q 360 828 269 793 q 564 864 450 863 l 574 767 q 440 751 500 765 q 332 703 379 736 q 253 619 285 671 q 204 493 221 568 q 277 518 238 508 q 361 528 317 528 q 484 506 433 528 q 565 447 535 483 q 610 361 596 410 q 624 261 624 313 q 608 165 624 214 q 561 74 593 115 q 479 8 529 33 q 360 -18 429 -18 q 146 78 217 -18 q 75 344 75 174 m 349 433 q 267 425 304 433 q 193 400 231 417 q 192 373 192 386 q 192 344 192 360 q 199 242 192 290 q 226 158 207 194 q 276 99 244 121 q 358 78 308 78 q 428 95 400 78 q 474 139 456 113 q 499 198 492 165 q 507 260 507 231 q 469 389 507 344 q 349 433 431 433 z "},"7":{"ha":694,"x_min":88,"x_max":632,"o":"m 215 0 q 251 209 222 99 q 319 423 279 319 q 408 615 360 526 q 504 760 457 703 l 88 760 l 88 860 l 632 860 l 632 764 q 542 633 590 715 q 449 449 493 551 q 374 231 406 347 q 333 0 342 115 l 215 0 z "},"8":{"ha":694,"x_min":71,"x_max":624,"o":"m 624 224 q 555 49 624 115 q 346 -18 486 -18 q 213 3 265 -18 q 128 59 160 25 q 84 135 97 93 q 71 217 71 176 q 111 347 71 290 q 207 439 151 404 q 89 643 89 506 q 107 733 89 690 q 158 808 125 776 q 240 860 192 840 q 347 879 288 879 q 466 858 417 879 q 546 805 515 838 q 590 733 576 772 q 604 656 604 693 q 567 528 604 582 q 481 443 529 475 q 624 224 624 375 m 182 215 q 190 169 182 193 q 218 124 199 144 q 269 90 238 103 q 347 76 301 76 q 422 88 390 76 q 473 120 453 100 q 503 165 493 140 q 513 215 513 190 q 456 337 513 294 q 299 401 399 379 q 213 325 243 371 q 182 215 182 279 m 493 656 q 485 697 493 674 q 459 738 476 719 q 414 770 442 757 q 347 783 386 783 q 280 771 307 783 q 235 740 253 758 q 209 698 217 721 q 201 653 201 675 q 242 547 201 596 q 378 475 283 497 q 462 547 431 506 q 493 656 493 589 z "},"9":{"ha":694,"x_min":71,"x_max":621,"o":"m 621 515 q 496 128 621 258 q 119 -3 371 -1 l 115 94 q 366 156 271 94 q 492 369 461 218 q 418 345 458 354 q 333 336 378 336 q 210 358 260 336 q 129 416 160 379 q 85 500 99 453 q 71 600 71 547 q 86 697 71 647 q 133 786 101 746 q 215 853 165 826 q 335 879 265 879 q 549 782 476 879 q 621 515 621 685 m 346 431 q 428 439 390 431 q 503 463 467 447 q 504 489 504 476 q 504 515 504 501 q 497 618 504 569 q 470 703 489 667 q 419 760 451 739 q 336 782 386 782 q 267 765 294 782 q 221 722 239 747 q 195 664 203 696 q 188 603 188 632 q 226 474 188 518 q 346 431 264 431 z "},"\u0000":{"ha":694,"x_min":0,"x_max":0,"o":""},"\t":{"ha":694,"x_min":0,"x_max":0,"o":""}," ":{"ha":694,"x_min":0,"x_max":0,"o":""},"!":{"ha":694,"x_min":251,"x_max":438,"o":"m 407 626 q 406 532 407 575 q 401 450 404 489 q 393 373 397 411 q 385 293 389 335 l 306 293 q 297 373 301 335 q 290 450 293 411 q 285 532 286 489 q 283 626 283 575 l 283 860 l 407 860 l 407 626 m 344 -17 q 279 9 307 -17 q 251 78 251 35 q 279 147 251 121 q 344 172 307 172 q 410 147 383 172 q 438 78 438 121 q 410 9 438 35 q 344 -17 383 -17 z "},"\"":{"ha":694,"x_min":179,"x_max":515,"o":"m 286 943 l 286 881 q 279 741 286 819 q 261 597 272 663 l 203 597 q 186 741 193 663 q 179 882 179 819 l 179 943 l 286 943 m 515 943 l 515 881 q 508 741 515 819 q 492 597 501 663 l 433 597 q 415 741 422 663 q 408 882 408 819 l 408 943 l 515 943 z "},"#":{"ha":694,"x_min":38,"x_max":657,"o":"m 446 0 l 342 0 l 385 226 l 231 226 l 188 0 l 83 0 l 126 226 l 38 226 l 38 319 l 144 319 l 186 540 l 38 540 l 38 632 l 206 632 l 249 860 l 353 860 l 310 632 l 464 632 l 506 860 l 610 860 l 568 632 l 657 632 l 657 540 l 550 540 l 507 319 l 657 319 l 657 226 l 489 226 l 446 0 m 444 540 l 292 540 l 249 319 l 401 319 l 444 540 z "},"$":{"ha":694,"x_min":75,"x_max":621,"o":"m 324 118 q 408 126 374 118 q 461 148 442 133 q 489 183 481 163 q 497 226 497 203 q 481 285 497 261 q 435 328 464 310 q 371 362 407 347 q 296 390 335 376 q 222 421 258 404 q 156 462 185 438 q 110 520 128 486 q 92 604 92 554 q 144 749 92 693 q 297 819 197 804 l 297 963 l 400 963 l 400 824 q 502 810 456 821 q 576 789 549 800 l 553 692 q 479 715 524 703 q 367 726 435 726 q 252 699 292 726 q 213 618 213 671 q 224 569 213 589 q 258 535 236 550 q 310 507 281 519 q 378 481 340 494 q 469 442 425 463 q 547 394 514 422 q 601 328 581 367 q 621 235 621 289 q 567 96 621 153 q 400 25 513 39 l 400 -135 l 297 -135 l 297 21 q 156 40 210 24 q 75 72 101 57 l 106 168 q 194 134 143 150 q 324 118 246 118 z "},"%":{"ha":694,"x_min":25,"x_max":669,"o":"m 132 0 l 35 0 l 561 860 l 658 860 l 132 0 m 25 663 q 65 823 25 768 q 176 878 106 878 q 288 823 247 878 q 328 663 328 768 q 288 501 328 557 q 176 446 247 446 q 65 501 106 446 q 25 663 25 557 m 242 663 q 225 765 242 725 q 176 806 208 806 q 127 765 144 806 q 110 663 110 725 q 127 560 110 600 q 176 519 144 519 q 225 560 208 519 q 242 663 242 600 m 368 197 q 408 358 368 303 q 518 413 447 413 q 629 358 589 413 q 669 197 669 303 q 629 37 669 92 q 518 -18 589 -18 q 408 37 447 -18 q 368 197 368 92 m 585 197 q 567 300 585 260 q 518 340 550 340 q 469 300 486 340 q 453 197 453 260 q 469 94 453 135 q 518 54 486 54 q 567 94 550 54 q 585 197 585 135 z "},"&":{"ha":694,"x_min":43,"x_max":657,"o":"m 378 393 q 427 337 401 365 q 479 276 453 308 q 499 361 490 315 q 511 463 507 407 l 607 450 q 583 306 599 369 q 543 192 567 243 q 604 100 575 147 q 657 0 633 53 l 536 0 q 483 93 513 49 q 384 13 439 38 q 269 -11 329 -11 q 175 6 217 -11 q 104 54 133 24 q 59 125 75 85 q 43 210 43 165 q 77 342 43 275 q 185 465 111 408 q 126 564 149 514 q 104 667 104 614 q 122 761 104 721 q 168 827 139 801 q 235 866 197 853 q 314 879 274 879 q 385 868 350 879 q 446 834 419 857 q 488 778 472 811 q 504 701 504 744 q 463 570 504 638 q 331 446 421 503 l 378 393 m 239 396 q 178 313 199 360 q 158 221 158 265 q 186 131 158 167 q 254 87 214 96 q 342 98 294 78 q 428 174 389 118 q 333 290 382 236 q 239 396 283 343 m 400 689 q 373 764 400 739 q 311 789 346 789 q 244 760 275 789 q 213 675 213 732 q 225 600 213 635 q 278 513 238 565 q 372 601 344 554 q 400 689 400 649 z "},"'":{"ha":694,"x_min":286,"x_max":407,"o":"m 407 943 l 407 881 q 405 810 407 850 q 399 728 403 771 q 392 645 396 686 q 382 572 388 604 l 311 572 q 301 645 306 604 q 294 728 297 686 q 288 811 290 771 q 286 882 286 851 l 286 943 l 407 943 z "},"(":{"ha":694,"x_min":157,"x_max":536,"o":"m 533 890 q 336 660 404 790 q 268 375 268 529 q 284 228 268 297 q 333 94 300 158 q 416 -29 365 31 q 536 -149 467 -89 l 474 -232 q 235 42 314 -114 q 157 372 157 199 q 236 701 157 544 q 474 974 315 858 l 535 890 l 533 890 z "},")":{"ha":694,"x_min":157,"x_max":536,"o":"m 160 -149 q 358 82 289 -49 q 426 367 426 213 q 410 514 426 444 q 361 647 394 583 q 277 771 328 711 q 157 890 226 831 l 219 974 q 458 699 379 856 q 536 369 536 543 q 516 200 536 283 q 456 40 496 117 q 358 -106 417 -37 q 219 -232 299 -175 l 158 -149 l 160 -149 z "},"*":{"ha":694,"x_min":79,"x_max":615,"o":"m 399 579 q 476 506 436 544 q 544 425 517 468 l 550 418 l 453 347 l 446 356 q 393 447 417 397 q 349 542 369 496 q 303 447 326 496 q 247 356 279 397 l 240 349 l 144 418 l 151 426 q 221 507 182 469 q 297 579 260 544 q 192 594 246 586 q 89 618 138 601 l 79 621 l 117 735 l 126 731 q 224 688 175 711 q 318 639 274 664 q 298 743 307 689 q 289 850 289 797 l 289 860 l 408 860 l 408 850 q 399 743 408 797 q 379 639 390 689 q 472 688 424 665 q 569 729 521 711 l 579 733 l 615 619 l 607 617 q 503 593 557 601 q 399 579 450 585 z "},"+":{"ha":694,"x_min":64,"x_max":632,"o":"m 64 414 l 297 414 l 297 669 l 397 669 l 397 414 l 632 414 l 632 317 l 397 317 l 397 60 l 297 60 l 297 317 l 64 317 l 64 414 z "},",":{"ha":694,"x_min":207,"x_max":488,"o":"m 207 -110 q 256 -99 232 -104 q 301 -83 281 -93 q 339 -56 322 -72 q 365 -12 356 -40 q 301 22 321 -8 q 281 81 281 51 q 312 165 281 136 q 383 193 343 193 q 461 156 435 193 q 488 67 488 119 q 472 -17 488 26 q 423 -99 456 -61 q 342 -165 390 -137 q 226 -200 293 -192 l 207 -110 z "},"-":{"ha":694,"x_min":194,"x_max":500,"o":"m 194 407 l 500 407 l 500 299 l 194 299 l 194 407 z "},".":{"ha":694,"x_min":246,"x_max":450,"o":"m 450 89 q 422 15 450 47 q 349 -17 394 -17 q 274 15 301 -17 q 246 89 246 47 q 274 164 246 132 q 349 196 301 196 q 422 164 394 196 q 450 89 450 132 z "},"/":{"ha":694,"x_min":96,"x_max":599,"o":"m 214 -229 l 96 -229 l 483 971 l 599 971 l 214 -229 z "},":":{"ha":694,"x_min":246,"x_max":450,"o":"m 450 89 q 422 15 450 47 q 349 -17 394 -17 q 274 15 301 -17 q 246 89 246 47 q 274 164 246 132 q 349 196 301 196 q 422 164 394 196 q 450 89 450 132 m 450 538 q 422 464 450 496 q 349 432 394 432 q 274 464 301 432 q 246 538 246 496 q 274 613 246 581 q 349 644 301 644 q 422 613 394 644 q 450 538 450 581 z "},";":{"ha":694,"x_min":174,"x_max":454,"o":"m 174 -110 q 223 -99 199 -104 q 268 -83 247 -93 q 306 -56 289 -72 q 332 -12 322 -40 q 267 22 288 -8 q 247 81 247 51 q 278 165 247 136 q 350 193 310 193 q 428 156 401 193 q 454 67 454 119 q 438 -17 454 26 q 390 -99 422 -61 q 308 -165 357 -137 q 193 -200 260 -192 l 174 -110 m 450 538 q 422 464 450 496 q 349 432 394 432 q 274 464 301 432 q 246 538 246 496 q 274 613 246 581 q 349 644 301 644 q 422 613 394 644 q 450 538 450 581 z "},"<":{"ha":694,"x_min":68,"x_max":636,"o":"m 196 354 l 636 172 l 604 76 l 68 304 l 68 403 l 604 631 l 636 535 l 196 354 z "},"=":{"ha":694,"x_min":64,"x_max":632,"o":"m 64 282 l 632 282 l 632 183 l 64 183 l 64 282 m 64 546 l 632 546 l 632 447 l 64 447 l 64 546 z "},">":{"ha":694,"x_min":68,"x_max":636,"o":"m 68 535 l 100 631 l 636 403 l 636 304 l 100 76 l 68 172 l 508 354 l 68 535 z "},"?":{"ha":694,"x_min":128,"x_max":569,"o":"m 257 293 l 256 319 q 286 423 256 379 q 353 504 317 467 q 421 579 390 542 q 451 665 451 617 q 418 750 451 718 q 319 782 385 782 q 240 772 279 782 q 160 740 200 763 l 128 829 q 222 866 169 853 q 335 879 275 879 q 451 860 406 879 q 522 810 496 840 q 559 744 549 781 q 569 675 569 708 q 553 601 569 633 q 514 539 538 568 q 463 483 490 510 q 411 428 435 457 q 372 367 388 400 q 356 293 356 333 l 257 293 m 317 -17 q 251 9 278 -17 q 224 78 224 35 q 251 147 224 121 q 317 172 278 172 q 382 147 354 172 q 410 78 410 121 q 382 9 410 35 q 317 -17 354 -17 z "},"@":{"ha":694,"x_min":56,"x_max":650,"o":"m 650 88 q 565 65 608 71 q 486 58 522 58 q 396 74 438 58 q 323 124 354 90 q 274 209 292 157 q 257 333 257 261 q 324 530 257 463 q 497 597 390 597 q 519 597 508 597 q 540 594 529 596 q 504 733 540 682 q 389 785 468 785 q 300 761 340 785 q 231 685 260 738 q 185 551 201 633 q 168 353 168 469 q 185 184 168 265 q 237 42 201 103 q 327 -56 272 -19 q 458 -93 382 -93 q 574 -75 514 -93 l 585 -168 q 449 -187 511 -187 q 273 -142 347 -187 q 151 -24 199 -97 q 79 144 103 50 q 56 338 56 239 q 81 583 56 481 q 152 751 107 686 q 257 848 197 817 q 386 879 317 879 q 579 797 508 879 q 650 567 650 714 l 650 88 m 368 333 q 372 274 368 306 q 388 215 375 242 q 423 169 400 188 q 486 150 446 150 q 511 151 497 150 q 540 157 525 153 l 540 497 q 516 503 528 501 q 493 504 504 504 q 401 458 433 504 q 368 333 368 411 z "},"A":{"ha":694,"x_min":13,"x_max":682,"o":"m 561 0 l 510 225 l 179 225 l 129 0 l 13 0 q 65 199 36 92 q 128 418 94 306 q 200 644 163 531 q 279 860 238 757 l 421 860 q 498 644 461 757 q 567 418 535 531 q 629 199 600 306 q 682 0 658 92 l 561 0 m 346 760 q 276 557 314 672 q 206 319 239 442 l 483 319 q 415 560 451 444 q 346 760 378 676 z "},"B":{"ha":694,"x_min":75,"x_max":626,"o":"m 283 -7 q 235 -6 263 -7 q 179 -2 207 -4 q 124 4 151 0 q 75 14 96 8 l 75 847 q 123 857 96 853 q 178 863 150 861 q 234 867 207 865 q 283 868 261 868 q 403 857 347 868 q 499 819 458 846 q 563 750 540 793 q 586 643 586 707 q 576 584 586 613 q 549 531 567 556 q 509 487 532 506 q 460 458 486 468 q 578 387 531 439 q 626 251 626 335 q 544 58 626 124 q 283 -7 463 -7 m 189 401 l 189 94 q 220 91 192 93 q 292 89 249 89 q 374 96 335 89 q 444 122 414 103 q 494 171 475 140 q 513 250 513 201 q 495 322 513 293 q 449 369 478 351 q 383 394 421 386 q 306 401 346 401 l 189 401 m 189 496 l 279 496 q 349 503 314 496 q 411 525 383 510 q 456 567 439 540 q 472 633 472 593 q 457 697 472 671 q 417 740 442 724 q 359 764 392 757 q 290 771 326 771 q 227 770 254 771 q 189 767 200 769 l 189 496 z "},"C":{"ha":694,"x_min":64,"x_max":639,"o":"m 639 36 q 535 -5 590 8 q 418 -18 481 -18 q 277 9 342 -18 q 165 91 213 36 q 91 231 118 146 q 64 431 64 315 q 92 624 64 540 q 169 764 121 707 q 283 850 218 821 q 422 879 349 879 q 527 865 474 879 q 632 819 581 851 l 599 725 q 426 778 507 778 q 324 753 369 778 q 247 683 279 729 q 198 574 215 638 q 181 431 181 510 q 199 276 181 342 q 251 168 218 211 q 331 104 285 125 q 432 83 378 83 q 517 94 472 83 q 608 131 561 104 l 639 36 z "},"D":{"ha":694,"x_min":75,"x_max":639,"o":"m 639 431 q 609 228 639 311 q 527 92 579 144 q 403 17 475 40 q 249 -7 332 -7 q 75 14 163 -7 l 75 847 q 249 868 163 868 q 403 844 332 868 q 527 768 475 821 q 609 632 579 715 q 639 431 639 549 m 189 96 q 260 92 224 92 q 371 110 322 92 q 453 170 419 129 q 504 276 486 211 q 522 431 522 340 q 455 688 522 606 q 256 769 388 769 q 220 769 238 769 q 189 765 203 768 l 189 96 z "},"E":{"ha":694,"x_min":126,"x_max":639,"o":"m 126 0 l 126 860 l 608 860 l 608 763 l 240 763 l 240 499 l 563 499 l 563 401 l 240 401 l 240 97 l 639 97 l 639 0 l 126 0 z "},"F":{"ha":694,"x_min":126,"x_max":614,"o":"m 126 0 l 126 860 l 614 860 l 614 763 l 240 763 l 240 494 l 569 494 l 569 399 l 240 399 l 240 0 l 126 0 z "},"G":{"ha":694,"x_min":64,"x_max":632,"o":"m 518 424 l 632 424 l 632 21 q 547 -3 606 11 q 410 -18 489 -18 q 268 12 332 -18 q 159 99 204 42 q 89 240 114 156 q 64 431 64 324 q 92 622 64 539 q 167 763 119 706 q 279 849 215 819 q 417 879 343 879 q 500 872 464 879 q 562 856 536 865 q 604 835 588 846 q 629 819 621 825 l 592 724 q 516 765 560 749 q 424 781 472 781 q 326 756 371 781 q 249 685 281 731 q 199 574 217 639 q 181 431 181 510 q 197 289 181 353 q 243 179 213 225 q 319 108 274 133 q 422 82 364 82 q 485 88 463 82 q 518 99 507 93 l 518 424 z "},"H":{"ha":694,"x_min":63,"x_max":632,"o":"m 518 860 l 632 860 l 632 0 l 518 0 l 518 400 l 176 400 l 176 0 l 63 0 l 63 860 l 176 860 l 176 497 l 518 497 l 518 860 z "},"I":{"ha":694,"x_min":124,"x_max":571,"o":"m 404 763 l 404 97 l 571 97 l 571 0 l 124 0 l 124 97 l 290 97 l 290 763 l 124 763 l 124 860 l 571 860 l 571 763 l 404 763 z "},"J":{"ha":694,"x_min":75,"x_max":583,"o":"m 176 763 l 176 860 l 583 860 l 583 276 q 570 161 583 215 q 524 67 557 107 q 437 5 492 28 q 299 -18 382 -18 q 158 6 215 -18 q 75 51 101 29 l 121 144 q 191 103 147 125 q 293 81 235 81 q 426 128 382 81 q 469 288 469 175 l 469 763 l 176 763 z "},"K":{"ha":694,"x_min":89,"x_max":682,"o":"m 653 860 q 503 658 585 758 q 328 458 422 558 q 422 371 372 421 q 520 262 472 321 q 610 136 568 203 q 682 0 653 69 l 553 0 q 478 125 518 64 q 392 239 438 186 q 299 335 347 292 q 203 411 251 379 l 203 0 l 89 0 l 89 860 l 203 860 l 203 476 q 376 671 293 569 q 521 860 458 772 l 653 860 z "},"L":{"ha":694,"x_min":126,"x_max":639,"o":"m 639 97 l 639 0 l 126 0 l 126 860 l 240 860 l 240 97 l 639 97 z "},"M":{"ha":694,"x_min":44,"x_max":650,"o":"m 349 432 l 482 860 l 589 860 q 628 444 617 657 q 650 0 640 232 l 539 0 q 536 163 538 75 q 533 343 535 250 q 528 532 531 436 q 524 718 526 628 l 399 326 l 299 326 l 171 718 q 167 533 169 628 q 163 344 165 438 q 159 163 161 250 q 156 0 157 75 l 44 0 q 54 217 49 106 q 67 438 60 328 q 85 654 75 547 q 108 860 96 761 l 214 860 l 349 432 z "},"N":{"ha":694,"x_min":76,"x_max":618,"o":"m 501 0 q 413 209 454 115 q 333 385 371 303 q 257 540 294 467 q 181 686 219 613 l 181 0 l 76 0 l 76 860 l 193 860 q 292 678 250 756 q 370 527 335 600 q 439 377 406 454 q 514 199 472 300 l 514 860 l 618 860 l 618 0 l 501 0 z "},"O":{"ha":694,"x_min":40,"x_max":656,"o":"m 40 431 q 63 631 40 546 q 125 770 85 715 q 222 852 165 825 q 347 879 278 879 q 472 852 415 879 q 569 770 529 825 q 633 631 610 715 q 656 431 656 546 q 633 231 656 315 q 569 90 610 146 q 472 8 529 35 q 347 -18 415 -18 q 222 8 278 -18 q 125 90 165 35 q 63 231 85 146 q 40 431 40 315 m 157 431 q 203 171 157 261 q 344 81 249 81 q 490 171 442 81 q 539 431 539 261 q 490 690 539 600 q 344 781 442 781 q 203 690 249 781 q 157 431 157 600 z "},"P":{"ha":694,"x_min":101,"x_max":632,"o":"m 326 868 q 460 849 403 868 q 556 794 518 829 q 613 710 594 758 q 632 601 632 661 q 553 394 632 467 q 315 321 474 321 l 215 321 l 215 0 l 101 0 l 101 847 q 156 857 126 853 q 216 864 186 861 q 274 867 246 867 q 326 868 303 868 m 335 769 q 265 769 299 769 q 215 765 232 768 l 215 418 l 310 418 q 465 460 414 418 q 515 597 515 501 q 335 769 515 769 z "},"Q":{"ha":694,"x_min":40,"x_max":656,"o":"m 40 429 q 63 629 40 544 q 125 769 85 714 q 222 851 165 824 q 347 878 278 878 q 472 851 415 878 q 569 769 529 824 q 633 629 610 714 q 656 429 656 544 q 638 248 656 326 q 586 114 619 169 q 506 26 553 58 q 401 -15 458 -6 q 425 -63 406 -43 q 474 -98 444 -83 q 542 -122 504 -112 q 622 -137 581 -132 l 596 -229 q 487 -204 539 -219 q 393 -164 435 -189 q 322 -103 351 -139 q 283 -14 293 -67 q 106 117 171 10 q 40 429 40 225 m 157 429 q 203 169 157 260 q 344 79 249 79 q 490 169 442 79 q 539 429 539 260 q 490 689 539 599 q 344 779 442 779 q 203 689 249 779 q 157 429 157 599 z "},"R":{"ha":694,"x_min":76,"x_max":643,"o":"m 599 597 q 557 458 599 518 q 444 364 515 397 q 491 288 465 331 q 543 198 517 246 q 595 99 569 150 q 643 0 621 49 l 521 0 q 430 192 479 100 q 335 340 381 283 q 310 339 326 339 q 289 339 294 339 l 192 339 l 192 0 l 76 0 l 76 847 q 124 857 97 853 q 180 863 151 861 q 236 867 208 865 q 286 868 264 868 q 520 800 442 868 q 599 597 599 732 m 296 769 q 234 769 264 769 q 192 765 204 768 l 192 433 l 265 433 q 355 440 315 433 q 423 466 394 447 q 467 517 451 485 q 482 603 482 550 q 467 685 482 653 q 426 735 451 717 q 367 762 401 754 q 296 769 333 769 z "},"S":{"ha":694,"x_min":76,"x_max":618,"o":"m 325 81 q 458 114 413 81 q 504 214 504 147 q 488 283 504 254 q 443 333 471 311 q 381 370 415 354 q 310 400 346 386 q 230 438 268 417 q 162 486 192 458 q 115 551 132 514 q 97 640 97 589 q 168 816 97 753 q 365 879 239 879 q 434 874 400 879 q 497 863 468 869 q 549 846 526 856 q 586 826 572 836 l 550 731 q 474 764 522 747 q 365 781 425 781 q 257 749 303 781 q 211 656 211 718 q 224 594 211 619 q 260 551 238 569 q 314 517 283 532 q 381 486 344 501 q 477 442 433 464 q 552 389 521 419 q 601 317 583 358 q 618 215 618 275 q 542 42 618 103 q 325 -18 467 -18 q 239 -12 279 -18 q 167 4 199 -6 q 113 24 136 14 q 76 42 89 33 l 111 136 q 193 101 139 121 q 325 81 247 81 z "},"T":{"ha":694,"x_min":54,"x_max":640,"o":"m 640 860 l 640 763 l 404 763 l 404 0 l 290 0 l 290 763 l 54 763 l 54 860 l 640 860 z "},"U":{"ha":694,"x_min":67,"x_max":628,"o":"m 347 -18 q 217 4 271 -18 q 131 67 164 26 q 82 165 97 107 q 67 296 67 224 l 67 860 l 181 860 l 181 308 q 192 199 181 243 q 226 129 204 156 q 278 92 247 103 q 347 81 308 81 q 417 92 386 81 q 469 129 447 103 q 502 199 490 156 q 514 308 514 243 l 514 860 l 628 860 l 628 296 q 613 165 628 224 q 564 67 597 107 q 477 4 531 26 q 347 -18 424 -18 z "},"V":{"ha":694,"x_min":18,"x_max":678,"o":"m 142 860 q 184 669 158 772 q 238 462 210 565 q 296 264 267 358 q 350 99 325 169 q 402 265 372 169 q 461 465 432 361 q 516 671 490 568 q 558 860 542 774 l 678 860 q 642 710 667 804 q 582 501 617 617 q 505 255 547 385 q 417 0 463 125 l 275 0 q 191 254 232 125 q 115 499 150 383 q 56 710 81 615 q 18 860 31 804 l 142 860 z "},"W":{"ha":694,"x_min":44,"x_max":650,"o":"m 213 0 l 106 0 q 84 187 93 85 q 67 400 75 289 q 54 628 60 511 q 44 860 49 744 l 156 860 l 171 142 l 296 533 l 396 533 l 524 142 l 539 860 l 650 860 q 640 626 646 743 q 625 399 633 510 q 607 188 617 289 q 586 0 597 86 l 481 0 l 346 428 l 213 0 z "},"X":{"ha":694,"x_min":35,"x_max":660,"o":"m 533 0 q 497 85 518 38 q 453 182 476 132 q 402 282 429 232 q 346 375 375 332 q 249 197 297 297 q 158 0 200 96 l 35 0 q 142 223 81 103 q 272 454 203 343 l 49 860 l 175 860 l 343 531 l 524 860 l 647 860 l 419 458 q 549 233 486 350 q 660 0 611 117 l 533 0 z "},"Y":{"ha":694,"x_min":18,"x_max":678,"o":"m 292 0 l 292 319 q 138 590 207 458 q 18 860 69 722 l 146 860 q 238 637 186 743 q 350 418 290 531 q 463 642 414 536 q 553 860 513 749 l 678 860 q 557 594 625 724 q 406 322 489 465 l 406 0 l 292 0 z "},"Z":{"ha":694,"x_min":75,"x_max":632,"o":"m 621 771 q 522 626 576 710 q 410 450 467 542 q 299 266 353 358 q 206 97 246 174 l 632 97 l 632 0 l 75 0 l 75 75 q 170 255 118 163 q 276 436 222 347 q 385 608 331 525 q 489 763 439 692 l 96 763 l 96 860 l 621 860 l 621 771 z "},"[":{"ha":694,"x_min":199,"x_max":531,"o":"m 199 971 l 531 971 l 531 881 l 307 881 l 307 -139 l 531 -139 l 531 -229 l 199 -229 l 199 971 z "},"\\":{"ha":694,"x_min":97,"x_max":597,"o":"m 97 971 l 213 971 l 597 -229 l 481 -229 l 97 971 z "},"]":{"ha":694,"x_min":164,"x_max":496,"o":"m 496 -229 l 164 -229 l 164 -139 l 388 -139 l 388 881 l 164 881 l 164 971 l 496 971 l 496 -229 z "},"^":{"ha":694,"x_min":56,"x_max":639,"o":"m 399 860 l 639 438 l 547 390 l 347 740 l 147 390 l 56 438 l 296 860 l 399 860 z "},"_":{"ha":694,"x_min":11,"x_max":683,"o":"m 11 -132 l 683 -132 l 683 -229 l 11 -229 l 11 -132 z "},"`":{"ha":694,"x_min":226,"x_max":458,"o":"m 300 963 l 458 771 l 400 719 l 226 889 l 300 963 z "},"a":{"ha":694,"x_min":81,"x_max":600,"o":"m 354 82 q 431 85 397 82 q 488 92 465 88 l 488 283 q 434 294 465 290 q 368 299 403 299 q 306 294 336 299 q 251 276 275 289 q 213 244 228 264 q 197 193 197 224 q 240 106 197 131 q 354 82 282 82 m 343 660 q 465 642 415 660 q 544 592 514 624 q 588 514 575 560 q 600 414 600 468 l 600 11 q 494 -6 560 4 q 358 -15 428 -15 q 256 -6 306 -15 q 167 26 206 3 q 104 89 128 49 q 81 192 81 129 q 105 285 81 247 q 167 347 129 324 q 255 381 206 371 q 354 392 304 392 q 488 376 422 392 l 488 408 q 481 465 488 438 q 458 514 475 492 q 410 549 440 536 q 333 563 381 563 q 229 554 274 563 q 161 538 185 546 l 147 632 q 226 651 171 643 q 343 660 281 660 z "},"b":{"ha":694,"x_min":99,"x_max":639,"o":"m 214 621 q 274 647 235 633 q 363 660 314 660 q 479 635 428 660 q 566 565 531 610 q 620 459 601 521 q 639 322 639 397 q 617 182 639 244 q 554 76 594 119 q 457 8 514 32 q 331 -15 400 -15 q 194 -4 254 -15 q 99 18 135 7 l 99 943 l 214 963 l 214 621 m 214 100 q 267 90 240 93 q 317 86 293 86 q 467 145 413 86 q 521 322 521 204 q 511 416 521 372 q 481 491 501 460 q 427 540 460 522 q 349 558 394 558 q 271 542 308 558 q 214 508 233 526 l 214 100 z "},"c":{"ha":694,"x_min":68,"x_max":626,"o":"m 68 321 q 96 472 68 408 q 172 578 124 536 q 285 640 221 619 q 424 660 350 660 q 517 653 471 660 q 617 631 564 647 l 590 532 q 506 553 544 549 q 429 558 468 558 q 335 545 379 558 q 258 503 290 532 q 206 430 225 475 q 186 321 186 385 q 204 216 186 260 q 255 144 222 172 q 333 101 288 115 q 435 88 379 88 q 520 92 479 88 q 610 114 561 97 l 626 18 q 528 -8 578 0 q 419 -15 478 -15 q 277 6 342 -15 q 166 69 213 28 q 94 174 119 111 q 68 321 68 238 z "},"d":{"ha":694,"x_min":56,"x_max":596,"o":"m 481 508 q 424 542 461 526 q 346 558 386 558 q 267 540 300 558 q 214 491 235 522 q 183 416 193 460 q 174 322 174 372 q 226 149 174 210 q 364 88 279 88 q 437 92 407 88 q 481 100 467 96 l 481 508 m 481 943 l 596 963 l 596 18 q 500 -4 558 7 q 364 -15 442 -15 q 238 8 294 -15 q 140 76 181 32 q 78 182 100 119 q 56 322 56 244 q 74 459 56 397 q 129 565 93 521 q 216 635 165 610 q 332 660 267 660 q 422 647 383 660 q 481 621 461 635 l 481 943 z "},"e":{"ha":694,"x_min":56,"x_max":632,"o":"m 360 660 q 561 578 490 660 q 632 332 632 497 l 632 292 l 171 292 q 237 140 178 192 q 403 88 296 88 q 507 97 464 88 q 572 118 550 107 l 588 21 q 513 -3 567 10 q 390 -15 458 -15 q 244 10 307 -15 q 139 81 181 36 q 76 187 97 125 q 56 321 56 249 q 82 471 56 407 q 151 576 108 535 q 249 639 194 618 q 360 660 303 660 m 515 385 q 472 515 515 467 q 358 563 429 563 q 285 547 318 563 q 229 507 253 532 q 192 450 206 482 q 174 385 178 418 l 515 385 z "},"f":{"ha":694,"x_min":88,"x_max":669,"o":"m 224 0 l 224 549 l 88 549 l 88 644 l 224 644 l 224 703 q 244 827 224 778 q 299 907 265 876 q 378 950 333 938 q 474 963 424 963 q 574 951 524 963 q 669 925 625 940 l 649 826 q 572 853 618 842 q 479 864 526 864 q 424 856 450 864 q 379 830 399 849 q 349 780 360 811 q 338 701 338 749 l 338 644 l 597 644 l 597 549 l 338 549 l 338 0 l 224 0 z "},"g":{"ha":694,"x_min":56,"x_max":596,"o":"m 481 60 q 421 36 461 49 q 328 24 381 24 q 222 42 271 24 q 135 99 172 61 q 77 197 99 138 q 56 336 56 256 q 76 466 56 407 q 134 568 96 525 q 228 635 172 611 q 354 660 283 660 q 497 648 438 660 q 596 625 556 636 l 596 50 q 520 -167 596 -100 q 292 -233 444 -233 q 178 -224 229 -233 q 89 -200 128 -214 l 110 -99 q 192 -124 146 -114 q 294 -133 239 -133 q 438 -93 394 -133 q 481 38 481 -53 l 481 60 m 481 543 q 435 553 464 549 q 356 558 406 558 q 220 497 267 558 q 174 335 174 436 q 187 240 174 279 q 223 174 200 200 q 275 137 246 149 q 338 125 304 125 q 419 138 381 125 q 481 167 457 150 l 481 543 z "},"h":{"ha":694,"x_min":99,"x_max":600,"o":"m 99 0 l 99 943 l 214 963 l 214 635 q 276 652 242 646 q 344 658 311 658 q 467 637 418 658 q 546 576 517 615 q 588 483 575 538 q 600 364 600 429 l 600 0 l 486 0 l 486 339 q 453 508 486 458 q 333 557 419 557 q 263 549 297 557 q 214 535 229 542 l 214 0 l 99 0 z "},"i":{"ha":694,"x_min":75,"x_max":625,"o":"m 290 744 q 228 769 254 744 q 201 838 201 794 q 228 906 201 881 q 290 931 254 931 q 353 906 328 931 q 379 838 379 881 q 353 769 379 794 q 290 744 328 744 m 261 549 l 75 549 l 75 644 l 375 644 l 375 249 q 401 120 375 153 q 481 88 428 88 q 555 97 521 88 q 608 118 589 107 l 625 21 q 601 10 617 17 q 566 -1 586 4 q 522 -11 546 -7 q 471 -15 497 -15 q 369 1 410 -15 q 305 51 329 18 q 271 134 281 85 q 261 249 261 183 l 261 549 z "},"j":{"ha":694,"x_min":99,"x_max":533,"o":"m 428 744 q 365 769 392 744 q 339 838 339 794 q 365 906 339 881 q 428 931 392 931 q 491 906 465 931 q 517 838 517 881 q 491 769 517 794 q 428 744 465 744 m 158 549 l 158 644 l 533 644 l 533 7 q 515 -106 533 -60 q 465 -182 496 -153 q 392 -224 433 -211 q 306 -236 351 -236 q 199 -225 253 -236 q 99 -190 146 -214 l 133 -93 q 210 -122 168 -110 q 292 -133 253 -133 q 383 -105 347 -133 q 419 6 419 -76 l 419 549 l 158 549 z "},"k":{"ha":694,"x_min":99,"x_max":664,"o":"m 331 354 q 415 284 368 326 q 509 193 463 242 q 597 94 556 144 q 664 0 639 43 l 528 0 q 463 88 501 43 q 380 175 424 133 q 292 251 336 217 q 214 310 249 286 l 214 0 l 99 0 l 99 943 l 214 963 l 214 375 q 367 508 290 442 q 504 644 443 574 l 639 644 q 495 499 579 574 q 331 354 411 424 z "},"l":{"ha":694,"x_min":75,"x_max":625,"o":"m 469 -15 q 368 1 408 -15 q 304 51 328 18 q 271 134 281 85 q 261 249 261 183 l 261 858 l 75 858 l 75 956 l 375 956 l 375 249 q 381 169 375 200 q 401 120 388 139 q 433 94 414 101 q 479 88 453 88 q 554 97 519 88 q 608 118 589 107 l 625 21 q 601 10 617 17 q 565 -1 586 4 q 520 -11 544 -7 q 469 -15 496 -15 z "},"m":{"ha":694,"x_min":57,"x_max":644,"o":"m 57 626 q 214 658 140 658 q 290 647 254 658 q 350 610 325 635 q 478 658 410 658 q 541 646 511 658 q 594 608 571 633 q 631 546 617 583 q 644 458 644 508 l 644 0 l 540 0 l 540 461 q 518 538 540 511 q 463 564 496 564 q 428 556 446 564 q 394 529 410 547 q 403 458 403 497 l 403 249 l 299 249 l 299 460 q 283 536 299 508 q 224 564 268 564 q 161 551 196 564 l 161 0 l 57 0 l 57 626 z "},"n":{"ha":694,"x_min":99,"x_max":600,"o":"m 99 626 q 223 650 161 642 q 339 658 285 658 q 534 592 468 658 q 600 378 600 525 l 600 0 l 486 0 l 486 357 q 475 458 486 419 q 444 519 464 497 q 395 549 424 540 q 333 557 367 557 q 274 553 306 557 q 214 544 243 550 l 214 0 l 99 0 l 99 626 z "},"o":{"ha":694,"x_min":56,"x_max":639,"o":"m 639 322 q 617 184 639 246 q 557 78 596 122 q 464 9 518 33 q 346 -15 410 -15 q 230 9 283 -15 q 138 78 176 33 q 77 184 99 122 q 56 322 56 246 q 77 461 56 399 q 138 567 99 524 q 230 635 176 611 q 346 660 283 660 q 464 635 410 660 q 557 567 518 611 q 617 461 596 524 q 639 322 639 399 m 521 322 q 474 495 521 432 q 346 558 426 558 q 220 495 267 558 q 174 322 174 432 q 220 151 174 214 q 346 88 267 88 q 474 151 426 88 q 521 322 521 214 z "},"p":{"ha":694,"x_min":99,"x_max":639,"o":"m 521 321 q 468 495 521 433 q 331 557 415 557 q 256 553 283 557 q 214 543 229 549 l 214 136 q 271 103 233 118 q 349 88 308 88 q 427 106 394 88 q 481 155 460 124 q 511 228 501 186 q 521 321 521 271 m 639 321 q 620 185 639 247 q 566 79 601 124 q 479 10 531 35 q 363 -15 428 -15 q 272 -3 311 -15 q 214 25 233 10 l 214 -229 l 99 -229 l 99 625 q 195 647 136 636 q 331 658 254 658 q 457 635 400 658 q 554 567 514 611 q 617 461 594 524 q 639 321 639 399 z "},"q":{"ha":694,"x_min":56,"x_max":596,"o":"m 174 321 q 184 228 174 271 q 215 155 194 186 q 269 106 236 124 q 347 88 301 88 q 425 103 388 88 q 482 136 463 118 l 482 543 q 440 553 467 549 q 365 557 413 557 q 227 495 281 557 q 174 321 174 433 m 56 321 q 78 461 56 399 q 140 567 100 524 q 238 635 181 611 q 365 658 296 658 q 498 647 440 658 q 596 624 556 635 l 596 -229 l 481 -229 l 481 25 q 421 -2 460 11 q 333 -15 382 -15 q 217 10 268 -15 q 130 79 165 35 q 75 185 94 124 q 56 321 56 247 z "},"r":{"ha":694,"x_min":149,"x_max":608,"o":"m 149 0 l 149 610 q 435 658 290 658 q 519 655 479 658 q 608 640 560 651 l 588 539 q 509 555 543 551 q 435 558 475 558 q 263 535 350 558 l 263 0 l 149 0 z "},"s":{"ha":694,"x_min":92,"x_max":603,"o":"m 488 161 q 459 218 488 196 q 388 257 431 240 q 296 290 346 274 q 203 329 246 306 q 133 388 161 353 q 104 478 104 422 q 167 608 104 556 q 365 660 231 660 q 474 652 418 660 q 571 632 531 644 l 550 529 q 519 541 539 535 q 475 552 500 547 q 422 560 450 557 q 367 563 393 563 q 217 481 217 563 q 245 431 217 451 q 317 394 274 411 q 410 360 360 378 q 503 318 460 343 q 574 258 546 293 q 603 168 603 222 q 535 33 603 81 q 319 -15 467 -15 q 197 -4 253 -15 q 92 29 142 7 l 114 133 q 216 97 163 111 q 331 82 269 82 q 488 161 488 82 z "},"t":{"ha":694,"x_min":88,"x_max":625,"o":"m 338 644 l 610 644 l 610 549 l 338 549 l 338 249 q 344 169 338 200 q 367 120 351 139 q 408 94 383 101 q 469 88 433 88 q 550 96 519 88 q 608 118 581 104 l 625 21 q 563 -1 606 13 q 458 -15 521 -15 q 340 1 386 -15 q 269 51 294 18 q 233 134 243 85 q 224 249 224 183 l 224 549 l 88 549 l 88 644 l 224 644 l 224 825 l 338 844 l 338 644 z "},"u":{"ha":694,"x_min":94,"x_max":596,"o":"m 596 18 q 497 -3 558 8 q 351 -14 435 -14 q 229 8 278 -14 q 150 69 181 29 q 107 163 119 108 q 94 282 94 217 l 94 644 l 208 644 l 208 307 q 244 138 208 188 q 363 88 279 88 q 399 89 381 88 q 435 92 418 90 q 464 97 451 94 q 481 100 476 99 l 481 644 l 596 644 l 596 18 z "},"v":{"ha":694,"x_min":42,"x_max":653,"o":"m 653 644 q 596 467 628 554 q 531 298 564 381 q 463 140 497 215 q 396 0 428 65 l 292 0 q 160 297 226 131 q 42 644 93 464 l 167 644 q 205 515 183 583 q 250 379 226 447 q 298 248 274 311 q 346 135 322 185 q 395 248 369 185 q 446 379 421 311 q 494 515 471 447 q 533 644 517 583 l 653 644 z "},"w":{"ha":694,"x_min":26,"x_max":668,"o":"m 476 0 q 440 86 456 47 q 410 164 425 125 q 381 245 396 203 q 347 342 367 288 q 313 245 328 288 q 283 164 297 203 q 252 86 268 125 q 215 0 236 47 l 129 0 q 65 338 90 171 q 26 644 39 506 l 135 644 q 144 538 139 590 q 156 429 149 486 q 172 306 163 372 q 192 156 181 239 q 229 253 214 211 q 257 332 244 294 q 281 408 269 369 q 307 496 293 447 l 393 496 q 418 408 407 447 q 442 332 429 369 q 468 253 454 294 q 503 157 482 211 q 525 299 515 233 q 542 422 535 364 q 554 533 549 479 q 564 644 560 588 l 668 644 q 651 496 661 575 q 628 333 642 417 q 597 165 614 250 q 563 0 581 79 l 476 0 z "},"x":{"ha":694,"x_min":40,"x_max":656,"o":"m 528 0 q 494 61 514 28 q 450 130 474 94 q 401 200 426 165 q 350 265 375 235 q 297 199 325 233 q 244 128 269 164 q 196 60 218 93 q 158 0 174 26 l 40 0 q 152 172 86 83 q 282 339 218 260 l 50 644 l 179 644 l 353 419 l 513 644 l 635 644 l 422 346 q 548 175 485 264 q 656 0 611 86 l 528 0 z "},"y":{"ha":694,"x_min":50,"x_max":640,"o":"m 71 -121 q 106 -132 83 -128 q 149 -136 129 -136 q 255 -106 217 -136 q 325 -8 293 -76 q 179 308 247 139 q 67 644 111 476 l 192 644 q 224 524 206 589 q 267 392 243 460 q 317 255 290 324 q 375 124 344 186 q 417 250 397 188 q 453 376 436 313 q 486 505 469 439 q 521 644 503 571 l 640 644 q 541 294 596 464 q 424 -19 486 125 q 373 -115 400 -75 q 314 -182 346 -156 q 242 -221 282 -208 q 150 -233 201 -233 q 92 -226 124 -233 q 50 -214 61 -219 l 71 -121 z "},"z":{"ha":694,"x_min":101,"x_max":593,"o":"m 583 558 q 515 477 558 529 q 423 362 472 425 q 325 229 374 299 q 239 97 276 160 l 593 97 l 593 0 l 101 0 l 101 76 q 174 198 131 132 q 265 328 218 264 q 358 451 313 393 q 436 549 403 510 l 119 549 l 119 644 l 583 644 l 583 558 z "},"{":{"ha":694,"x_min":110,"x_max":593,"o":"m 110 415 l 165 415 q 207 426 189 415 q 237 453 225 436 q 255 492 249 471 q 261 536 261 514 l 261 760 q 272 850 261 811 q 307 916 282 889 q 374 957 332 943 q 481 971 417 971 l 593 971 l 593 881 l 475 881 q 392 854 417 881 q 368 758 368 828 l 368 567 q 340 430 368 474 q 276 371 313 386 q 340 308 313 354 q 368 175 368 263 l 368 -17 q 393 -112 368 -86 q 476 -139 418 -139 l 593 -139 l 593 -229 l 481 -229 q 374 -215 417 -229 q 307 -174 332 -201 q 272 -108 282 -147 q 261 -18 261 -69 l 261 206 q 255 248 261 226 q 237 287 249 269 q 208 315 225 304 q 167 326 190 326 l 110 326 l 110 415 z "},"|":{"ha":694,"x_min":294,"x_max":401,"o":"m 294 971 l 401 971 l 401 -229 l 294 -229 l 294 971 z "},"}":{"ha":694,"x_min":101,"x_max":585,"o":"m 585 326 l 529 326 q 488 316 506 326 q 459 288 471 306 q 441 249 447 271 q 435 206 435 228 l 435 -18 q 424 -108 435 -69 q 388 -174 414 -147 q 320 -215 363 -201 q 214 -229 278 -229 l 101 -229 l 101 -139 l 219 -139 q 302 -112 278 -139 q 326 -17 326 -86 l 326 175 q 354 312 326 268 q 418 371 382 356 q 354 433 382 388 q 326 567 326 479 l 326 758 q 301 854 326 828 q 218 881 276 881 l 101 881 l 101 971 l 214 971 q 320 957 278 971 q 388 916 363 943 q 424 850 414 889 q 435 760 435 811 l 435 536 q 440 494 435 515 q 458 455 446 472 q 487 426 469 438 q 528 415 504 415 l 585 415 l 585 326 z "},"~":{"ha":694,"x_min":51,"x_max":643,"o":"m 643 436 q 628 382 639 413 q 598 325 618 351 q 547 281 578 299 q 474 263 517 263 q 405 277 436 263 q 344 310 374 292 q 281 349 311 329 q 214 368 250 368 q 181 359 194 368 q 158 336 167 350 q 142 305 149 322 q 131 272 135 288 l 51 294 q 67 349 56 318 q 97 406 78 379 q 147 450 117 432 q 221 468 176 468 q 290 453 258 468 q 350 421 321 439 q 415 382 383 401 q 481 363 446 363 q 514 372 500 363 q 537 394 528 381 q 553 426 546 408 q 564 458 560 443 l 643 436 z "},"€":{"ha":694,"x_min":50,"x_max":649,"o":"m 147 585 q 252 803 172 732 q 464 875 332 875 q 555 868 519 875 q 624 849 590 861 l 601 751 q 537 769 572 763 q 464 776 501 776 q 325 724 369 776 q 267 585 281 672 l 543 585 l 526 496 l 254 496 q 253 465 253 481 q 253 431 253 449 q 253 400 253 415 q 254 371 253 385 l 503 371 l 486 282 l 264 282 q 333 128 282 171 q 467 85 383 85 q 557 94 519 85 q 624 118 594 103 l 649 19 q 576 -4 628 8 q 460 -17 524 -17 q 240 63 315 -17 q 144 282 164 142 l 50 282 l 50 371 l 135 371 q 133 400 133 385 q 133 431 133 415 q 133 465 133 449 q 135 496 133 481 l 50 496 l 50 585 l 147 585 z "},"‚":{"ha":694,"x_min":206,"x_max":486,"o":"m 206 -110 q 255 -99 231 -104 q 300 -83 279 -93 q 338 -56 321 -72 q 364 -12 354 -40 q 299 22 319 -8 q 279 81 279 51 q 311 165 279 136 q 382 193 343 193 q 460 156 433 193 q 486 67 486 119 q 470 -17 486 26 q 422 -99 454 -61 q 340 -165 389 -137 q 226 -200 292 -192 l 206 -110 z "},"ƒ":{"ha":694,"x_min":10,"x_max":669,"o":"m 88 549 l 88 644 l 224 644 l 224 703 q 244 827 224 778 q 299 907 265 876 q 378 950 333 938 q 474 963 424 963 q 574 951 524 963 q 669 925 625 940 l 649 826 q 572 853 618 842 q 479 864 526 864 q 424 856 450 864 q 379 830 399 849 q 349 780 360 811 q 338 701 338 749 l 338 644 l 597 644 l 597 549 l 338 549 l 338 4 q 319 -108 338 -62 q 269 -183 300 -154 q 196 -224 238 -211 q 110 -236 154 -236 q 50 -232 71 -236 q 10 -224 29 -228 l 35 -125 q 96 -136 64 -136 q 187 -106 150 -136 q 224 6 224 -76 l 224 549 l 88 549 z "},"„":{"ha":694,"x_min":58,"x_max":636,"o":"m 58 -103 q 145 -78 106 -93 q 203 -14 185 -62 q 142 17 163 -10 q 122 76 122 44 q 145 140 122 111 q 214 168 168 168 q 284 141 254 168 q 314 53 314 114 q 302 -26 314 13 q 263 -96 290 -64 q 191 -151 236 -128 q 78 -183 146 -175 l 58 -103 m 381 -103 q 426 -92 404 -97 q 468 -78 449 -87 q 503 -53 488 -68 q 526 -14 518 -39 q 466 17 486 -10 q 446 76 446 44 q 468 140 446 111 q 538 168 490 168 q 607 141 578 168 q 636 53 636 114 q 624 -26 636 13 q 585 -96 613 -64 q 513 -151 558 -128 q 400 -183 468 -175 l 381 -103 z "},"…":{"ha":694,"x_min":43,"x_max":651,"o":"m 190 58 q 170 6 190 28 q 117 -17 150 -17 q 63 6 83 -17 q 43 58 43 28 q 63 111 43 89 q 117 133 83 133 q 170 111 150 133 q 190 58 190 89 m 421 58 q 401 6 421 28 q 349 -17 382 -17 q 296 6 315 -17 q 276 58 276 28 q 296 111 276 89 q 349 133 315 133 q 401 111 382 133 q 421 58 421 89 m 651 58 q 632 6 651 28 q 579 -17 613 -17 q 526 6 546 -17 q 507 58 507 28 q 526 111 507 89 q 579 133 546 133 q 632 111 613 133 q 651 58 651 89 z "},"†":{"ha":694,"x_min":100,"x_max":594,"o":"m 397 494 l 397 179 q 392 -10 397 75 q 376 -179 388 -94 l 319 -179 q 303 -10 308 -94 q 297 179 297 75 l 297 494 l 100 494 l 100 590 l 297 590 l 297 860 l 397 860 l 397 590 l 594 590 l 594 494 l 397 494 z "},"‡":{"ha":694,"x_min":100,"x_max":594,"o":"m 397 167 q 392 -16 397 65 q 376 -179 386 -97 l 319 -179 q 303 -16 308 -97 q 297 167 297 65 l 100 167 l 100 261 l 297 261 l 297 494 l 100 494 l 100 590 l 297 590 l 297 860 l 397 860 l 397 590 l 594 590 l 594 494 l 397 494 l 397 261 l 594 261 l 594 167 l 397 167 z "},"ˆ":{"ha":694,"x_min":179,"x_max":515,"o":"m 347 954 l 515 776 l 468 722 l 347 831 l 226 722 l 179 776 l 347 954 z "},"‰":{"ha":694,"x_min":13,"x_max":682,"o":"m 97 688 q 106 590 97 617 q 133 563 115 563 q 161 590 151 563 q 171 688 171 617 q 161 785 171 758 q 133 811 151 811 q 106 785 115 811 q 97 688 97 758 m 24 688 q 132 878 24 878 q 244 688 244 878 q 133 496 244 496 q 24 688 24 496 m 249 172 q 258 75 249 101 q 286 49 268 49 q 315 75 306 49 q 325 172 325 101 q 315 269 325 243 q 286 296 306 296 q 258 269 268 296 q 249 172 249 243 m 178 172 q 285 364 178 364 q 397 172 397 364 q 288 -18 397 -18 q 178 172 178 -18 m 524 172 q 533 75 524 101 q 561 49 543 49 q 589 75 579 49 q 599 172 599 101 q 589 269 599 243 q 561 296 579 296 q 533 269 543 296 q 524 172 524 243 m 451 172 q 560 364 451 364 q 671 172 671 364 q 563 -18 671 -18 q 451 172 451 -18 m 53 285 l 13 347 l 642 758 l 682 696 l 53 285 z "},"Š":{"ha":694,"x_min":76,"x_max":618,"o":"m 325 81 q 458 114 413 81 q 504 214 504 147 q 488 283 504 254 q 443 333 471 311 q 381 370 415 354 q 310 400 346 386 q 230 438 268 417 q 162 486 192 458 q 115 551 132 514 q 97 640 97 589 q 168 816 97 753 q 365 879 239 879 q 434 874 400 879 q 497 863 468 869 q 549 846 526 856 q 586 826 572 836 l 550 731 q 474 764 522 747 q 365 781 425 781 q 257 749 303 781 q 211 656 211 718 q 224 594 211 619 q 260 551 238 569 q 314 517 283 532 q 381 486 344 501 q 477 442 433 464 q 552 389 521 419 q 601 317 583 358 q 618 215 618 275 q 542 42 618 103 q 325 -18 467 -18 q 239 -12 279 -18 q 167 4 199 -6 q 113 24 136 14 q 76 42 89 33 l 111 136 q 193 101 139 121 q 325 81 247 81 m 204 1097 l 251 1151 l 372 1043 l 493 1151 l 540 1097 l 372 919 l 204 1097 z "},"‹":{"ha":694,"x_min":200,"x_max":474,"o":"m 200 353 l 393 626 l 474 583 l 336 353 l 474 122 l 393 78 l 200 353 z "},"Œ":{"ha":694,"x_min":38,"x_max":669,"o":"m 306 769 q 238 744 268 769 q 189 674 208 719 q 159 563 169 628 q 149 418 149 499 q 188 174 149 257 q 306 90 228 90 q 347 94 333 90 q 365 100 361 99 l 365 760 q 333 768 347 767 q 306 769 318 769 m 306 -8 q 110 94 182 -8 q 38 418 38 196 q 110 754 38 640 q 307 868 182 868 q 343 865 322 868 q 383 860 364 863 l 651 860 l 651 763 l 474 763 l 474 499 l 619 499 l 619 401 l 474 401 l 474 97 l 669 97 l 669 0 l 383 0 q 306 -8 343 -8 z "},"‘":{"ha":694,"x_min":207,"x_max":488,"o":"m 488 896 q 438 885 463 890 q 393 869 414 879 q 356 842 372 858 q 329 799 339 825 q 394 765 374 794 q 414 706 414 735 q 382 622 414 650 q 311 593 350 593 q 233 630 260 593 q 207 719 207 667 q 223 803 207 760 q 271 885 239 847 q 352 951 303 924 q 467 986 401 978 l 488 896 z "},"’":{"ha":694,"x_min":206,"x_max":486,"o":"m 206 679 q 255 690 231 685 q 300 706 279 696 q 338 733 321 717 q 364 776 354 749 q 299 810 319 781 q 279 869 279 840 q 311 953 279 925 q 382 982 343 982 q 460 945 433 982 q 486 856 486 908 q 470 772 486 815 q 422 690 454 728 q 340 624 389 651 q 226 589 292 597 l 206 679 z "},"“":{"ha":694,"x_min":60,"x_max":636,"o":"m 636 882 q 590 872 613 876 q 549 857 568 867 q 515 833 531 847 q 492 793 500 818 q 552 762 532 789 q 572 701 572 735 q 549 638 572 667 q 481 610 526 610 q 410 638 440 610 q 381 726 381 665 q 392 804 381 765 q 431 875 404 843 q 503 931 458 907 q 617 963 549 954 l 636 882 m 315 882 q 269 872 292 876 q 228 857 247 867 q 193 833 208 847 q 169 793 178 818 q 230 762 210 789 q 250 701 250 735 q 228 638 250 667 q 158 610 206 610 q 89 638 118 610 q 60 726 60 665 q 72 804 60 765 q 110 875 83 843 q 183 931 138 907 q 296 963 228 954 l 315 882 z "},"”":{"ha":694,"x_min":58,"x_max":635,"o":"m 58 690 q 104 701 82 696 q 145 715 126 706 q 179 740 164 725 q 203 781 194 756 q 142 811 163 783 q 122 871 122 839 q 145 934 122 906 q 214 963 168 963 q 284 935 254 963 q 314 846 314 907 q 302 767 314 806 q 263 697 290 729 q 191 642 236 665 q 78 610 146 618 l 58 690 m 379 690 q 425 701 403 696 q 467 715 447 706 q 501 740 486 725 q 525 781 517 756 q 465 811 485 783 q 444 871 444 839 q 467 934 444 906 q 536 963 489 963 q 606 935 576 963 q 635 846 635 907 q 623 767 635 806 q 584 697 611 729 q 512 642 557 665 q 400 610 467 618 l 379 690 z "},"•":{"ha":694,"x_min":158,"x_max":536,"o":"m 536 439 q 523 363 536 399 q 485 299 510 326 q 426 256 461 272 q 347 240 390 240 q 268 256 303 240 q 209 299 233 272 q 172 363 185 326 q 158 439 158 399 q 172 514 158 478 q 209 578 185 550 q 268 622 233 606 q 347 638 303 638 q 426 622 390 638 q 485 578 461 606 q 523 514 510 550 q 536 439 536 478 z "},"–":{"ha":694,"x_min":96,"x_max":599,"o":"m 96 425 l 599 425 l 599 328 l 96 328 l 96 425 z "},"—":{"ha":694,"x_min":0,"x_max":694,"o":"m 0 425 l 694 425 l 694 328 l 0 328 l 0 425 z "},"˜":{"ha":694,"x_min":156,"x_max":539,"o":"m 539 882 q 524 847 535 867 q 499 811 514 828 q 463 783 483 794 q 415 771 442 771 q 373 781 397 771 q 333 797 349 790 q 275 817 297 817 q 240 799 257 817 q 215 761 224 781 l 156 793 q 170 828 160 808 q 196 864 181 847 q 232 892 211 881 q 278 904 253 904 q 320 894 296 904 q 360 876 344 883 q 418 857 396 857 q 453 875 436 857 q 479 913 471 893 l 539 882 z "},"™":{"ha":694,"x_min":25,"x_max":661,"o":"m 283 860 l 283 790 l 194 790 l 194 496 l 114 496 l 114 790 l 25 790 l 25 860 l 283 860 m 453 592 l 399 753 q 394 683 396 725 q 392 602 393 642 q 391 532 392 563 q 390 496 390 501 l 310 496 q 318 617 314 565 q 327 710 322 668 q 337 787 332 751 q 349 860 342 822 l 424 860 l 485 671 l 550 860 l 625 860 q 637 786 632 822 q 646 708 642 750 q 653 615 650 667 q 661 496 657 564 l 581 496 q 580 532 581 501 q 578 602 579 563 q 576 683 578 642 q 574 753 575 725 l 515 592 l 453 592 z "},"š":{"ha":694,"x_min":92,"x_max":603,"o":"m 488 161 q 459 218 488 196 q 388 257 431 240 q 296 290 346 274 q 203 329 246 306 q 133 388 161 353 q 104 478 104 422 q 167 608 104 556 q 365 660 231 660 q 474 652 418 660 q 571 632 531 644 l 550 529 q 519 541 539 535 q 475 552 500 547 q 422 560 450 557 q 367 563 393 563 q 217 481 217 563 q 245 431 217 451 q 317 394 274 411 q 410 360 360 378 q 503 318 460 343 q 574 258 546 293 q 603 168 603 222 q 535 33 603 81 q 319 -15 467 -15 q 197 -4 253 -15 q 92 29 142 7 l 114 133 q 216 97 163 111 q 331 82 269 82 q 488 161 488 82 m 193 904 l 240 958 l 361 850 l 482 958 l 529 904 l 361 726 l 193 904 z "},"›":{"ha":694,"x_min":221,"x_max":494,"o":"m 301 78 l 221 122 l 358 353 l 221 583 l 301 626 l 494 353 l 301 78 z "},"œ":{"ha":694,"x_min":43,"x_max":664,"o":"m 646 21 q 586 -7 618 1 q 524 -15 554 -15 q 433 12 475 -15 q 364 110 392 39 q 308 15 340 46 q 218 -15 276 -15 q 140 14 172 -15 q 85 91 107 43 q 53 200 64 139 q 43 325 43 261 q 53 448 43 388 q 85 556 64 508 q 139 631 106 603 q 218 660 172 660 q 307 631 269 660 q 364 535 344 601 q 422 630 389 600 q 496 660 456 660 q 664 332 664 660 q 664 314 664 324 q 663 292 664 304 l 418 292 q 426 216 418 253 q 448 151 433 179 q 485 105 463 122 q 539 88 508 88 q 578 93 557 88 q 631 118 599 99 l 646 21 m 235 86 q 269 106 256 86 q 292 158 283 125 q 305 232 301 190 q 308 318 308 274 q 304 406 308 363 q 290 484 300 450 q 265 540 281 518 q 226 561 249 561 q 190 541 206 561 q 166 489 175 521 q 153 415 157 457 q 149 329 149 372 q 153 240 149 283 q 169 163 158 197 q 195 107 179 128 q 235 86 211 86 m 560 385 q 542 515 560 467 q 496 563 524 563 q 441 513 461 563 q 421 385 421 464 l 560 385 z "},"Ÿ":{"ha":694,"x_min":18,"x_max":678,"o":"m 292 0 l 292 319 q 138 590 207 458 q 18 860 69 722 l 146 860 q 238 637 186 743 q 350 418 290 531 q 463 642 414 536 q 553 860 513 749 l 678 860 q 557 594 625 724 q 406 322 489 465 l 406 0 l 292 0 m 232 957 q 182 978 204 957 q 160 1031 160 999 q 182 1083 160 1063 q 232 1103 204 1103 q 283 1083 261 1103 q 304 1031 304 1063 q 283 978 304 999 q 232 957 261 957 m 468 957 q 417 978 439 957 q 396 1031 396 999 q 417 1083 396 1063 q 468 1103 439 1103 q 519 1083 497 1103 q 540 1031 540 1063 q 519 978 540 999 q 468 957 497 957 z "}," ":{"ha":694,"x_min":0,"x_max":0,"o":""},"¡":{"ha":694,"x_min":253,"x_max":439,"o":"m 283 4 q 285 99 283 56 q 290 181 288 142 q 298 258 293 219 q 307 338 303 296 l 386 338 q 394 258 390 296 q 402 181 399 219 q 407 99 406 142 q 408 4 408 56 l 408 -229 l 283 -229 l 283 4 m 346 646 q 412 620 385 646 q 439 551 439 594 q 412 483 439 508 q 346 458 385 458 q 281 483 308 458 q 253 551 253 508 q 281 620 253 594 q 346 646 308 646 z "},"¢":{"ha":694,"x_min":68,"x_max":625,"o":"m 68 361 q 89 491 68 435 q 147 588 110 547 q 237 651 185 628 q 350 683 289 675 l 350 860 l 453 860 l 453 688 q 528 678 490 685 q 608 658 565 672 l 583 563 q 500 584 538 579 q 424 589 463 589 q 330 576 374 589 q 254 535 286 563 q 204 465 222 508 q 186 361 186 421 q 255 191 186 246 q 435 136 324 136 q 519 142 479 136 q 608 164 560 147 l 625 69 q 542 47 583 54 q 453 38 500 40 l 453 -135 l 350 -135 l 350 40 q 145 139 222 58 q 68 361 68 219 z "},"£":{"ha":694,"x_min":63,"x_max":632,"o":"m 292 463 l 528 463 l 528 369 l 292 369 l 292 360 q 287 229 292 297 q 272 99 282 161 l 632 99 l 632 0 l 143 0 q 167 176 157 89 q 178 351 178 263 l 178 369 l 63 369 l 63 463 l 178 463 l 178 565 q 197 717 178 657 q 251 813 217 778 q 335 861 286 847 q 446 875 385 875 q 537 866 500 875 q 608 842 574 857 l 581 743 q 440 774 518 774 q 380 764 407 774 q 333 731 353 754 q 302 667 313 707 q 292 568 292 628 l 292 463 z "},"¤":{"ha":694,"x_min":53,"x_max":643,"o":"m 108 431 q 143 563 108 507 l 53 654 l 124 725 l 215 632 q 347 668 275 668 q 478 632 418 668 l 571 725 l 643 654 l 550 563 q 586 431 586 507 q 577 358 586 390 q 550 299 568 326 l 643 207 l 571 135 l 478 226 q 347 192 418 192 q 215 226 272 192 l 124 135 l 53 207 l 143 297 q 108 431 108 353 m 493 431 q 450 543 493 501 q 347 585 407 585 q 244 543 288 585 q 201 431 201 501 q 244 318 201 360 q 347 276 288 276 q 450 318 407 276 q 493 431 493 360 z "},"¥":{"ha":694,"x_min":18,"x_max":678,"o":"m 292 0 l 292 132 l 90 132 l 90 219 l 292 219 l 292 346 l 90 346 l 90 435 l 260 435 q 131 651 192 543 q 18 860 71 758 l 144 860 q 242 666 189 763 q 351 481 294 569 q 456 666 406 569 q 551 860 507 763 l 678 860 q 563 649 622 756 q 435 435 503 543 l 606 435 l 606 346 l 406 346 l 406 219 l 606 219 l 606 132 l 406 132 l 406 0 l 292 0 z "},"¦":{"ha":694,"x_min":294,"x_max":401,"o":"m 294 246 l 401 246 l 401 -229 l 294 -229 l 294 246 m 294 971 l 401 971 l 401 496 l 294 496 l 294 971 z "},"§":{"ha":694,"x_min":94,"x_max":599,"o":"m 125 -1 q 207 -28 163 -17 q 321 -40 251 -40 q 461 46 461 -40 q 428 115 461 90 q 315 165 394 139 q 230 198 269 181 q 160 240 190 215 q 112 299 129 264 q 94 383 94 333 q 105 443 94 415 q 131 494 115 471 q 167 534 147 517 q 204 563 186 551 q 156 619 174 588 q 138 693 138 651 q 198 829 138 779 q 367 879 258 879 q 485 867 431 879 q 572 844 539 856 l 546 749 q 473 772 515 760 q 365 785 431 785 q 282 765 317 785 q 247 703 247 744 q 278 636 247 660 q 378 590 308 613 q 463 558 424 575 q 533 515 503 540 q 581 456 564 490 q 599 372 599 422 q 589 315 599 342 q 564 265 579 288 q 530 224 549 242 q 493 194 511 206 q 551 133 529 168 q 574 53 574 99 q 508 -87 574 -40 q 319 -135 442 -135 q 183 -122 236 -135 q 97 -93 129 -108 l 125 -1 m 281 518 q 222 463 244 494 q 200 394 200 432 q 215 340 200 363 q 254 301 229 318 q 314 272 279 285 q 389 246 349 260 l 413 238 q 471 292 449 261 q 493 361 493 322 q 478 415 493 393 q 440 451 464 436 q 383 479 415 467 q 314 506 350 492 l 281 518 z "},"¨":{"ha":694,"x_min":157,"x_max":538,"o":"m 229 764 q 179 785 201 764 q 157 838 157 806 q 179 890 157 869 q 229 910 201 910 q 280 890 258 910 q 301 838 301 869 q 280 785 301 806 q 229 764 258 764 m 465 764 q 415 785 436 764 q 393 838 393 806 q 415 890 393 869 q 465 910 436 910 q 516 890 494 910 q 538 838 538 869 q 516 785 538 806 q 465 764 494 764 z "},"©":{"ha":694,"x_min":47,"x_max":647,"o":"m 567 321 q 548 437 567 388 q 498 519 529 486 q 428 568 467 551 q 347 585 389 585 q 267 568 306 585 q 197 519 228 551 q 147 437 165 486 q 128 324 128 388 q 147 208 128 257 q 197 126 165 158 q 267 76 228 93 q 347 60 306 60 q 428 76 389 60 q 499 126 468 93 q 548 207 529 158 q 567 321 567 256 m 454 167 q 405 150 431 156 q 356 144 379 144 q 285 159 315 144 q 236 198 256 174 q 207 253 217 222 q 197 318 197 285 q 207 383 197 351 q 236 440 217 415 q 285 481 256 465 q 357 496 315 496 q 403 492 379 496 q 451 478 428 489 l 424 403 q 393 412 408 410 q 365 414 378 414 q 302 386 321 414 q 283 324 283 358 q 306 253 283 279 q 371 228 329 228 q 399 231 383 228 q 431 240 415 233 l 454 167 m 47 321 q 74 469 47 406 q 142 576 100 533 q 239 639 185 618 q 349 660 293 660 q 458 639 404 660 q 554 576 513 618 q 622 470 596 533 q 647 324 647 407 q 621 176 647 239 q 552 70 594 113 q 456 6 510 28 q 346 -15 401 -15 q 235 6 289 -15 q 140 69 182 28 q 73 174 99 111 q 47 321 47 238 z "},"ª":{"ha":694,"x_min":164,"x_max":533,"o":"m 360 485 q 414 486 388 485 q 447 490 440 488 l 447 614 q 413 618 433 617 q 372 619 392 619 q 330 617 351 619 q 290 607 308 614 q 261 587 272 600 q 250 553 250 574 q 279 501 250 517 q 360 485 308 485 m 351 875 q 493 828 453 875 q 533 703 533 781 l 533 425 q 453 413 503 418 q 351 408 403 408 q 217 442 269 408 q 164 553 164 475 q 180 619 164 592 q 224 663 196 646 q 287 687 251 679 q 363 694 322 694 q 401 693 381 694 q 447 689 421 692 l 447 692 q 444 728 447 710 q 429 762 440 747 q 398 785 418 776 q 346 794 378 794 q 283 791 317 794 q 225 779 250 788 l 213 857 q 274 869 236 864 q 351 875 311 875 z "},"«":{"ha":694,"x_min":88,"x_max":574,"o":"m 88 353 l 253 597 l 325 560 l 208 353 l 319 153 l 250 110 l 88 353 m 336 353 l 503 597 l 574 560 l 458 353 l 569 153 l 500 110 l 336 353 z "},"¬":{"ha":694,"x_min":57,"x_max":625,"o":"m 625 482 l 625 60 l 526 60 l 526 385 l 57 385 l 57 482 l 625 482 z "},"­":{"ha":694,"x_min":194,"x_max":500,"o":"m 194 407 l 500 407 l 500 299 l 194 299 l 194 407 z "},"®":{"ha":694,"x_min":47,"x_max":647,"o":"m 567 321 q 548 437 567 388 q 498 519 529 486 q 428 568 467 551 q 347 585 389 585 q 267 568 306 585 q 197 519 228 551 q 147 437 165 486 q 128 324 128 388 q 147 208 128 257 q 197 126 165 158 q 267 76 228 93 q 347 60 306 60 q 428 76 389 60 q 499 126 468 93 q 548 207 529 158 q 567 321 567 256 m 47 321 q 74 469 47 406 q 142 576 100 533 q 239 639 185 618 q 349 660 293 660 q 458 639 404 660 q 554 576 513 618 q 622 470 596 533 q 647 324 647 407 q 621 176 647 239 q 552 70 594 113 q 456 6 510 28 q 346 -15 401 -15 q 235 6 289 -15 q 140 69 182 28 q 73 174 99 111 q 47 321 47 238 m 306 260 l 306 153 l 231 153 l 231 483 q 274 492 250 489 q 324 496 297 496 q 441 465 403 496 q 479 376 479 435 q 424 278 479 310 q 458 222 440 254 q 494 153 476 189 l 415 153 q 383 212 397 186 q 356 260 369 238 l 306 260 m 306 329 l 331 329 q 386 339 368 329 q 404 381 404 349 q 382 417 404 408 q 336 426 360 426 q 320 426 328 426 q 306 424 313 425 l 306 329 z "},"¯":{"ha":694,"x_min":171,"x_max":524,"o":"m 171 882 l 524 882 l 524 793 l 171 793 l 171 882 z "},"°":{"ha":694,"x_min":174,"x_max":521,"o":"m 521 790 q 507 718 521 750 q 469 664 493 686 q 413 630 444 642 q 347 618 382 618 q 281 630 313 618 q 226 664 250 642 q 188 718 201 686 q 174 790 174 750 q 188 863 174 831 q 226 917 201 894 q 281 951 250 939 q 347 963 313 963 q 413 951 382 963 q 469 917 444 939 q 507 863 493 894 q 521 790 521 831 m 438 790 q 411 860 438 835 q 347 885 385 885 q 283 860 310 885 q 257 790 257 835 q 283 721 257 746 q 347 696 310 696 q 411 721 385 696 q 438 790 438 746 z "},"±":{"ha":694,"x_min":64,"x_max":632,"o":"m 64 519 l 297 519 l 297 769 l 397 769 l 397 519 l 632 519 l 632 422 l 397 422 l 397 172 l 297 172 l 297 422 l 64 422 l 64 519 m 64 99 l 632 99 l 632 0 l 64 0 l 64 99 z "},"²":{"ha":694,"x_min":172,"x_max":522,"o":"m 503 742 q 491 691 503 715 q 459 642 479 667 q 413 593 439 618 q 357 543 386 568 q 315 505 336 525 q 292 469 294 485 l 522 469 l 522 390 l 192 390 q 197 463 188 432 q 225 521 207 494 q 267 569 243 547 q 317 613 292 590 q 385 679 358 649 q 411 739 411 710 q 335 801 411 801 q 295 796 314 801 q 261 783 276 790 q 235 767 246 775 q 217 753 224 758 l 172 814 q 237 858 194 836 q 335 879 279 879 q 462 844 421 879 q 503 742 503 808 z "},"³":{"ha":694,"x_min":175,"x_max":519,"o":"m 314 458 q 405 478 381 458 q 429 531 429 499 q 418 566 429 551 q 388 590 407 581 q 344 604 369 600 q 293 608 319 608 l 269 608 l 269 679 l 300 679 q 337 683 318 679 q 371 694 356 686 q 397 714 386 701 q 407 746 407 726 q 384 790 407 776 q 325 803 361 803 q 263 791 292 803 q 214 769 235 779 l 182 838 q 244 865 201 851 q 328 879 286 879 q 456 843 418 879 q 493 749 493 807 q 425 650 493 689 q 494 605 469 636 q 519 529 519 574 q 472 424 519 467 q 315 381 425 381 q 237 390 276 381 q 175 410 197 399 l 193 483 q 251 465 221 472 q 314 458 282 458 z "},"´":{"ha":694,"x_min":236,"x_max":469,"o":"m 469 889 l 294 719 l 236 771 l 394 963 l 469 889 z "},"µ":{"ha":694,"x_min":99,"x_max":596,"o":"m 596 18 q 497 -3 558 8 q 351 -15 435 -15 q 263 -3 294 -15 q 208 31 232 10 q 213 -33 213 -1 q 214 -101 214 -65 l 214 -229 l 99 -229 l 99 644 l 214 644 l 214 307 q 222 206 214 247 q 247 138 229 164 q 292 99 264 111 q 363 88 321 88 q 399 89 381 88 q 435 92 418 90 q 464 95 451 93 q 481 99 476 97 l 481 644 l 596 644 l 596 18 z "},"¶":{"ha":694,"x_min":39,"x_max":621,"o":"m 524 768 q 403 771 460 776 l 403 -229 l 307 -229 l 307 325 q 108 403 178 339 q 39 594 39 467 q 65 713 39 663 q 139 799 90 764 q 256 851 188 833 q 411 868 325 868 q 515 864 460 868 q 621 846 571 860 l 621 -229 l 524 -229 l 524 768 z "},"·":{"ha":694,"x_min":246,"x_max":450,"o":"m 450 361 q 422 288 450 319 q 349 256 394 256 q 274 288 301 256 q 246 361 246 319 q 274 436 246 404 q 349 468 301 468 q 422 436 394 468 q 450 361 450 404 z "},"¸":{"ha":694,"x_min":217,"x_max":446,"o":"m 378 -46 q 430 -83 414 -62 q 446 -144 446 -104 q 440 -174 446 -158 q 419 -203 433 -190 q 380 -226 404 -217 q 319 -235 356 -235 q 260 -230 288 -235 q 217 -218 232 -225 l 231 -147 q 263 -156 246 -153 q 300 -160 279 -160 q 344 -132 344 -160 q 293 -89 344 -104 l 283 -86 q 295 -57 288 -74 q 310 -24 303 -40 q 325 6 318 -7 q 335 25 332 19 l 414 25 q 396 -10 407 10 q 378 -46 385 -31 z "},"¹":{"ha":694,"x_min":175,"x_max":532,"o":"m 321 469 l 321 756 q 258 724 293 738 q 199 703 224 710 l 175 771 q 268 812 222 786 q 347 869 314 838 l 408 869 l 408 469 l 532 469 l 532 390 l 185 390 l 185 469 l 321 469 z "},"º":{"ha":694,"x_min":124,"x_max":571,"o":"m 571 643 q 554 546 571 589 q 508 472 538 503 q 437 424 478 440 q 347 407 396 407 q 258 424 299 407 q 187 472 217 440 q 140 546 157 503 q 124 643 124 589 q 140 740 124 697 q 187 814 157 783 q 258 861 217 844 q 347 878 299 878 q 437 861 396 878 q 508 814 478 844 q 554 740 538 783 q 571 643 571 697 m 479 643 q 445 754 479 714 q 347 794 411 794 q 250 754 285 794 q 215 643 215 714 q 249 532 215 574 q 347 490 283 490 q 445 532 411 490 q 479 643 479 574 z "},"»":{"ha":694,"x_min":118,"x_max":607,"o":"m 607 354 l 440 110 l 368 147 l 485 354 l 374 554 l 443 597 l 607 354 m 356 354 l 190 110 l 118 147 l 235 354 l 122 554 l 192 597 l 356 354 z "},"¼":{"ha":694,"x_min":25,"x_max":663,"o":"m 25 779 q 106 818 72 799 q 172 869 139 838 l 228 869 l 228 522 l 146 522 l 146 756 q 96 731 118 740 q 49 713 74 721 l 25 779 m 613 347 l 613 136 l 663 136 l 663 67 l 613 67 l 613 0 l 531 0 l 531 67 l 351 67 l 351 124 q 421 240 388 188 q 497 347 454 292 l 613 347 m 531 288 q 478 211 501 250 q 433 136 454 172 l 531 136 l 531 288 m 132 -6 l 35 -6 l 561 854 l 658 854 l 132 -6 z "},"½":{"ha":694,"x_min":24,"x_max":669,"o":"m 669 69 l 669 0 l 396 0 q 394 16 394 4 q 394 32 394 28 q 422 101 394 76 q 486 147 450 125 l 517 168 q 563 205 550 188 q 575 242 575 222 q 559 276 575 265 q 521 288 543 288 q 478 278 500 288 q 439 251 456 269 l 394 307 q 454 347 418 333 q 526 360 490 360 q 624 325 592 360 q 657 246 657 290 q 639 184 657 210 q 594 139 621 158 q 540 103 568 119 q 494 69 513 86 l 669 69 m 33 779 q 115 818 82 799 q 181 869 147 838 l 238 869 l 238 522 l 156 522 l 156 756 q 105 731 128 740 q 57 713 82 721 l 33 779 m 121 0 l 24 0 l 550 860 l 647 860 l 121 0 z "},"¾":{"ha":694,"x_min":29,"x_max":665,"o":"m 613 347 l 613 136 l 663 136 l 663 67 l 613 67 l 613 0 l 531 0 l 531 67 l 351 67 l 351 124 q 421 240 388 188 q 497 347 454 292 l 613 347 m 50 597 q 88 585 65 590 q 139 579 111 579 q 192 588 169 579 q 215 621 215 597 q 189 658 215 650 q 110 667 163 667 l 93 667 l 93 736 l 124 736 q 179 744 160 736 q 199 776 199 751 q 181 803 199 797 q 144 810 164 810 q 100 803 125 810 q 58 789 75 796 l 32 849 q 87 870 53 861 q 157 879 121 879 q 203 874 181 879 q 242 859 225 869 q 270 831 260 849 q 281 789 281 814 q 270 747 281 768 q 238 711 260 726 q 297 621 297 683 q 289 581 297 601 q 263 545 281 561 q 215 519 244 529 q 144 510 186 510 q 29 529 81 510 l 50 597 m 531 288 q 478 211 501 250 q 433 136 454 172 l 531 136 l 531 288 m 139 0 l 42 0 l 568 860 l 665 860 l 139 0 z "},"¿":{"ha":694,"x_min":128,"x_max":569,"o":"m 440 338 l 442 310 q 427 239 442 269 q 391 182 413 208 q 344 133 369 156 q 297 86 318 110 q 260 36 275 63 q 246 -22 246 10 q 279 -107 246 -75 q 376 -139 313 -139 q 538 -97 458 -139 l 569 -186 q 475 -222 528 -208 q 363 -236 422 -236 q 247 -217 292 -236 q 175 -167 201 -197 q 138 -101 149 -137 q 128 -32 128 -65 q 144 42 128 10 q 183 101 160 74 q 235 153 207 128 q 286 206 263 178 q 326 265 310 233 q 342 338 342 296 l 440 338 m 381 646 q 447 620 419 646 q 474 551 474 594 q 447 483 474 508 q 381 458 419 458 q 315 483 343 458 q 288 551 288 508 q 315 620 288 594 q 381 646 343 646 z "},"À":{"ha":694,"x_min":13,"x_max":682,"o":"m 561 0 l 510 225 l 179 225 l 129 0 l 13 0 q 65 199 36 92 q 128 418 94 306 q 200 644 163 531 q 279 860 238 757 l 421 860 q 498 644 461 757 q 567 418 535 531 q 629 199 600 306 q 682 0 658 92 l 561 0 m 346 760 q 276 557 314 672 q 206 319 239 442 l 483 319 q 415 560 451 444 q 346 760 378 676 m 306 1153 l 464 961 l 406 910 l 232 1079 l 306 1153 z "},"Á":{"ha":694,"x_min":13,"x_max":682,"o":"m 561 0 l 510 225 l 179 225 l 129 0 l 13 0 q 65 199 36 92 q 128 418 94 306 q 200 644 163 531 q 279 860 238 757 l 421 860 q 498 644 461 757 q 567 418 535 531 q 629 199 600 306 q 682 0 658 92 l 561 0 m 346 760 q 276 557 314 672 q 206 319 239 442 l 483 319 q 415 560 451 444 q 346 760 378 676 m 465 1079 l 290 910 l 232 961 l 390 1153 l 465 1079 z "},"Â":{"ha":694,"x_min":13,"x_max":682,"o":"m 561 0 l 510 225 l 179 225 l 129 0 l 13 0 q 65 199 36 92 q 128 418 94 306 q 200 644 163 531 q 279 860 238 757 l 421 860 q 498 644 461 757 q 567 418 535 531 q 629 199 600 306 q 682 0 658 92 l 561 0 m 346 760 q 276 557 314 672 q 206 319 239 442 l 483 319 q 415 560 451 444 q 346 760 378 676 m 347 1147 l 515 969 l 468 915 l 347 1024 l 226 915 l 179 969 l 347 1147 z "},"Ã":{"ha":694,"x_min":13,"x_max":682,"o":"m 561 0 l 510 225 l 179 225 l 129 0 l 13 0 q 65 199 36 92 q 128 418 94 306 q 200 644 163 531 q 279 860 238 757 l 421 860 q 498 644 461 757 q 567 418 535 531 q 629 199 600 306 q 682 0 658 92 l 561 0 m 346 760 q 276 557 314 672 q 206 319 239 442 l 483 319 q 415 560 451 444 q 346 760 378 676 m 539 1075 q 524 1040 535 1060 q 499 1004 514 1021 q 463 976 483 988 q 415 964 442 964 q 373 974 397 964 q 333 990 349 983 q 275 1010 297 1010 q 240 992 257 1010 q 215 954 224 974 l 156 986 q 170 1021 160 1001 q 196 1057 181 1040 q 232 1085 211 1074 q 278 1097 253 1097 q 320 1087 296 1097 q 360 1069 344 1076 q 418 1050 396 1050 q 453 1068 436 1050 q 479 1106 471 1086 l 539 1075 z "},"Ä":{"ha":694,"x_min":13,"x_max":682,"o":"m 561 0 l 510 225 l 179 225 l 129 0 l 13 0 q 65 199 36 92 q 128 418 94 306 q 200 644 163 531 q 279 860 238 757 l 421 860 q 498 644 461 757 q 567 418 535 531 q 629 199 600 306 q 682 0 658 92 l 561 0 m 346 760 q 276 557 314 672 q 206 319 239 442 l 483 319 q 415 560 451 444 q 346 760 378 676 m 229 957 q 179 978 201 957 q 157 1031 157 999 q 179 1083 157 1063 q 229 1103 201 1103 q 280 1083 258 1103 q 301 1031 301 1063 q 280 978 301 999 q 229 957 258 957 m 465 957 q 415 978 436 957 q 393 1031 393 999 q 415 1083 393 1063 q 465 1103 436 1103 q 516 1083 494 1103 q 538 1031 538 1063 q 516 978 538 999 q 465 957 494 957 z "},"Å":{"ha":694,"x_min":13,"x_max":682,"o":"m 561 0 l 510 225 l 179 225 l 129 0 l 13 0 q 65 195 35 88 q 128 413 94 303 q 197 628 161 524 q 268 814 232 732 q 235 856 249 831 q 221 914 221 882 q 259 1006 221 972 q 349 1040 297 1040 q 438 1006 400 1040 q 476 914 476 972 q 463 857 476 883 q 431 815 450 831 q 501 628 465 733 q 569 413 536 524 q 630 194 601 301 q 682 0 658 86 l 561 0 m 346 760 q 276 557 314 672 q 206 319 239 442 l 483 319 q 415 560 451 444 q 346 760 378 676 m 414 914 q 395 964 414 946 q 349 982 376 982 q 302 964 321 982 q 283 914 283 946 q 302 864 283 882 q 349 846 321 846 q 395 864 376 846 q 414 914 414 882 z "},"Æ":{"ha":694,"x_min":38,"x_max":669,"o":"m 365 0 l 365 225 l 201 225 l 150 0 l 38 0 q 164 453 100 242 q 304 860 228 665 l 651 860 l 651 763 l 474 763 l 474 499 l 619 499 l 619 401 l 474 401 l 474 97 l 669 97 l 669 0 l 365 0 m 365 786 q 291 543 326 664 q 226 319 256 422 l 365 319 l 365 786 z "},"Ç":{"ha":694,"x_min":64,"x_max":639,"o":"m 440 -46 q 492 -83 476 -62 q 508 -144 508 -104 q 502 -174 508 -158 q 481 -203 496 -190 q 442 -226 467 -217 q 382 -235 418 -235 q 322 -230 350 -235 q 279 -218 294 -225 l 293 -147 q 325 -156 308 -153 q 363 -160 342 -160 q 407 -132 407 -160 q 356 -89 407 -104 l 346 -86 q 360 -52 351 -71 q 376 -15 368 -33 q 251 22 308 -8 q 151 107 193 51 q 87 243 110 163 q 64 431 64 324 q 92 624 64 540 q 169 764 121 707 q 283 850 218 821 q 422 879 349 879 q 527 865 474 879 q 632 819 581 851 l 599 725 q 426 778 507 778 q 324 753 369 778 q 247 683 279 729 q 198 574 215 638 q 181 431 181 510 q 199 276 181 342 q 251 168 218 211 q 331 104 285 125 q 432 83 378 83 q 517 94 472 83 q 608 131 561 104 l 639 36 q 456 -17 558 -10 l 440 -46 z "},"È":{"ha":694,"x_min":126,"x_max":639,"o":"m 126 0 l 126 860 l 608 860 l 608 763 l 240 763 l 240 499 l 563 499 l 563 401 l 240 401 l 240 97 l 639 97 l 639 0 l 126 0 m 319 1153 l 478 961 l 419 910 l 246 1079 l 319 1153 z "},"É":{"ha":694,"x_min":126,"x_max":639,"o":"m 126 0 l 126 860 l 608 860 l 608 763 l 240 763 l 240 499 l 563 499 l 563 401 l 240 401 l 240 97 l 639 97 l 639 0 l 126 0 m 506 1079 l 331 910 l 272 961 l 431 1153 l 506 1079 z "},"Ê":{"ha":694,"x_min":126,"x_max":639,"o":"m 126 0 l 126 860 l 608 860 l 608 763 l 240 763 l 240 499 l 563 499 l 563 401 l 240 401 l 240 97 l 639 97 l 639 0 l 126 0 m 372 1147 l 540 969 l 493 915 l 372 1024 l 251 915 l 204 969 l 372 1147 z "},"Ë":{"ha":694,"x_min":126,"x_max":639,"o":"m 126 0 l 126 860 l 608 860 l 608 763 l 240 763 l 240 499 l 563 499 l 563 401 l 240 401 l 240 97 l 639 97 l 639 0 l 126 0 m 254 957 q 204 978 226 957 q 182 1031 182 999 q 204 1083 182 1063 q 254 1103 226 1103 q 305 1083 283 1103 q 326 1031 326 1063 q 305 978 326 999 q 254 957 283 957 m 490 957 q 440 978 461 957 q 418 1031 418 999 q 440 1083 418 1063 q 490 1103 461 1103 q 541 1083 519 1103 q 563 1031 563 1063 q 541 978 563 999 q 490 957 519 957 z "},"Ì":{"ha":694,"x_min":124,"x_max":571,"o":"m 404 763 l 404 97 l 571 97 l 571 0 l 124 0 l 124 97 l 290 97 l 290 763 l 124 763 l 124 860 l 571 860 l 571 763 l 404 763 m 307 1153 l 465 961 l 407 910 l 233 1079 l 307 1153 z "},"Í":{"ha":694,"x_min":124,"x_max":571,"o":"m 404 763 l 404 97 l 571 97 l 571 0 l 124 0 l 124 97 l 290 97 l 290 763 l 124 763 l 124 860 l 571 860 l 571 763 l 404 763 m 483 1079 l 308 910 l 250 961 l 408 1153 l 483 1079 z "},"Î":{"ha":694,"x_min":124,"x_max":571,"o":"m 404 763 l 404 97 l 571 97 l 571 0 l 124 0 l 124 97 l 290 97 l 290 763 l 124 763 l 124 860 l 571 860 l 571 763 l 404 763 m 347 1147 l 515 969 l 468 915 l 347 1024 l 226 915 l 179 969 l 347 1147 z "},"Ï":{"ha":694,"x_min":124,"x_max":571,"o":"m 404 763 l 404 97 l 571 97 l 571 0 l 124 0 l 124 97 l 290 97 l 290 763 l 124 763 l 124 860 l 571 860 l 571 763 l 404 763 m 229 957 q 179 978 201 957 q 157 1031 157 999 q 179 1083 157 1063 q 229 1103 201 1103 q 280 1083 258 1103 q 301 1031 301 1063 q 280 978 301 999 q 229 957 258 957 m 465 957 q 415 978 436 957 q 393 1031 393 999 q 415 1083 393 1063 q 465 1103 436 1103 q 516 1083 494 1103 q 538 1031 538 1063 q 516 978 538 999 q 465 957 494 957 z "},"Ð":{"ha":694,"x_min":25,"x_max":639,"o":"m 639 431 q 610 228 639 311 q 533 92 582 144 q 415 17 483 40 q 268 -7 347 -7 q 99 14 183 -7 l 99 404 l 25 404 l 25 493 l 99 493 l 99 847 q 268 868 183 868 q 415 844 347 868 q 533 768 483 821 q 610 632 582 715 q 639 431 639 549 m 214 96 q 246 92 229 93 q 278 92 263 92 q 381 110 336 92 q 458 170 426 129 q 506 276 489 211 q 522 431 522 340 q 459 688 522 606 q 274 769 396 769 q 214 765 239 769 l 214 493 l 350 493 l 350 404 l 214 404 l 214 96 z "},"Ñ":{"ha":694,"x_min":76,"x_max":618,"o":"m 501 0 q 413 209 454 115 q 333 385 371 303 q 257 540 294 467 q 181 686 219 613 l 181 0 l 76 0 l 76 860 l 193 860 q 292 678 250 756 q 370 527 335 600 q 439 377 406 454 q 514 199 472 300 l 514 860 l 618 860 l 618 0 l 501 0 m 539 1075 q 524 1040 535 1060 q 499 1004 514 1021 q 463 976 483 988 q 415 964 442 964 q 373 974 397 964 q 333 990 349 983 q 275 1010 297 1010 q 240 992 257 1010 q 215 954 224 974 l 156 986 q 170 1021 160 1001 q 196 1057 181 1040 q 232 1085 211 1074 q 278 1097 253 1097 q 320 1087 296 1097 q 360 1069 344 1076 q 418 1050 396 1050 q 453 1068 436 1050 q 479 1106 471 1086 l 539 1075 z "},"Ò":{"ha":694,"x_min":40,"x_max":656,"o":"m 40 431 q 63 631 40 546 q 125 770 85 715 q 222 852 165 825 q 347 879 278 879 q 472 852 415 879 q 569 770 529 825 q 633 631 610 715 q 656 431 656 546 q 633 231 656 315 q 569 90 610 146 q 472 8 529 35 q 347 -18 415 -18 q 222 8 278 -18 q 125 90 165 35 q 63 231 85 146 q 40 431 40 315 m 157 431 q 203 171 157 261 q 344 81 249 81 q 490 171 442 81 q 539 431 539 261 q 490 690 539 600 q 344 781 442 781 q 203 690 249 781 q 157 431 157 600 m 307 1153 l 465 961 l 407 910 l 233 1079 l 307 1153 z "},"Ó":{"ha":694,"x_min":40,"x_max":656,"o":"m 40 431 q 63 631 40 546 q 125 770 85 715 q 222 852 165 825 q 347 879 278 879 q 472 852 415 879 q 569 770 529 825 q 633 631 610 715 q 656 431 656 546 q 633 231 656 315 q 569 90 610 146 q 472 8 529 35 q 347 -18 415 -18 q 222 8 278 -18 q 125 90 165 35 q 63 231 85 146 q 40 431 40 315 m 157 431 q 203 171 157 261 q 344 81 249 81 q 490 171 442 81 q 539 431 539 261 q 490 690 539 600 q 344 781 442 781 q 203 690 249 781 q 157 431 157 600 m 482 1079 l 307 910 l 249 961 l 407 1153 l 482 1079 z "},"Ô":{"ha":694,"x_min":40,"x_max":656,"o":"m 40 431 q 63 631 40 546 q 125 770 85 715 q 222 852 165 825 q 347 879 278 879 q 472 852 415 879 q 569 770 529 825 q 633 631 610 715 q 656 431 656 546 q 633 231 656 315 q 569 90 610 146 q 472 8 529 35 q 347 -18 415 -18 q 222 8 278 -18 q 125 90 165 35 q 63 231 85 146 q 40 431 40 315 m 157 431 q 203 171 157 261 q 344 81 249 81 q 490 171 442 81 q 539 431 539 261 q 490 690 539 600 q 344 781 442 781 q 203 690 249 781 q 157 431 157 600 m 347 1147 l 515 969 l 468 915 l 347 1024 l 226 915 l 179 969 l 347 1147 z "},"Õ":{"ha":694,"x_min":40,"x_max":656,"o":"m 40 431 q 63 631 40 546 q 125 770 85 715 q 222 852 165 825 q 347 879 278 879 q 472 852 415 879 q 569 770 529 825 q 633 631 610 715 q 656 431 656 546 q 633 231 656 315 q 569 90 610 146 q 472 8 529 35 q 347 -18 415 -18 q 222 8 278 -18 q 125 90 165 35 q 63 231 85 146 q 40 431 40 315 m 157 431 q 203 171 157 261 q 344 81 249 81 q 490 171 442 81 q 539 431 539 261 q 490 690 539 600 q 344 781 442 781 q 203 690 249 781 q 157 431 157 600 m 539 1075 q 524 1040 535 1060 q 499 1004 514 1021 q 463 976 483 988 q 415 964 442 964 q 373 974 397 964 q 333 990 349 983 q 275 1010 297 1010 q 240 992 257 1010 q 215 954 224 974 l 156 986 q 170 1021 160 1001 q 196 1057 181 1040 q 232 1085 211 1074 q 278 1097 253 1097 q 320 1087 296 1097 q 360 1069 344 1076 q 418 1050 396 1050 q 453 1068 436 1050 q 479 1106 471 1086 l 539 1075 z "},"Ö":{"ha":694,"x_min":40,"x_max":656,"o":"m 40 431 q 63 631 40 546 q 125 770 85 715 q 222 852 165 825 q 347 879 278 879 q 472 852 415 879 q 569 770 529 825 q 633 631 610 715 q 656 431 656 546 q 633 231 656 315 q 569 90 610 146 q 472 8 529 35 q 347 -18 415 -18 q 222 8 278 -18 q 125 90 165 35 q 63 231 85 146 q 40 431 40 315 m 157 431 q 203 171 157 261 q 344 81 249 81 q 490 171 442 81 q 539 431 539 261 q 490 690 539 600 q 344 781 442 781 q 203 690 249 781 q 157 431 157 600 m 229 957 q 179 978 201 957 q 157 1031 157 999 q 179 1083 157 1063 q 229 1103 201 1103 q 280 1083 258 1103 q 301 1031 301 1063 q 280 978 301 999 q 229 957 258 957 m 465 957 q 415 978 436 957 q 393 1031 393 999 q 415 1083 393 1063 q 465 1103 436 1103 q 516 1083 494 1103 q 538 1031 538 1063 q 516 978 538 999 q 465 957 494 957 z "},"×":{"ha":694,"x_min":97,"x_max":597,"o":"m 528 114 l 347 296 l 167 114 l 97 183 l 278 365 l 97 546 l 167 615 l 347 435 l 528 615 l 597 546 l 417 365 l 597 183 l 528 114 z "},"Ø":{"ha":694,"x_min":40,"x_max":656,"o":"m 40 431 q 63 631 40 546 q 125 770 85 715 q 222 852 165 825 q 347 879 278 879 q 490 842 425 879 l 519 904 l 606 861 l 564 776 q 631 634 607 719 q 656 431 656 549 q 633 231 656 315 q 569 90 610 146 q 472 8 529 35 q 347 -18 415 -18 q 197 21 261 -18 l 165 -46 l 81 -3 l 125 89 q 62 228 83 144 q 40 431 40 313 m 539 431 q 531 558 539 500 q 507 660 524 617 l 242 113 q 290 88 263 94 q 344 81 317 81 q 490 171 442 81 q 539 431 539 261 m 157 431 q 161 306 157 364 q 181 206 165 249 l 444 750 q 399 774 424 767 q 344 781 374 781 q 203 690 249 781 q 157 431 157 600 z "},"Ù":{"ha":694,"x_min":67,"x_max":628,"o":"m 347 -18 q 217 4 271 -18 q 131 67 164 26 q 82 165 97 107 q 67 296 67 224 l 67 860 l 181 860 l 181 308 q 192 199 181 243 q 226 129 204 156 q 278 92 247 103 q 347 81 308 81 q 417 92 386 81 q 469 129 447 103 q 502 199 490 156 q 514 308 514 243 l 514 860 l 628 860 l 628 296 q 613 165 628 224 q 564 67 597 107 q 477 4 531 26 q 347 -18 424 -18 m 300 1153 l 458 961 l 400 910 l 226 1079 l 300 1153 z "},"Ú":{"ha":694,"x_min":67,"x_max":628,"o":"m 347 -18 q 217 4 271 -18 q 131 67 164 26 q 82 165 97 107 q 67 296 67 224 l 67 860 l 181 860 l 181 308 q 192 199 181 243 q 226 129 204 156 q 278 92 247 103 q 347 81 308 81 q 417 92 386 81 q 469 129 447 103 q 502 199 490 156 q 514 308 514 243 l 514 860 l 628 860 l 628 296 q 613 165 628 224 q 564 67 597 107 q 477 4 531 26 q 347 -18 424 -18 m 482 1079 l 307 910 l 249 961 l 407 1153 l 482 1079 z "},"Û":{"ha":694,"x_min":67,"x_max":628,"o":"m 347 -18 q 217 4 271 -18 q 131 67 164 26 q 82 165 97 107 q 67 296 67 224 l 67 860 l 181 860 l 181 308 q 192 199 181 243 q 226 129 204 156 q 278 92 247 103 q 347 81 308 81 q 417 92 386 81 q 469 129 447 103 q 502 199 490 156 q 514 308 514 243 l 514 860 l 628 860 l 628 296 q 613 165 628 224 q 564 67 597 107 q 477 4 531 26 q 347 -18 424 -18 m 347 1147 l 515 969 l 468 915 l 347 1024 l 226 915 l 179 969 l 347 1147 z "},"Ü":{"ha":694,"x_min":67,"x_max":628,"o":"m 347 -18 q 217 4 271 -18 q 131 67 164 26 q 82 165 97 107 q 67 296 67 224 l 67 860 l 181 860 l 181 308 q 192 199 181 243 q 226 129 204 156 q 278 92 247 103 q 347 81 308 81 q 417 92 386 81 q 469 129 447 103 q 502 199 490 156 q 514 308 514 243 l 514 860 l 628 860 l 628 296 q 613 165 628 224 q 564 67 597 107 q 477 4 531 26 q 347 -18 424 -18 m 229 957 q 179 978 201 957 q 157 1031 157 999 q 179 1083 157 1063 q 229 1103 201 1103 q 280 1083 258 1103 q 301 1031 301 1063 q 280 978 301 999 q 229 957 258 957 m 465 957 q 415 978 436 957 q 393 1031 393 999 q 415 1083 393 1063 q 465 1103 436 1103 q 516 1083 494 1103 q 538 1031 538 1063 q 516 978 538 999 q 465 957 494 957 z "},"Ý":{"ha":694,"x_min":18,"x_max":678,"o":"m 292 0 l 292 319 q 138 590 207 458 q 18 860 69 722 l 146 860 q 238 637 186 743 q 350 418 290 531 q 463 642 414 536 q 553 860 513 749 l 678 860 q 557 594 625 724 q 406 322 489 465 l 406 0 l 292 0 m 482 1079 l 307 910 l 249 961 l 407 1153 l 482 1079 z "},"Þ":{"ha":694,"x_min":101,"x_max":632,"o":"m 101 860 l 215 860 l 215 717 q 300 721 258 721 q 546 658 460 721 q 632 472 632 594 q 608 335 632 390 q 539 244 583 279 q 431 193 494 208 q 292 178 368 178 l 215 178 l 215 0 l 101 0 l 101 860 m 318 621 q 259 621 283 621 q 215 619 235 621 l 215 274 l 296 274 q 385 283 344 274 q 454 314 425 292 q 499 373 483 336 q 515 467 515 410 q 498 542 515 513 q 453 590 481 572 q 390 614 425 607 q 318 621 354 621 z "},"ß":{"ha":694,"x_min":99,"x_max":661,"o":"m 556 764 q 545 703 556 731 q 519 652 535 675 q 485 610 504 629 q 449 572 465 590 q 420 535 429 550 q 411 500 411 521 q 430 454 411 472 q 476 420 449 436 q 536 388 504 404 q 596 347 568 371 q 642 287 624 322 q 661 197 661 251 q 604 38 661 92 q 426 -15 547 -15 q 381 -11 404 -15 q 338 -1 358 -7 q 303 10 318 4 q 282 19 289 15 l 301 121 q 322 110 308 117 q 354 98 336 104 q 393 88 372 92 q 435 83 414 83 q 518 111 492 83 q 544 192 544 139 q 526 253 544 229 q 479 297 507 278 q 418 331 451 315 q 357 367 385 347 q 310 415 329 388 q 292 483 292 442 q 313 567 292 533 q 365 632 333 600 q 417 688 394 660 q 440 747 440 715 q 415 831 440 800 q 335 863 390 863 q 245 815 276 863 q 214 685 214 768 l 214 0 l 99 0 l 99 688 q 115 799 99 749 q 160 886 131 850 q 231 942 189 922 q 326 963 274 963 q 435 947 390 963 q 506 903 479 931 q 544 839 532 875 q 556 764 556 803 z "},"à":{"ha":694,"x_min":81,"x_max":600,"o":"m 354 82 q 431 85 397 82 q 488 92 465 88 l 488 283 q 434 294 465 290 q 368 299 403 299 q 306 294 336 299 q 251 276 275 289 q 213 244 228 264 q 197 193 197 224 q 240 106 197 131 q 354 82 282 82 m 343 660 q 465 642 415 660 q 544 592 514 624 q 588 514 575 560 q 600 414 600 468 l 600 11 q 494 -6 560 4 q 358 -15 428 -15 q 256 -6 306 -15 q 167 26 206 3 q 104 89 128 49 q 81 192 81 129 q 105 285 81 247 q 167 347 129 324 q 255 381 206 371 q 354 392 304 392 q 488 376 422 392 l 488 408 q 481 465 488 438 q 458 514 475 492 q 410 549 440 536 q 333 563 381 563 q 229 554 274 563 q 161 538 185 546 l 147 632 q 226 651 171 643 q 343 660 281 660 m 300 963 l 458 771 l 400 719 l 226 889 l 300 963 z "},"á":{"ha":694,"x_min":81,"x_max":600,"o":"m 354 82 q 431 85 397 82 q 488 92 465 88 l 488 283 q 434 294 465 290 q 368 299 403 299 q 306 294 336 299 q 251 276 275 289 q 213 244 228 264 q 197 193 197 224 q 240 106 197 131 q 354 82 282 82 m 343 660 q 465 642 415 660 q 544 592 514 624 q 588 514 575 560 q 600 414 600 468 l 600 11 q 494 -6 560 4 q 358 -15 428 -15 q 256 -6 306 -15 q 167 26 206 3 q 104 89 128 49 q 81 192 81 129 q 105 285 81 247 q 167 347 129 324 q 255 381 206 371 q 354 392 304 392 q 488 376 422 392 l 488 408 q 481 465 488 438 q 458 514 475 492 q 410 549 440 536 q 333 563 381 563 q 229 554 274 563 q 161 538 185 546 l 147 632 q 226 651 171 643 q 343 660 281 660 m 494 889 l 319 719 l 261 771 l 419 963 l 494 889 z "},"â":{"ha":694,"x_min":81,"x_max":600,"o":"m 354 82 q 431 85 397 82 q 488 92 465 88 l 488 283 q 434 294 465 290 q 368 299 403 299 q 306 294 336 299 q 251 276 275 289 q 213 244 228 264 q 197 193 197 224 q 240 106 197 131 q 354 82 282 82 m 343 660 q 465 642 415 660 q 544 592 514 624 q 588 514 575 560 q 600 414 600 468 l 600 11 q 494 -6 560 4 q 358 -15 428 -15 q 256 -6 306 -15 q 167 26 206 3 q 104 89 128 49 q 81 192 81 129 q 105 285 81 247 q 167 347 129 324 q 255 381 206 371 q 354 392 304 392 q 488 376 422 392 l 488 408 q 481 465 488 438 q 458 514 475 492 q 410 549 440 536 q 333 563 381 563 q 229 554 274 563 q 161 538 185 546 l 147 632 q 226 651 171 643 q 343 660 281 660 m 360 954 l 528 776 l 481 722 l 360 831 l 239 722 l 192 776 l 360 954 z "},"ã":{"ha":694,"x_min":81,"x_max":600,"o":"m 354 82 q 431 85 397 82 q 488 92 465 88 l 488 283 q 434 294 465 290 q 368 299 403 299 q 306 294 336 299 q 251 276 275 289 q 213 244 228 264 q 197 193 197 224 q 240 106 197 131 q 354 82 282 82 m 343 660 q 465 642 415 660 q 544 592 514 624 q 588 514 575 560 q 600 414 600 468 l 600 11 q 494 -6 560 4 q 358 -15 428 -15 q 256 -6 306 -15 q 167 26 206 3 q 104 89 128 49 q 81 192 81 129 q 105 285 81 247 q 167 347 129 324 q 255 381 206 371 q 354 392 304 392 q 488 376 422 392 l 488 408 q 481 465 488 438 q 458 514 475 492 q 410 549 440 536 q 333 563 381 563 q 229 554 274 563 q 161 538 185 546 l 147 632 q 226 651 171 643 q 343 660 281 660 m 539 882 q 524 847 535 867 q 499 811 514 828 q 463 783 483 794 q 415 771 442 771 q 373 781 397 771 q 333 797 349 790 q 275 817 297 817 q 240 799 257 817 q 215 761 224 781 l 156 793 q 170 828 160 808 q 196 864 181 847 q 232 892 211 881 q 278 904 253 904 q 320 894 296 904 q 360 876 344 883 q 418 857 396 857 q 453 875 436 857 q 479 913 471 893 l 539 882 z "},"ä":{"ha":694,"x_min":81,"x_max":600,"o":"m 354 82 q 431 85 397 82 q 488 92 465 88 l 488 283 q 434 294 465 290 q 368 299 403 299 q 306 294 336 299 q 251 276 275 289 q 213 244 228 264 q 197 193 197 224 q 240 106 197 131 q 354 82 282 82 m 343 660 q 465 642 415 660 q 544 592 514 624 q 588 514 575 560 q 600 414 600 468 l 600 11 q 494 -6 560 4 q 358 -15 428 -15 q 256 -6 306 -15 q 167 26 206 3 q 104 89 128 49 q 81 192 81 129 q 105 285 81 247 q 167 347 129 324 q 255 381 206 371 q 354 392 304 392 q 488 376 422 392 l 488 408 q 481 465 488 438 q 458 514 475 492 q 410 549 440 536 q 333 563 381 563 q 229 554 274 563 q 161 538 185 546 l 147 632 q 226 651 171 643 q 343 660 281 660 m 229 764 q 179 785 201 764 q 157 838 157 806 q 179 890 157 869 q 229 910 201 910 q 280 890 258 910 q 301 838 301 869 q 280 785 301 806 q 229 764 258 764 m 465 764 q 415 785 436 764 q 393 838 393 806 q 415 890 393 869 q 465 910 436 910 q 516 890 494 910 q 538 838 538 869 q 516 785 538 806 q 465 764 494 764 z "},"å":{"ha":694,"x_min":81,"x_max":600,"o":"m 354 82 q 431 85 397 82 q 488 92 465 88 l 488 283 q 434 294 465 290 q 368 299 403 299 q 306 294 336 299 q 251 276 275 289 q 213 244 228 264 q 197 193 197 224 q 240 106 197 131 q 354 82 282 82 m 343 660 q 465 642 415 660 q 544 592 514 624 q 588 514 575 560 q 600 414 600 468 l 600 11 q 494 -6 560 4 q 358 -15 428 -15 q 256 -6 306 -15 q 167 26 206 3 q 104 89 128 49 q 81 192 81 129 q 105 285 81 247 q 167 347 129 324 q 255 381 206 371 q 354 392 304 392 q 488 376 422 392 l 488 408 q 481 465 488 438 q 458 514 475 492 q 410 549 440 536 q 333 563 381 563 q 229 554 274 563 q 161 538 185 546 l 147 632 q 226 651 171 643 q 343 660 281 660 m 475 840 q 437 747 475 781 q 347 713 399 713 q 258 747 296 713 q 219 840 219 781 q 258 933 219 899 q 347 967 296 967 q 437 933 399 967 q 475 840 475 899 m 413 840 q 394 890 413 872 q 347 908 375 908 q 301 890 319 908 q 282 840 282 872 q 301 789 282 807 q 347 771 319 771 q 394 789 375 771 q 413 840 413 807 z "},"æ":{"ha":694,"x_min":43,"x_max":664,"o":"m 208 660 q 308 636 269 660 q 368 571 347 613 q 419 636 390 613 q 485 660 449 660 q 664 332 664 660 q 664 313 664 325 q 663 292 664 301 l 406 292 q 442 140 406 192 q 535 88 478 88 q 631 118 579 88 l 646 21 q 627 9 640 15 q 597 -3 614 3 q 561 -12 581 -8 q 524 -15 542 -15 q 442 1 478 -15 q 381 44 407 17 q 304 -1 343 13 q 225 -15 265 -15 q 145 2 179 -15 q 88 47 111 19 q 54 110 65 75 q 43 183 43 146 q 55 265 43 226 q 90 331 67 303 q 148 376 114 360 q 228 392 182 392 q 265 388 244 392 q 301 376 285 385 l 301 408 q 276 518 301 474 q 199 563 251 563 q 139 554 168 563 q 99 538 110 546 l 86 632 q 135 651 99 643 q 208 660 172 660 m 239 299 q 170 269 193 299 q 147 190 147 240 q 169 115 147 149 q 235 82 190 82 q 285 93 258 82 q 332 122 313 104 q 308 198 317 157 q 297 283 300 239 q 239 299 269 299 m 560 385 q 553 470 560 436 q 537 525 547 504 q 514 554 526 546 q 490 563 501 563 q 433 522 458 563 q 408 385 408 482 l 560 385 z "},"ç":{"ha":694,"x_min":68,"x_max":626,"o":"m 408 -46 q 460 -83 444 -62 q 476 -144 476 -104 q 470 -174 476 -158 q 449 -203 464 -190 q 410 -226 435 -217 q 350 -235 386 -235 q 290 -230 318 -235 q 247 -218 263 -225 l 261 -147 q 293 -156 276 -153 q 331 -160 310 -160 q 375 -132 375 -160 q 324 -89 375 -104 l 314 -86 q 328 -50 319 -71 q 347 -10 338 -29 q 144 91 221 8 q 68 321 68 174 q 96 472 68 408 q 172 578 124 536 q 285 640 221 619 q 424 660 350 660 q 517 653 471 660 q 617 631 564 647 l 590 532 q 506 553 544 549 q 429 558 468 558 q 335 545 379 558 q 258 503 290 532 q 206 430 225 475 q 186 321 186 385 q 204 216 186 260 q 255 144 222 172 q 333 101 288 115 q 435 88 379 88 q 520 92 479 88 q 610 114 561 97 l 626 18 q 531 -6 579 1 q 424 -15 482 -14 l 408 -46 z "},"è":{"ha":694,"x_min":56,"x_max":632,"o":"m 360 660 q 561 578 490 660 q 632 332 632 497 l 632 292 l 171 292 q 237 140 178 192 q 403 88 296 88 q 507 97 464 88 q 572 118 550 107 l 588 21 q 513 -3 567 10 q 390 -15 458 -15 q 244 10 307 -15 q 139 81 181 36 q 76 187 97 125 q 56 321 56 249 q 82 471 56 407 q 151 576 108 535 q 249 639 194 618 q 360 660 303 660 m 515 385 q 472 515 515 467 q 358 563 429 563 q 285 547 318 563 q 229 507 253 532 q 192 450 206 482 q 174 385 178 418 l 515 385 m 300 963 l 458 771 l 400 719 l 226 889 l 300 963 z "},"é":{"ha":694,"x_min":56,"x_max":632,"o":"m 360 660 q 561 578 490 660 q 632 332 632 497 l 632 292 l 171 292 q 237 140 178 192 q 403 88 296 88 q 507 97 464 88 q 572 118 550 107 l 588 21 q 513 -3 567 10 q 390 -15 458 -15 q 244 10 307 -15 q 139 81 181 36 q 76 187 97 125 q 56 321 56 249 q 82 471 56 407 q 151 576 108 535 q 249 639 194 618 q 360 660 303 660 m 515 385 q 472 515 515 467 q 358 563 429 563 q 285 547 318 563 q 229 507 253 532 q 192 450 206 482 q 174 385 178 418 l 515 385 m 494 889 l 319 719 l 261 771 l 419 963 l 494 889 z "},"ê":{"ha":694,"x_min":56,"x_max":632,"o":"m 360 660 q 561 578 490 660 q 632 332 632 497 l 632 292 l 171 292 q 237 140 178 192 q 403 88 296 88 q 507 97 464 88 q 572 118 550 107 l 588 21 q 513 -3 567 10 q 390 -15 458 -15 q 244 10 307 -15 q 139 81 181 36 q 76 187 97 125 q 56 321 56 249 q 82 471 56 407 q 151 576 108 535 q 249 639 194 618 q 360 660 303 660 m 515 385 q 472 515 515 467 q 358 563 429 563 q 285 547 318 563 q 229 507 253 532 q 192 450 206 482 q 174 385 178 418 l 515 385 m 365 954 l 533 776 l 486 722 l 365 831 l 244 722 l 197 776 l 365 954 z "},"ë":{"ha":694,"x_min":56,"x_max":632,"o":"m 360 660 q 561 578 490 660 q 632 332 632 497 l 632 292 l 171 292 q 237 140 178 192 q 403 88 296 88 q 507 97 464 88 q 572 118 550 107 l 588 21 q 513 -3 567 10 q 390 -15 458 -15 q 244 10 307 -15 q 139 81 181 36 q 76 187 97 125 q 56 321 56 249 q 82 471 56 407 q 151 576 108 535 q 249 639 194 618 q 360 660 303 660 m 515 385 q 472 515 515 467 q 358 563 429 563 q 285 547 318 563 q 229 507 253 532 q 192 450 206 482 q 174 385 178 418 l 515 385 m 247 764 q 197 785 219 764 q 175 838 175 806 q 197 890 175 869 q 247 910 219 910 q 298 890 276 910 q 319 838 319 869 q 298 785 319 806 q 247 764 276 764 m 483 764 q 433 785 454 764 q 411 838 411 806 q 433 890 411 869 q 483 910 454 910 q 534 890 513 910 q 556 838 556 869 q 534 785 556 806 q 483 764 513 764 z "},"ì":{"ha":694,"x_min":75,"x_max":625,"o":"m 261 549 l 75 549 l 75 644 l 375 644 l 375 249 q 401 120 375 153 q 481 88 428 88 q 555 97 521 88 q 608 118 589 107 l 625 21 q 601 10 617 17 q 566 -1 586 4 q 522 -11 546 -7 q 471 -15 497 -15 q 369 1 410 -15 q 305 51 329 18 q 271 134 281 85 q 261 249 261 183 l 261 549 m 251 963 l 410 771 l 351 719 l 178 889 l 251 963 z "},"í":{"ha":694,"x_min":75,"x_max":625,"o":"m 261 549 l 75 549 l 75 644 l 375 644 l 375 249 q 401 120 375 153 q 481 88 428 88 q 555 97 521 88 q 608 118 589 107 l 625 21 q 601 10 617 17 q 566 -1 586 4 q 522 -11 546 -7 q 471 -15 497 -15 q 369 1 410 -15 q 305 51 329 18 q 271 134 281 85 q 261 249 261 183 l 261 549 m 433 889 l 258 719 l 200 771 l 358 963 l 433 889 z "},"î":{"ha":694,"x_min":75,"x_max":625,"o":"m 261 549 l 75 549 l 75 644 l 375 644 l 375 249 q 401 120 375 153 q 481 88 428 88 q 555 97 521 88 q 608 118 589 107 l 625 21 q 601 10 617 17 q 566 -1 586 4 q 522 -11 546 -7 q 471 -15 497 -15 q 369 1 410 -15 q 305 51 329 18 q 271 134 281 85 q 261 249 261 183 l 261 549 m 299 954 l 467 776 l 419 722 l 299 831 l 178 722 l 131 776 l 299 954 z "},"ï":{"ha":694,"x_min":75,"x_max":625,"o":"m 261 549 l 75 549 l 75 644 l 375 644 l 375 249 q 401 120 375 153 q 481 88 428 88 q 555 97 521 88 q 608 118 589 107 l 625 21 q 601 10 617 17 q 566 -1 586 4 q 522 -11 546 -7 q 471 -15 497 -15 q 369 1 410 -15 q 305 51 329 18 q 271 134 281 85 q 261 249 261 183 l 261 549 m 181 764 q 131 785 153 764 q 108 838 108 806 q 131 890 108 869 q 181 910 153 910 q 231 890 210 910 q 253 838 253 869 q 231 785 253 806 q 181 764 210 764 m 417 764 q 366 785 388 764 q 344 838 344 806 q 366 890 344 869 q 417 910 388 910 q 467 890 446 910 q 489 838 489 869 q 467 785 489 806 q 417 764 446 764 z "},"ð":{"ha":694,"x_min":76,"x_max":639,"o":"m 639 815 l 506 769 q 573 603 546 701 q 600 381 600 506 q 588 242 600 313 q 546 115 576 172 q 463 21 515 57 q 328 -15 410 -15 q 218 11 265 -15 q 140 81 171 38 q 92 176 108 124 q 76 283 76 229 q 143 525 76 442 q 325 608 210 608 q 418 588 378 608 q 478 550 458 568 q 451 646 471 600 q 404 735 432 692 l 256 683 l 226 761 l 354 806 q 312 851 333 829 q 258 896 290 872 l 322 963 q 385 915 350 944 q 457 840 421 885 l 610 893 l 639 815 m 488 376 q 487 419 488 407 q 486 443 486 432 q 412 496 451 481 q 340 511 372 511 q 226 449 263 511 q 190 288 190 386 q 199 210 190 247 q 226 144 208 172 q 269 99 243 115 q 328 82 294 82 q 406 108 375 82 q 456 175 438 133 q 481 269 474 217 q 488 376 488 322 z "},"ñ":{"ha":694,"x_min":99,"x_max":600,"o":"m 99 626 q 223 650 161 642 q 339 658 285 658 q 534 592 468 658 q 600 378 600 525 l 600 0 l 486 0 l 486 357 q 475 458 486 419 q 444 519 464 497 q 395 549 424 540 q 333 557 367 557 q 274 553 306 557 q 214 544 243 550 l 214 0 l 99 0 l 99 626 m 539 882 q 524 847 535 867 q 499 811 514 828 q 463 783 483 794 q 415 771 442 771 q 373 781 397 771 q 333 797 349 790 q 275 817 297 817 q 240 799 257 817 q 215 761 224 781 l 156 793 q 170 828 160 808 q 196 864 181 847 q 232 892 211 881 q 278 904 253 904 q 320 894 296 904 q 360 876 344 883 q 418 857 396 857 q 453 875 436 857 q 479 913 471 893 l 539 882 z "},"ò":{"ha":694,"x_min":56,"x_max":639,"o":"m 639 322 q 617 184 639 246 q 557 78 596 122 q 464 9 518 33 q 346 -15 410 -15 q 230 9 283 -15 q 138 78 176 33 q 77 184 99 122 q 56 322 56 246 q 77 461 56 399 q 138 567 99 524 q 230 635 176 611 q 346 660 283 660 q 464 635 410 660 q 557 567 518 611 q 617 461 596 524 q 639 322 639 399 m 521 322 q 474 495 521 432 q 346 558 426 558 q 220 495 267 558 q 174 322 174 432 q 220 151 174 214 q 346 88 267 88 q 474 151 426 88 q 521 322 521 214 m 313 963 l 471 771 l 413 719 l 239 889 l 313 963 z "},"ó":{"ha":694,"x_min":56,"x_max":639,"o":"m 639 322 q 617 184 639 246 q 557 78 596 122 q 464 9 518 33 q 346 -15 410 -15 q 230 9 283 -15 q 138 78 176 33 q 77 184 99 122 q 56 322 56 246 q 77 461 56 399 q 138 567 99 524 q 230 635 176 611 q 346 660 283 660 q 464 635 410 660 q 557 567 518 611 q 617 461 596 524 q 639 322 639 399 m 521 322 q 474 495 521 432 q 346 558 426 558 q 220 495 267 558 q 174 322 174 432 q 220 151 174 214 q 346 88 267 88 q 474 151 426 88 q 521 322 521 214 m 482 889 l 307 719 l 249 771 l 407 963 l 482 889 z "},"ô":{"ha":694,"x_min":56,"x_max":639,"o":"m 639 322 q 617 184 639 246 q 557 78 596 122 q 464 9 518 33 q 346 -15 410 -15 q 230 9 283 -15 q 138 78 176 33 q 77 184 99 122 q 56 322 56 246 q 77 461 56 399 q 138 567 99 524 q 230 635 176 611 q 346 660 283 660 q 464 635 410 660 q 557 567 518 611 q 617 461 596 524 q 639 322 639 399 m 521 322 q 474 495 521 432 q 346 558 426 558 q 220 495 267 558 q 174 322 174 432 q 220 151 174 214 q 346 88 267 88 q 474 151 426 88 q 521 322 521 214 m 347 954 l 515 776 l 468 722 l 347 831 l 226 722 l 179 776 l 347 954 z "},"õ":{"ha":694,"x_min":56,"x_max":639,"o":"m 639 322 q 617 184 639 246 q 557 78 596 122 q 464 9 518 33 q 346 -15 410 -15 q 230 9 283 -15 q 138 78 176 33 q 77 184 99 122 q 56 322 56 246 q 77 461 56 399 q 138 567 99 524 q 230 635 176 611 q 346 660 283 660 q 464 635 410 660 q 557 567 518 611 q 617 461 596 524 q 639 322 639 399 m 521 322 q 474 495 521 432 q 346 558 426 558 q 220 495 267 558 q 174 322 174 432 q 220 151 174 214 q 346 88 267 88 q 474 151 426 88 q 521 322 521 214 m 539 882 q 524 847 535 867 q 499 811 514 828 q 463 783 483 794 q 415 771 442 771 q 373 781 397 771 q 333 797 349 790 q 275 817 297 817 q 240 799 257 817 q 215 761 224 781 l 156 793 q 170 828 160 808 q 196 864 181 847 q 232 892 211 881 q 278 904 253 904 q 320 894 296 904 q 360 876 344 883 q 418 857 396 857 q 453 875 436 857 q 479 913 471 893 l 539 882 z "},"ö":{"ha":694,"x_min":56,"x_max":639,"o":"m 639 322 q 617 184 639 246 q 557 78 596 122 q 464 9 518 33 q 346 -15 410 -15 q 230 9 283 -15 q 138 78 176 33 q 77 184 99 122 q 56 322 56 246 q 77 461 56 399 q 138 567 99 524 q 230 635 176 611 q 346 660 283 660 q 464 635 410 660 q 557 567 518 611 q 617 461 596 524 q 639 322 639 399 m 521 322 q 474 495 521 432 q 346 558 426 558 q 220 495 267 558 q 174 322 174 432 q 220 151 174 214 q 346 88 267 88 q 474 151 426 88 q 521 322 521 214 m 229 764 q 179 785 201 764 q 157 838 157 806 q 179 890 157 869 q 229 910 201 910 q 280 890 258 910 q 301 838 301 869 q 280 785 301 806 q 229 764 258 764 m 465 764 q 415 785 436 764 q 393 838 393 806 q 415 890 393 869 q 465 910 436 910 q 516 890 494 910 q 538 838 538 869 q 516 785 538 806 q 465 764 494 764 z "},"÷":{"ha":694,"x_min":64,"x_max":632,"o":"m 64 414 l 632 414 l 632 317 l 64 317 l 64 414 m 428 133 q 406 75 428 100 q 347 50 383 50 q 287 75 310 50 q 264 133 264 100 q 287 194 264 168 q 347 219 310 219 q 406 194 383 219 q 428 133 428 168 m 428 594 q 406 535 428 561 q 347 510 383 510 q 287 535 310 510 q 264 594 264 561 q 287 654 264 629 q 347 679 310 679 q 406 654 383 679 q 428 594 428 629 z "},"ø":{"ha":694,"x_min":56,"x_max":639,"o":"m 63 6 l 125 92 q 74 194 93 136 q 56 322 56 251 q 77 461 56 399 q 138 567 99 524 q 230 635 176 611 q 346 660 283 660 q 508 610 442 660 l 567 689 l 632 639 l 568 551 q 620 451 601 508 q 639 322 639 393 q 617 184 639 246 q 557 78 596 122 q 464 9 518 33 q 346 -15 410 -15 q 260 -2 300 -15 q 185 35 219 11 l 126 -44 l 63 6 m 521 322 q 516 396 521 361 q 499 458 511 431 l 247 118 q 292 94 267 101 q 346 88 317 88 q 474 151 426 88 q 521 322 521 214 m 174 322 q 178 247 174 279 q 196 188 183 215 l 446 526 q 401 551 426 543 q 346 558 375 558 q 220 495 267 558 q 174 322 174 432 z "},"ù":{"ha":694,"x_min":94,"x_max":596,"o":"m 596 18 q 497 -3 558 8 q 351 -14 435 -14 q 229 8 278 -14 q 150 69 181 29 q 107 163 119 108 q 94 282 94 217 l 94 644 l 208 644 l 208 307 q 244 138 208 188 q 363 88 279 88 q 399 89 381 88 q 435 92 418 90 q 464 97 451 94 q 481 100 476 99 l 481 644 l 596 644 l 596 18 m 300 963 l 458 771 l 400 719 l 226 889 l 300 963 z "},"ú":{"ha":694,"x_min":94,"x_max":596,"o":"m 596 18 q 497 -3 558 8 q 351 -14 435 -14 q 229 8 278 -14 q 150 69 181 29 q 107 163 119 108 q 94 282 94 217 l 94 644 l 208 644 l 208 307 q 244 138 208 188 q 363 88 279 88 q 399 89 381 88 q 435 92 418 90 q 464 97 451 94 q 481 100 476 99 l 481 644 l 596 644 l 596 18 m 482 889 l 307 719 l 249 771 l 407 963 l 482 889 z "},"û":{"ha":694,"x_min":94,"x_max":596,"o":"m 596 18 q 497 -3 558 8 q 351 -14 435 -14 q 229 8 278 -14 q 150 69 181 29 q 107 163 119 108 q 94 282 94 217 l 94 644 l 208 644 l 208 307 q 244 138 208 188 q 363 88 279 88 q 399 89 381 88 q 435 92 418 90 q 464 97 451 94 q 481 100 476 99 l 481 644 l 596 644 l 596 18 m 347 954 l 515 776 l 468 722 l 347 831 l 226 722 l 179 776 l 347 954 z "},"ü":{"ha":694,"x_min":94,"x_max":596,"o":"m 596 18 q 497 -3 558 8 q 351 -14 435 -14 q 229 8 278 -14 q 150 69 181 29 q 107 163 119 108 q 94 282 94 217 l 94 644 l 208 644 l 208 307 q 244 138 208 188 q 363 88 279 88 q 399 89 381 88 q 435 92 418 90 q 464 97 451 94 q 481 100 476 99 l 481 644 l 596 644 l 596 18 m 229 764 q 179 785 201 764 q 157 838 157 806 q 179 890 157 869 q 229 910 201 910 q 280 890 258 910 q 301 838 301 869 q 280 785 301 806 q 229 764 258 764 m 465 764 q 415 785 436 764 q 393 838 393 806 q 415 890 393 869 q 465 910 436 910 q 516 890 494 910 q 538 838 538 869 q 516 785 538 806 q 465 764 494 764 z "},"ý":{"ha":694,"x_min":50,"x_max":640,"o":"m 71 -121 q 106 -132 83 -128 q 149 -136 129 -136 q 255 -106 217 -136 q 325 -8 293 -76 q 179 308 247 139 q 67 644 111 476 l 192 644 q 224 524 206 589 q 267 392 243 460 q 317 255 290 324 q 375 124 344 186 q 417 250 397 188 q 453 376 436 313 q 486 505 469 439 q 521 644 503 571 l 640 644 q 541 294 596 464 q 424 -19 486 125 q 373 -115 400 -75 q 314 -182 346 -156 q 242 -221 282 -208 q 150 -233 201 -233 q 92 -226 124 -233 q 50 -214 61 -219 l 71 -121 m 490 889 l 315 719 l 257 771 l 415 963 l 490 889 z "},"þ":{"ha":694,"x_min":99,"x_max":639,"o":"m 639 321 q 620 185 639 247 q 566 79 601 124 q 479 10 531 35 q 363 -15 428 -15 q 272 -3 311 -15 q 214 25 233 10 l 214 -229 l 99 -229 l 99 943 l 214 963 l 214 621 q 292 651 254 642 q 365 660 329 660 q 474 637 424 660 q 560 570 524 614 q 618 464 597 526 q 639 321 639 401 m 521 321 q 508 426 521 381 q 473 500 496 471 q 419 544 450 529 q 351 558 388 558 q 283 546 315 558 q 214 510 250 533 l 214 136 q 271 103 233 118 q 349 88 308 88 q 427 106 394 88 q 481 155 460 124 q 511 228 501 186 q 521 321 521 271 z "},"ÿ":{"ha":694,"x_min":50,"x_max":640,"o":"m 71 -121 q 106 -132 83 -128 q 149 -136 129 -136 q 255 -106 217 -136 q 325 -8 293 -76 q 179 308 247 139 q 67 644 111 476 l 192 644 q 224 524 206 589 q 267 392 243 460 q 317 255 290 324 q 375 124 344 186 q 417 250 397 188 q 453 376 436 313 q 486 505 469 439 q 521 644 503 571 l 640 644 q 541 294 596 464 q 424 -19 486 125 q 373 -115 400 -75 q 314 -182 346 -156 q 242 -221 282 -208 q 150 -233 201 -233 q 92 -226 124 -233 q 50 -214 61 -219 l 71 -121 m 250 764 q 200 785 222 764 q 178 838 178 806 q 200 890 178 869 q 250 910 222 910 q 301 890 279 910 q 322 838 322 869 q 301 785 322 806 q 250 764 279 764 m 486 764 q 435 785 457 764 q 414 838 414 806 q 435 890 414 869 q 486 910 457 910 q 537 890 515 910 q 558 838 558 869 q 537 785 558 806 q 486 764 515 764 z "},"Ā":{"ha":694,"x_min":13,"x_max":682,"o":"m 561 0 l 510 225 l 179 225 l 129 0 l 13 0 q 65 199 36 92 q 128 418 94 306 q 200 644 163 531 q 279 860 238 757 l 421 860 q 498 644 461 757 q 567 418 535 531 q 629 199 600 306 q 682 0 658 92 l 561 0 m 346 760 q 276 557 314 672 q 206 319 239 442 l 483 319 q 415 560 451 444 q 346 760 378 676 m 171 1075 l 524 1075 l 524 986 l 171 986 l 171 1075 z "},"ā":{"ha":694,"x_min":81,"x_max":600,"o":"m 354 82 q 431 85 397 82 q 488 92 465 88 l 488 283 q 434 294 465 290 q 368 299 403 299 q 306 294 336 299 q 251 276 275 289 q 213 244 228 264 q 197 193 197 224 q 240 106 197 131 q 354 82 282 82 m 343 660 q 465 642 415 660 q 544 592 514 624 q 588 514 575 560 q 600 414 600 468 l 600 11 q 494 -6 560 4 q 358 -15 428 -15 q 256 -6 306 -15 q 167 26 206 3 q 104 89 128 49 q 81 192 81 129 q 105 285 81 247 q 167 347 129 324 q 255 381 206 371 q 354 392 304 392 q 488 376 422 392 l 488 408 q 481 465 488 438 q 458 514 475 492 q 410 549 440 536 q 333 563 381 563 q 229 554 274 563 q 161 538 185 546 l 147 632 q 226 651 171 643 q 343 660 281 660 m 183 882 l 536 882 l 536 793 l 183 793 l 183 882 z "},"Ă":{"ha":694,"x_min":13,"x_max":682,"o":"m 561 0 l 510 225 l 179 225 l 129 0 l 13 0 q 65 199 36 92 q 128 418 94 306 q 200 644 163 531 q 279 860 238 757 l 421 860 q 498 644 461 757 q 567 418 535 531 q 629 199 600 306 q 682 0 658 92 l 561 0 m 346 760 q 276 557 314 672 q 206 319 239 442 l 483 319 q 415 560 451 444 q 346 760 378 676 m 347 950 q 282 962 313 950 q 228 995 251 974 q 193 1049 206 1017 q 182 1122 181 1081 l 257 1122 q 263 1092 258 1108 q 277 1063 267 1076 q 304 1042 288 1050 q 347 1033 321 1033 q 391 1042 374 1033 q 418 1063 408 1050 q 432 1092 428 1076 q 438 1122 436 1108 l 513 1122 q 501 1049 514 1081 q 466 995 489 1017 q 413 962 443 974 q 347 950 382 950 z "},"ă":{"ha":694,"x_min":81,"x_max":600,"o":"m 354 82 q 431 85 397 82 q 488 92 465 88 l 488 283 q 434 294 465 290 q 368 299 403 299 q 306 294 336 299 q 251 276 275 289 q 213 244 228 264 q 197 193 197 224 q 240 106 197 131 q 354 82 282 82 m 343 660 q 465 642 415 660 q 544 592 514 624 q 588 514 575 560 q 600 414 600 468 l 600 11 q 494 -6 560 4 q 358 -15 428 -15 q 256 -6 306 -15 q 167 26 206 3 q 104 89 128 49 q 81 192 81 129 q 105 285 81 247 q 167 347 129 324 q 255 381 206 371 q 354 392 304 392 q 488 376 422 392 l 488 408 q 481 465 488 438 q 458 514 475 492 q 410 549 440 536 q 333 563 381 563 q 229 554 274 563 q 161 538 185 546 l 147 632 q 226 651 171 643 q 343 660 281 660 m 347 757 q 282 769 313 757 q 228 802 251 781 q 193 856 206 824 q 182 929 181 888 l 257 929 q 263 899 258 915 q 277 870 267 883 q 304 849 288 857 q 347 840 321 840 q 391 849 374 840 q 418 870 408 857 q 432 899 428 883 q 438 929 436 915 l 513 929 q 501 856 514 888 q 466 802 489 824 q 413 769 443 781 q 347 757 382 757 z "},"Ą":{"ha":694,"x_min":13,"x_max":689,"o":"m 681 3 q 647 -21 661 -8 q 617 -49 632 -33 q 589 -83 599 -68 q 579 -115 579 -97 q 629 -151 579 -151 q 651 -149 638 -151 q 679 -143 665 -147 l 689 -218 q 607 -232 657 -232 q 506 -208 536 -232 q 475 -140 475 -185 q 503 -65 475 -100 q 563 -4 531 -31 l 510 225 l 179 225 l 129 0 l 13 0 q 65 199 36 92 q 128 418 94 306 q 200 644 163 531 q 279 860 238 757 l 421 860 q 498 644 461 757 q 567 419 535 532 q 628 201 600 307 q 681 3 657 94 m 346 760 q 276 557 314 672 q 206 319 239 442 l 483 319 q 415 560 451 444 q 346 760 378 676 z "},"ą":{"ha":694,"x_min":81,"x_max":601,"o":"m 343 660 q 465 642 415 660 q 544 592 514 624 q 588 514 575 560 q 600 414 600 468 l 600 11 q 569 -12 588 3 q 535 -44 551 -26 q 506 -80 518 -61 q 493 -115 493 -99 q 542 -151 493 -151 q 564 -149 550 -151 q 593 -143 578 -147 l 601 -218 q 519 -232 571 -232 q 416 -207 449 -232 q 383 -137 383 -182 q 402 -79 383 -108 q 458 -10 421 -50 q 409 -14 435 -12 q 358 -15 383 -15 q 256 -6 306 -15 q 167 26 206 3 q 104 89 128 49 q 81 192 81 129 q 105 285 81 247 q 167 347 129 324 q 255 381 206 371 q 354 392 304 392 q 488 376 422 392 l 488 408 q 481 465 488 438 q 458 514 475 492 q 410 549 440 536 q 333 563 381 563 q 229 554 274 563 q 161 538 185 546 l 147 632 q 226 651 171 643 q 343 660 281 660 m 354 82 q 431 85 397 82 q 488 92 465 88 l 488 283 q 434 294 465 290 q 368 299 403 299 q 306 294 336 299 q 251 276 275 289 q 213 244 228 264 q 197 193 197 224 q 240 106 197 131 q 354 82 282 82 z "},"Ć":{"ha":694,"x_min":64,"x_max":639,"o":"m 639 36 q 535 -5 590 8 q 418 -18 481 -18 q 277 9 342 -18 q 165 91 213 36 q 91 231 118 146 q 64 431 64 315 q 92 624 64 540 q 169 764 121 707 q 283 850 218 821 q 422 879 349 879 q 527 865 474 879 q 632 819 581 851 l 599 725 q 426 778 507 778 q 324 753 369 778 q 247 683 279 729 q 198 574 215 638 q 181 431 181 510 q 199 276 181 342 q 251 168 218 211 q 331 104 285 125 q 432 83 378 83 q 517 94 472 83 q 608 131 561 104 l 639 36 m 544 1079 l 369 910 l 311 961 l 469 1153 l 544 1079 z "},"ć":{"ha":694,"x_min":68,"x_max":626,"o":"m 68 321 q 96 472 68 408 q 172 578 124 536 q 285 640 221 619 q 424 660 350 660 q 517 653 471 660 q 617 631 564 647 l 590 532 q 506 553 544 549 q 429 558 468 558 q 335 545 379 558 q 258 503 290 532 q 206 430 225 475 q 186 321 186 385 q 204 216 186 260 q 255 144 222 172 q 333 101 288 115 q 435 88 379 88 q 520 92 479 88 q 610 114 561 97 l 626 18 q 528 -8 578 0 q 419 -15 478 -15 q 277 6 342 -15 q 166 69 213 28 q 94 174 119 111 q 68 321 68 238 m 532 889 l 357 719 l 299 771 l 457 963 l 532 889 z "},"Ĉ":{"ha":694,"x_min":64,"x_max":639,"o":"m 639 36 q 535 -5 590 8 q 418 -18 481 -18 q 277 9 342 -18 q 165 91 213 36 q 91 231 118 146 q 64 431 64 315 q 92 624 64 540 q 169 764 121 707 q 283 850 218 821 q 422 879 349 879 q 527 865 474 879 q 632 819 581 851 l 599 725 q 426 778 507 778 q 324 753 369 778 q 247 683 279 729 q 198 574 215 638 q 181 431 181 510 q 199 276 181 342 q 251 168 218 211 q 331 104 285 125 q 432 83 378 83 q 517 94 472 83 q 608 131 561 104 l 639 36 m 422 1147 l 590 969 l 543 915 l 422 1024 l 301 915 l 254 969 l 422 1147 z "},"ĉ":{"ha":694,"x_min":68,"x_max":626,"o":"m 68 321 q 96 472 68 408 q 172 578 124 536 q 285 640 221 619 q 424 660 350 660 q 517 653 471 660 q 617 631 564 647 l 590 532 q 506 553 544 549 q 429 558 468 558 q 335 545 379 558 q 258 503 290 532 q 206 430 225 475 q 186 321 186 385 q 204 216 186 260 q 255 144 222 172 q 333 101 288 115 q 435 88 379 88 q 520 92 479 88 q 610 114 561 97 l 626 18 q 528 -8 578 0 q 419 -15 478 -15 q 277 6 342 -15 q 166 69 213 28 q 94 174 119 111 q 68 321 68 238 m 417 954 l 585 776 l 538 722 l 417 831 l 296 722 l 249 776 l 417 954 z "},"Ċ":{"ha":694,"x_min":64,"x_max":639,"o":"m 639 36 q 535 -5 590 8 q 418 -18 481 -18 q 277 9 342 -18 q 165 91 213 36 q 91 231 118 146 q 64 431 64 315 q 92 624 64 540 q 169 764 121 707 q 283 850 218 821 q 422 879 349 879 q 527 865 474 879 q 632 819 581 851 l 599 725 q 426 778 507 778 q 324 753 369 778 q 247 683 279 729 q 198 574 215 638 q 181 431 181 510 q 199 276 181 342 q 251 168 218 211 q 331 104 285 125 q 432 83 378 83 q 517 94 472 83 q 608 131 561 104 l 639 36 m 422 946 q 363 969 388 946 q 339 1031 339 992 q 363 1091 339 1068 q 422 1114 388 1114 q 481 1091 457 1114 q 506 1031 506 1068 q 481 969 506 992 q 422 946 457 946 z "},"ċ":{"ha":694,"x_min":68,"x_max":626,"o":"m 68 321 q 96 472 68 408 q 172 578 124 536 q 285 640 221 619 q 424 660 350 660 q 517 653 471 660 q 617 631 564 647 l 590 532 q 506 553 544 549 q 429 558 468 558 q 335 545 379 558 q 258 503 290 532 q 206 430 225 475 q 186 321 186 385 q 204 216 186 260 q 255 144 222 172 q 333 101 288 115 q 435 88 379 88 q 520 92 479 88 q 610 114 561 97 l 626 18 q 528 -8 578 0 q 419 -15 478 -15 q 277 6 342 -15 q 166 69 213 28 q 94 174 119 111 q 68 321 68 238 m 422 753 q 363 776 388 753 q 339 838 339 799 q 363 898 339 875 q 422 921 388 921 q 481 898 457 921 q 506 838 506 875 q 481 776 506 799 q 422 753 457 753 z "},"Č":{"ha":694,"x_min":64,"x_max":639,"o":"m 639 36 q 535 -5 590 8 q 418 -18 481 -18 q 277 9 342 -18 q 165 91 213 36 q 91 231 118 146 q 64 431 64 315 q 92 624 64 540 q 169 764 121 707 q 283 850 218 821 q 422 879 349 879 q 527 865 474 879 q 632 819 581 851 l 599 725 q 426 778 507 778 q 324 753 369 778 q 247 683 279 729 q 198 574 215 638 q 181 431 181 510 q 199 276 181 342 q 251 168 218 211 q 331 104 285 125 q 432 83 378 83 q 517 94 472 83 q 608 131 561 104 l 639 36 m 254 1097 l 301 1151 l 422 1043 l 543 1151 l 590 1097 l 422 919 l 254 1097 z "},"č":{"ha":694,"x_min":68,"x_max":626,"o":"m 68 321 q 96 472 68 408 q 172 578 124 536 q 285 640 221 619 q 424 660 350 660 q 517 653 471 660 q 617 631 564 647 l 590 532 q 506 553 544 549 q 429 558 468 558 q 335 545 379 558 q 258 503 290 532 q 206 430 225 475 q 186 321 186 385 q 204 216 186 260 q 255 144 222 172 q 333 101 288 115 q 435 88 379 88 q 520 92 479 88 q 610 114 561 97 l 626 18 q 528 -8 578 0 q 419 -15 478 -15 q 277 6 342 -15 q 166 69 213 28 q 94 174 119 111 q 68 321 68 238 m 249 904 l 296 958 l 417 850 l 538 958 l 585 904 l 417 726 l 249 904 z "},"Ď":{"ha":694,"x_min":75,"x_max":639,"o":"m 639 431 q 609 228 639 311 q 527 92 579 144 q 403 17 475 40 q 249 -7 332 -7 q 75 14 163 -7 l 75 847 q 249 868 163 868 q 403 844 332 868 q 527 768 475 821 q 609 632 579 715 q 639 431 639 549 m 189 96 q 260 92 224 92 q 371 110 322 92 q 453 170 419 129 q 504 276 486 211 q 522 431 522 340 q 455 688 522 606 q 256 769 388 769 q 220 769 238 769 q 189 765 203 768 l 189 96 m 131 1097 l 178 1151 l 299 1043 l 419 1151 l 467 1097 l 299 919 l 131 1097 z "},"ď":{"ha":694,"x_min":28,"x_max":694,"o":"m 390 508 q 344 542 375 526 q 279 558 314 558 q 218 540 243 558 q 177 491 193 522 q 153 416 161 460 q 146 322 146 372 q 188 149 146 210 q 296 88 229 88 q 355 92 331 88 q 390 100 379 96 l 390 508 m 390 943 l 504 963 l 504 18 q 419 -4 471 7 q 296 -15 367 -15 q 185 8 235 -15 q 101 76 136 32 q 47 182 67 119 q 28 322 28 244 q 44 459 28 397 q 90 565 60 521 q 165 635 121 610 q 265 660 210 660 q 342 647 310 660 q 390 621 374 635 l 390 943 m 694 963 l 661 686 l 585 686 l 585 963 l 694 963 z "},"Đ":{"ha":694,"x_min":25,"x_max":639,"o":"m 639 431 q 610 228 639 311 q 533 92 582 144 q 415 17 483 40 q 268 -7 347 -7 q 99 14 183 -7 l 99 404 l 25 404 l 25 493 l 99 493 l 99 847 q 268 868 183 868 q 415 844 347 868 q 533 768 483 821 q 610 632 582 715 q 639 431 639 549 m 214 96 q 246 92 229 93 q 278 92 263 92 q 381 110 336 92 q 458 170 426 129 q 506 276 489 211 q 522 431 522 340 q 459 688 522 606 q 274 769 396 769 q 214 765 239 769 l 214 493 l 350 493 l 350 404 l 214 404 l 214 96 z "},"đ":{"ha":694,"x_min":56,"x_max":667,"o":"m 461 761 l 215 761 l 215 847 l 461 847 l 461 943 l 575 963 l 575 847 l 667 847 l 667 761 l 575 761 l 575 18 q 483 -4 539 7 q 353 -15 428 -15 q 231 8 286 -15 q 138 76 176 32 q 77 182 99 119 q 56 322 56 244 q 74 459 56 397 q 126 565 92 521 q 210 635 161 610 q 321 660 260 660 q 406 647 369 660 q 461 621 442 635 l 461 761 m 461 508 q 408 542 442 526 q 335 558 374 558 q 261 540 292 558 q 211 491 231 522 q 183 416 192 460 q 174 322 174 372 q 224 149 174 210 q 353 88 274 88 q 421 92 393 88 q 461 100 449 96 l 461 508 z "},"Ē":{"ha":694,"x_min":126,"x_max":639,"o":"m 126 0 l 126 860 l 608 860 l 608 763 l 240 763 l 240 499 l 563 499 l 563 401 l 240 401 l 240 97 l 639 97 l 639 0 l 126 0 m 196 1075 l 549 1075 l 549 986 l 196 986 l 196 1075 z "},"ē":{"ha":694,"x_min":56,"x_max":632,"o":"m 360 660 q 561 578 490 660 q 632 332 632 497 l 632 292 l 171 292 q 237 140 178 192 q 403 88 296 88 q 507 97 464 88 q 572 118 550 107 l 588 21 q 513 -3 567 10 q 390 -15 458 -15 q 244 10 307 -15 q 139 81 181 36 q 76 187 97 125 q 56 321 56 249 q 82 471 56 407 q 151 576 108 535 q 249 639 194 618 q 360 660 303 660 m 515 385 q 472 515 515 467 q 358 563 429 563 q 285 547 318 563 q 229 507 253 532 q 192 450 206 482 q 174 385 178 418 l 515 385 m 183 882 l 536 882 l 536 793 l 183 793 l 183 882 z "},"Ĕ":{"ha":694,"x_min":126,"x_max":639,"o":"m 126 0 l 126 860 l 608 860 l 608 763 l 240 763 l 240 499 l 563 499 l 563 401 l 240 401 l 240 97 l 639 97 l 639 0 l 126 0 m 372 950 q 307 962 338 950 q 253 995 276 974 q 218 1049 231 1017 q 207 1122 206 1081 l 282 1122 q 288 1092 283 1108 q 302 1063 292 1076 q 329 1042 313 1050 q 372 1033 346 1033 q 416 1042 399 1033 q 443 1063 433 1050 q 457 1092 453 1076 q 463 1122 461 1108 l 538 1122 q 526 1049 539 1081 q 491 995 514 1017 q 438 962 468 974 q 372 950 407 950 z "},"ĕ":{"ha":694,"x_min":56,"x_max":632,"o":"m 360 660 q 561 578 490 660 q 632 332 632 497 l 632 292 l 171 292 q 237 140 178 192 q 403 88 296 88 q 507 97 464 88 q 572 118 550 107 l 588 21 q 513 -3 567 10 q 390 -15 458 -15 q 244 10 307 -15 q 139 81 181 36 q 76 187 97 125 q 56 321 56 249 q 82 471 56 407 q 151 576 108 535 q 249 639 194 618 q 360 660 303 660 m 515 385 q 472 515 515 467 q 358 563 429 563 q 285 547 318 563 q 229 507 253 532 q 192 450 206 482 q 174 385 178 418 l 515 385 m 360 757 q 294 769 325 757 q 241 802 264 781 q 206 856 218 824 q 194 929 193 888 l 269 929 q 275 899 271 915 q 290 870 279 883 q 317 849 300 857 q 360 840 333 840 q 403 849 386 840 q 431 870 421 857 q 444 899 440 883 q 450 929 449 915 l 525 929 q 514 856 526 888 q 478 802 501 824 q 425 769 456 781 q 360 757 394 757 z "},"Ė":{"ha":694,"x_min":126,"x_max":639,"o":"m 126 0 l 126 860 l 608 860 l 608 763 l 240 763 l 240 499 l 563 499 l 563 401 l 240 401 l 240 97 l 639 97 l 639 0 l 126 0 m 378 946 q 319 969 343 946 q 294 1031 294 992 q 319 1091 294 1068 q 378 1114 343 1114 q 437 1091 413 1114 q 461 1031 461 1068 q 437 969 461 992 q 378 946 413 946 z "},"ė":{"ha":694,"x_min":56,"x_max":632,"o":"m 360 660 q 561 578 490 660 q 632 332 632 497 l 632 292 l 171 292 q 237 140 178 192 q 403 88 296 88 q 507 97 464 88 q 572 118 550 107 l 588 21 q 513 -3 567 10 q 390 -15 458 -15 q 244 10 307 -15 q 139 81 181 36 q 76 187 97 125 q 56 321 56 249 q 82 471 56 407 q 151 576 108 535 q 249 639 194 618 q 360 660 303 660 m 515 385 q 472 515 515 467 q 358 563 429 563 q 285 547 318 563 q 229 507 253 532 q 192 450 206 482 q 174 385 178 418 l 515 385 m 360 753 q 301 776 325 753 q 276 838 276 799 q 301 898 276 875 q 360 921 325 921 q 419 898 394 921 q 443 838 443 875 q 419 776 443 799 q 360 753 394 753 z "},"Ę":{"ha":694,"x_min":126,"x_max":643,"o":"m 639 3 q 572 -49 604 -17 q 544 -83 554 -68 q 535 -115 535 -97 q 585 -151 535 -151 q 607 -149 593 -151 q 635 -143 621 -147 l 643 -218 q 563 -232 613 -232 q 461 -208 492 -232 q 431 -140 431 -185 q 445 -85 431 -111 q 482 -36 460 -58 q 503 -15 493 -25 q 519 0 513 -6 l 126 0 l 126 860 l 608 860 l 608 763 l 240 763 l 240 499 l 563 499 l 563 401 l 240 401 l 240 97 l 639 97 l 639 3 z "},"ę":{"ha":694,"x_min":56,"x_max":632,"o":"m 360 660 q 561 578 490 660 q 632 332 632 497 l 632 292 l 171 292 q 237 140 178 192 q 403 88 296 88 q 507 97 464 88 q 572 118 550 107 l 588 21 q 549 -8 574 10 q 504 -49 525 -25 q 476 -83 486 -68 q 465 -115 465 -97 q 515 -151 465 -151 q 538 -149 524 -151 q 565 -143 551 -147 l 574 -218 q 493 -232 543 -232 q 389 -207 422 -232 q 356 -137 356 -182 q 372 -83 356 -108 q 410 -36 388 -58 q 435 -12 422 -22 q 413 -15 424 -14 q 390 -15 401 -15 q 244 10 307 -15 q 139 81 181 36 q 76 187 97 125 q 56 321 56 249 q 82 471 56 407 q 151 576 108 535 q 249 639 194 618 q 360 660 303 660 m 515 385 q 473 513 517 464 q 358 563 429 563 q 285 547 318 563 q 229 507 253 532 q 192 450 206 482 q 174 385 178 418 l 515 385 z "},"Ě":{"ha":694,"x_min":126,"x_max":639,"o":"m 126 0 l 126 860 l 608 860 l 608 763 l 240 763 l 240 499 l 563 499 l 563 401 l 240 401 l 240 97 l 639 97 l 639 0 l 126 0 m 217 1097 l 264 1151 l 385 1043 l 506 1151 l 553 1097 l 385 919 l 217 1097 z "},"ě":{"ha":694,"x_min":56,"x_max":632,"o":"m 360 660 q 561 578 490 660 q 632 332 632 497 l 632 292 l 171 292 q 237 140 178 192 q 403 88 296 88 q 507 97 464 88 q 572 118 550 107 l 588 21 q 513 -3 567 10 q 390 -15 458 -15 q 244 10 307 -15 q 139 81 181 36 q 76 187 97 125 q 56 321 56 249 q 82 471 56 407 q 151 576 108 535 q 249 639 194 618 q 360 660 303 660 m 515 385 q 472 515 515 467 q 358 563 429 563 q 285 547 318 563 q 229 507 253 532 q 192 450 206 482 q 174 385 178 418 l 515 385 m 192 904 l 239 958 l 360 850 l 481 958 l 528 904 l 360 726 l 192 904 z "},"Ĝ":{"ha":694,"x_min":64,"x_max":632,"o":"m 518 424 l 632 424 l 632 21 q 547 -3 606 11 q 410 -18 489 -18 q 268 12 332 -18 q 159 99 204 42 q 89 240 114 156 q 64 431 64 324 q 92 622 64 539 q 167 763 119 706 q 279 849 215 819 q 417 879 343 879 q 500 872 464 879 q 562 856 536 865 q 604 835 588 846 q 629 819 621 825 l 592 724 q 516 765 560 749 q 424 781 472 781 q 326 756 371 781 q 249 685 281 731 q 199 574 217 639 q 181 431 181 510 q 197 289 181 353 q 243 179 213 225 q 319 108 274 133 q 422 82 364 82 q 485 88 463 82 q 518 99 507 93 l 518 424 m 410 1147 l 578 969 l 531 915 l 410 1024 l 289 915 l 242 969 l 410 1147 z "},"ĝ":{"ha":694,"x_min":56,"x_max":596,"o":"m 481 60 q 421 36 461 49 q 328 24 381 24 q 222 42 271 24 q 135 99 172 61 q 77 197 99 138 q 56 336 56 256 q 76 466 56 407 q 134 568 96 525 q 228 635 172 611 q 354 660 283 660 q 497 648 438 660 q 596 625 556 636 l 596 50 q 520 -167 596 -100 q 292 -233 444 -233 q 178 -224 229 -233 q 89 -200 128 -214 l 110 -99 q 192 -124 146 -114 q 294 -133 239 -133 q 438 -93 394 -133 q 481 38 481 -53 l 481 60 m 481 543 q 435 553 464 549 q 356 558 406 558 q 220 497 267 558 q 174 335 174 436 q 187 240 174 279 q 223 174 200 200 q 275 137 246 149 q 338 125 304 125 q 419 138 381 125 q 481 167 457 150 l 481 543 m 347 954 l 515 776 l 468 722 l 347 831 l 226 722 l 179 776 l 347 954 z "},"Ğ":{"ha":694,"x_min":64,"x_max":632,"o":"m 518 424 l 632 424 l 632 21 q 547 -3 606 11 q 410 -18 489 -18 q 268 12 332 -18 q 159 99 204 42 q 89 240 114 156 q 64 431 64 324 q 92 622 64 539 q 167 763 119 706 q 279 849 215 819 q 417 879 343 879 q 500 872 464 879 q 562 856 536 865 q 604 835 588 846 q 629 819 621 825 l 592 724 q 516 765 560 749 q 424 781 472 781 q 326 756 371 781 q 249 685 281 731 q 199 574 217 639 q 181 431 181 510 q 197 289 181 353 q 243 179 213 225 q 319 108 274 133 q 422 82 364 82 q 485 88 463 82 q 518 99 507 93 l 518 424 m 422 950 q 357 962 388 950 q 303 995 326 974 q 268 1049 281 1017 q 257 1122 256 1081 l 332 1122 q 338 1092 333 1108 q 352 1063 342 1076 q 379 1042 363 1050 q 422 1033 396 1033 q 466 1042 449 1033 q 493 1063 483 1050 q 507 1092 503 1076 q 513 1122 511 1108 l 588 1122 q 576 1049 589 1081 q 541 995 564 1017 q 488 962 518 974 q 422 950 457 950 z "},"ğ":{"ha":694,"x_min":56,"x_max":596,"o":"m 481 60 q 421 36 461 49 q 328 24 381 24 q 222 42 271 24 q 135 99 172 61 q 77 197 99 138 q 56 336 56 256 q 76 466 56 407 q 134 568 96 525 q 228 635 172 611 q 354 660 283 660 q 497 648 438 660 q 596 625 556 636 l 596 50 q 520 -167 596 -100 q 292 -233 444 -233 q 178 -224 229 -233 q 89 -200 128 -214 l 110 -99 q 192 -124 146 -114 q 294 -133 239 -133 q 438 -93 394 -133 q 481 38 481 -53 l 481 60 m 481 543 q 435 553 464 549 q 356 558 406 558 q 220 497 267 558 q 174 335 174 436 q 187 240 174 279 q 223 174 200 200 q 275 137 246 149 q 338 125 304 125 q 419 138 381 125 q 481 167 457 150 l 481 543 m 347 757 q 282 769 313 757 q 228 802 251 781 q 193 856 206 824 q 182 929 181 888 l 257 929 q 263 899 258 915 q 277 870 267 883 q 304 849 288 857 q 347 840 321 840 q 391 849 374 840 q 418 870 408 857 q 432 899 428 883 q 438 929 436 915 l 513 929 q 501 856 514 888 q 466 802 489 824 q 413 769 443 781 q 347 757 382 757 z "},"Ġ":{"ha":694,"x_min":64,"x_max":632,"o":"m 518 424 l 632 424 l 632 21 q 547 -3 606 11 q 410 -18 489 -18 q 268 12 332 -18 q 159 99 204 42 q 89 240 114 156 q 64 431 64 324 q 92 622 64 539 q 167 763 119 706 q 279 849 215 819 q 417 879 343 879 q 500 872 464 879 q 562 856 536 865 q 604 835 588 846 q 629 819 621 825 l 592 724 q 516 765 560 749 q 424 781 472 781 q 326 756 371 781 q 249 685 281 731 q 199 574 217 639 q 181 431 181 510 q 197 289 181 353 q 243 179 213 225 q 319 108 274 133 q 422 82 364 82 q 485 88 463 82 q 518 99 507 93 l 518 424 m 410 946 q 351 969 375 946 q 326 1031 326 992 q 351 1091 326 1068 q 410 1114 375 1114 q 469 1091 444 1114 q 493 1031 493 1068 q 469 969 493 992 q 410 946 444 946 z "},"ġ":{"ha":694,"x_min":56,"x_max":596,"o":"m 481 60 q 421 36 461 49 q 328 24 381 24 q 222 42 271 24 q 135 99 172 61 q 77 197 99 138 q 56 336 56 256 q 76 466 56 407 q 134 568 96 525 q 228 635 172 611 q 354 660 283 660 q 497 648 438 660 q 596 625 556 636 l 596 50 q 520 -167 596 -100 q 292 -233 444 -233 q 178 -224 229 -233 q 89 -200 128 -214 l 110 -99 q 192 -124 146 -114 q 294 -133 239 -133 q 438 -93 394 -133 q 481 38 481 -53 l 481 60 m 481 543 q 435 553 464 549 q 356 558 406 558 q 220 497 267 558 q 174 335 174 436 q 187 240 174 279 q 223 174 200 200 q 275 137 246 149 q 338 125 304 125 q 419 138 381 125 q 481 167 457 150 l 481 543 m 347 753 q 288 776 313 753 q 264 838 264 799 q 288 898 264 875 q 347 921 313 921 q 406 898 382 921 q 431 838 431 875 q 406 776 431 799 q 347 753 382 753 z "},"Ģ":{"ha":694,"x_min":64,"x_max":632,"o":"m 518 424 l 632 424 l 632 21 q 547 -3 606 11 q 410 -18 489 -18 q 268 12 332 -18 q 159 99 204 42 q 89 240 114 156 q 64 431 64 324 q 92 622 64 539 q 167 763 119 706 q 279 849 215 819 q 417 879 343 879 q 500 872 464 879 q 562 856 536 865 q 604 835 588 846 q 629 819 621 825 l 592 724 q 516 765 560 749 q 424 781 472 781 q 326 756 371 781 q 249 685 281 731 q 199 574 217 639 q 181 431 181 510 q 197 289 181 353 q 243 179 213 225 q 319 108 274 133 q 422 82 364 82 q 485 88 463 82 q 518 99 507 93 l 518 424 m 356 -62 l 467 -62 q 469 -77 468 -69 q 469 -90 469 -85 q 427 -203 469 -169 q 321 -236 385 -236 q 263 -228 293 -236 l 263 -161 l 283 -161 q 342 -141 329 -161 q 356 -81 356 -121 l 356 -62 z "},"ģ":{"ha":694,"x_min":56,"x_max":596,"o":"m 481 60 q 421 36 461 49 q 328 24 381 24 q 222 42 271 24 q 135 99 172 61 q 77 197 99 138 q 56 336 56 256 q 76 466 56 407 q 134 568 96 525 q 228 635 172 611 q 354 660 283 660 q 497 648 438 660 q 596 625 556 636 l 596 50 q 520 -167 596 -100 q 292 -233 444 -233 q 178 -224 229 -233 q 89 -200 128 -214 l 110 -99 q 192 -124 146 -114 q 294 -133 239 -133 q 438 -93 394 -133 q 481 38 481 -53 l 481 60 m 481 543 q 435 553 464 549 q 356 558 406 558 q 220 497 267 558 q 174 335 174 436 q 187 240 174 279 q 223 174 200 200 q 275 137 246 149 q 338 125 304 125 q 419 138 381 125 q 481 167 457 150 l 481 543 m 399 756 l 289 756 q 288 770 288 763 q 288 782 288 778 q 300 859 288 826 q 333 914 313 892 q 378 949 353 936 q 428 968 403 963 l 468 913 q 440 890 453 901 q 418 864 428 879 q 403 826 408 849 q 399 771 399 804 l 399 756 z "},"Ĥ":{"ha":694,"x_min":63,"x_max":632,"o":"m 518 860 l 632 860 l 632 0 l 518 0 l 518 400 l 176 400 l 176 0 l 63 0 l 63 860 l 176 860 l 176 497 l 518 497 l 518 860 m 347 1147 l 515 969 l 468 915 l 347 1024 l 226 915 l 179 969 l 347 1147 z "},"ĥ":{"ha":694,"x_min":61,"x_max":600,"o":"m 99 0 l 99 929 l 214 949 l 214 635 q 276 652 242 646 q 344 658 311 658 q 467 637 418 658 q 546 576 517 615 q 588 483 575 538 q 600 364 600 429 l 600 0 l 486 0 l 486 339 q 453 508 486 458 q 333 557 419 557 q 263 549 297 557 q 214 535 229 542 l 214 0 l 99 0 m 214 1153 l 367 1035 l 331 979 l 214 1056 l 97 979 l 61 1035 l 214 1153 z "},"Ħ":{"ha":694,"x_min":25,"x_max":669,"o":"m 596 650 l 596 0 l 481 0 l 481 400 l 214 400 l 214 0 l 99 0 l 99 650 l 25 650 l 25 735 l 99 735 l 99 860 l 214 860 l 214 735 l 481 735 l 481 860 l 596 860 l 596 735 l 669 735 l 669 650 l 596 650 m 481 650 l 214 650 l 214 497 l 481 497 l 481 650 z "},"ħ":{"ha":694,"x_min":28,"x_max":600,"o":"m 28 847 l 119 847 l 119 943 l 233 963 l 233 847 l 458 847 l 458 761 l 233 761 l 233 635 q 294 652 260 646 q 358 658 328 658 q 473 637 426 658 q 547 576 519 615 q 588 483 575 538 q 600 364 600 429 l 600 0 l 486 0 l 486 339 q 455 508 486 458 q 347 557 424 557 q 281 549 315 557 q 233 535 247 542 l 233 0 l 119 0 l 119 761 l 28 761 l 28 847 z "},"Ĩ":{"ha":694,"x_min":124,"x_max":571,"o":"m 404 763 l 404 97 l 571 97 l 571 0 l 124 0 l 124 97 l 290 97 l 290 763 l 124 763 l 124 860 l 571 860 l 571 763 l 404 763 m 539 1075 q 524 1040 535 1060 q 499 1004 514 1021 q 463 976 483 988 q 415 964 442 964 q 373 974 397 964 q 333 990 349 983 q 275 1010 297 1010 q 240 992 257 1010 q 215 954 224 974 l 156 986 q 170 1021 160 1001 q 196 1057 181 1040 q 232 1085 211 1074 q 278 1097 253 1097 q 320 1087 296 1097 q 360 1069 344 1076 q 418 1050 396 1050 q 453 1068 436 1050 q 479 1106 471 1086 l 539 1075 z "},"ĩ":{"ha":694,"x_min":75,"x_max":625,"o":"m 261 549 l 75 549 l 75 644 l 375 644 l 375 249 q 401 120 375 153 q 481 88 428 88 q 555 97 521 88 q 608 118 589 107 l 625 21 q 601 10 617 17 q 566 -1 586 4 q 522 -11 546 -7 q 471 -15 497 -15 q 369 1 410 -15 q 305 51 329 18 q 271 134 281 85 q 261 249 261 183 l 261 549 m 490 882 q 476 847 486 867 q 450 811 465 828 q 414 783 435 794 q 367 771 393 771 q 324 781 349 771 q 285 797 300 790 q 226 817 249 817 q 192 799 208 817 q 167 761 175 781 l 107 793 q 122 828 111 808 q 147 864 132 847 q 183 892 163 881 q 229 904 204 904 q 272 894 247 904 q 311 876 296 883 q 369 857 347 857 q 405 875 388 857 q 431 913 422 893 l 490 882 z "},"Ī":{"ha":694,"x_min":124,"x_max":571,"o":"m 404 763 l 404 97 l 571 97 l 571 0 l 124 0 l 124 97 l 290 97 l 290 763 l 124 763 l 124 860 l 571 860 l 571 763 l 404 763 m 171 1075 l 524 1075 l 524 986 l 171 986 l 171 1075 z "},"ī":{"ha":694,"x_min":75,"x_max":625,"o":"m 261 549 l 75 549 l 75 644 l 375 644 l 375 249 q 401 120 375 153 q 481 88 428 88 q 555 97 521 88 q 608 118 589 107 l 625 21 q 601 10 617 17 q 566 -1 586 4 q 522 -11 546 -7 q 471 -15 497 -15 q 369 1 410 -15 q 305 51 329 18 q 271 134 281 85 q 261 249 261 183 l 261 549 m 122 882 l 475 882 l 475 793 l 122 793 l 122 882 z "},"Ĭ":{"ha":694,"x_min":124,"x_max":571,"o":"m 404 763 l 404 97 l 571 97 l 571 0 l 124 0 l 124 97 l 290 97 l 290 763 l 124 763 l 124 860 l 571 860 l 571 763 l 404 763 m 347 950 q 282 962 313 950 q 228 995 251 974 q 193 1049 206 1017 q 182 1122 181 1081 l 257 1122 q 263 1092 258 1108 q 277 1063 267 1076 q 304 1042 288 1050 q 347 1033 321 1033 q 391 1042 374 1033 q 418 1063 408 1050 q 432 1092 428 1076 q 438 1122 436 1108 l 513 1122 q 501 1049 514 1081 q 466 995 489 1017 q 413 962 443 974 q 347 950 382 950 z "},"ĭ":{"ha":694,"x_min":75,"x_max":625,"o":"m 261 549 l 75 549 l 75 644 l 375 644 l 375 249 q 401 120 375 153 q 481 88 428 88 q 555 97 521 88 q 608 118 589 107 l 625 21 q 601 10 617 17 q 566 -1 586 4 q 522 -11 546 -7 q 471 -15 497 -15 q 369 1 410 -15 q 305 51 329 18 q 271 134 281 85 q 261 249 261 183 l 261 549 m 299 757 q 233 769 264 757 q 180 802 203 781 q 144 856 157 824 q 133 929 132 888 l 208 929 q 214 899 210 915 q 228 870 218 883 q 256 849 239 857 q 299 840 272 840 q 342 849 325 840 q 369 870 360 857 q 383 899 379 883 q 389 929 388 915 l 464 929 q 453 856 465 888 q 417 802 440 824 q 364 769 394 781 q 299 757 333 757 z "},"Į":{"ha":694,"x_min":124,"x_max":571,"o":"m 404 763 l 404 97 l 571 97 l 571 0 l 406 0 q 351 -49 383 -17 q 322 -83 333 -68 q 311 -115 311 -97 q 361 -151 311 -151 q 383 -149 369 -151 q 411 -143 397 -147 l 421 -218 q 339 -232 389 -232 q 235 -207 268 -232 q 203 -137 203 -182 q 218 -83 203 -108 q 256 -33 233 -57 q 289 0 274 -11 l 124 0 l 124 97 l 290 97 l 290 763 l 124 763 l 124 860 l 571 860 l 571 763 l 404 763 z "},"į":{"ha":694,"x_min":75,"x_max":625,"o":"m 261 549 l 75 549 l 75 644 l 375 644 l 375 249 q 401 120 375 153 q 481 88 428 88 q 555 97 521 88 q 608 118 589 107 l 625 21 q 567 -23 583 -8 q 542 -49 551 -37 q 513 -83 524 -68 q 503 -115 503 -97 q 551 -151 503 -151 q 574 -149 560 -151 q 603 -143 589 -147 l 611 -218 q 529 -232 581 -232 q 426 -207 458 -232 q 393 -137 393 -182 q 410 -83 393 -108 q 449 -33 426 -57 q 460 -24 454 -29 q 471 -15 465 -18 q 369 1 410 -15 q 305 51 329 18 q 271 134 281 85 q 261 249 261 183 l 261 549 m 290 744 q 228 769 254 744 q 201 838 201 794 q 228 906 201 881 q 290 931 254 931 q 353 906 328 931 q 379 838 379 881 q 353 769 379 794 q 290 744 328 744 z "},"İ":{"ha":694,"x_min":124,"x_max":571,"o":"m 404 763 l 404 97 l 571 97 l 571 0 l 124 0 l 124 97 l 290 97 l 290 763 l 124 763 l 124 860 l 571 860 l 571 763 l 404 763 m 347 946 q 288 969 313 946 q 264 1031 264 992 q 288 1091 264 1068 q 347 1114 313 1114 q 406 1091 382 1114 q 431 1031 431 1068 q 406 969 431 992 q 347 946 382 946 z "},"ı":{"ha":694,"x_min":75,"x_max":625,"o":"m 261 549 l 75 549 l 75 644 l 375 644 l 375 249 q 401 120 375 153 q 481 88 428 88 q 555 97 521 88 q 608 118 589 107 l 625 21 q 601 10 617 17 q 566 -1 586 4 q 522 -11 546 -7 q 471 -15 497 -15 q 369 1 410 -15 q 305 51 329 18 q 271 134 281 85 q 261 249 261 183 l 261 549 z "},"Ĳ":{"ha":694,"x_min":58,"x_max":654,"o":"m 172 0 l 58 0 l 58 860 l 172 860 l 172 0 m 654 860 l 654 238 q 594 42 654 101 q 429 -18 533 -18 q 332 -1 381 -18 q 246 51 283 17 l 292 144 q 348 99 315 118 q 428 81 381 81 q 510 116 482 81 q 539 239 539 151 l 539 860 l 654 860 z "},"ĳ":{"ha":694,"x_min":124,"x_max":572,"o":"m 150 0 l 150 644 l 264 644 l 264 0 l 150 0 m 325 -232 q 286 -228 310 -232 q 247 -218 263 -225 l 261 -124 q 290 -131 274 -128 q 319 -133 306 -133 q 406 -97 381 -133 q 432 11 432 -60 l 432 644 l 546 644 l 546 13 q 490 -172 546 -112 q 325 -232 433 -232 m 489 753 q 430 776 454 753 q 406 838 406 799 q 430 898 406 875 q 489 921 454 921 q 548 898 524 921 q 572 838 572 875 q 548 776 572 799 q 489 753 524 753 m 207 753 q 148 776 172 753 q 124 838 124 799 q 148 898 124 875 q 207 921 172 921 q 266 898 242 921 q 290 838 290 875 q 266 776 290 799 q 207 753 242 753 z "},"Ĵ":{"ha":694,"x_min":75,"x_max":585,"o":"m 176 763 l 176 860 l 583 860 l 583 276 q 570 161 583 215 q 524 67 557 107 q 437 5 492 28 q 299 -18 382 -18 q 158 6 215 -18 q 75 51 101 29 l 121 144 q 191 103 147 125 q 293 81 235 81 q 426 128 382 81 q 469 288 469 175 l 469 763 l 176 763 m 417 1147 l 585 969 l 538 915 l 417 1024 l 296 915 l 249 969 l 417 1147 z "},"ĵ":{"ha":694,"x_min":99,"x_max":543,"o":"m 158 549 l 158 644 l 533 644 l 533 7 q 515 -106 533 -60 q 465 -182 496 -153 q 392 -224 433 -211 q 306 -236 351 -236 q 199 -225 253 -236 q 99 -190 146 -214 l 133 -93 q 210 -122 168 -110 q 292 -133 253 -133 q 383 -105 347 -133 q 419 6 419 -76 l 419 549 l 158 549 m 375 954 l 543 776 l 496 722 l 375 831 l 254 722 l 207 776 l 375 954 z "},"Ķ":{"ha":694,"x_min":89,"x_max":682,"o":"m 653 860 q 503 658 585 758 q 328 458 422 558 q 422 371 372 421 q 520 262 472 321 q 610 136 568 203 q 682 0 653 69 l 553 0 q 478 125 518 64 q 392 239 438 186 q 299 335 347 292 q 203 411 251 379 l 203 0 l 89 0 l 89 860 l 203 860 l 203 476 q 376 671 293 569 q 521 860 458 772 l 653 860 m 307 -62 l 418 -62 q 420 -77 419 -69 q 421 -90 421 -85 q 378 -203 421 -169 q 272 -236 336 -236 q 214 -228 244 -236 l 214 -161 l 235 -161 q 294 -141 281 -161 q 307 -81 307 -121 l 307 -62 z "},"ķ":{"ha":694,"x_min":99,"x_max":664,"o":"m 331 354 q 415 284 368 326 q 509 193 463 242 q 597 94 556 144 q 664 0 639 43 l 528 0 q 463 88 501 43 q 380 175 424 133 q 292 251 336 217 q 214 310 249 286 l 214 0 l 99 0 l 99 943 l 214 963 l 214 375 q 367 508 290 442 q 504 644 443 574 l 639 644 q 495 499 579 574 q 331 354 411 424 m 307 -62 l 418 -62 q 420 -77 419 -69 q 421 -90 421 -85 q 378 -203 421 -169 q 272 -236 336 -236 q 214 -228 244 -236 l 214 -161 l 235 -161 q 294 -141 281 -161 q 307 -81 307 -121 l 307 -62 z "},"ĸ":{"ha":694,"x_min":99,"x_max":664,"o":"m 331 354 q 415 284 368 326 q 509 193 463 242 q 597 94 556 144 q 664 0 639 43 l 528 0 q 463 88 501 43 q 380 175 424 133 q 292 251 336 217 q 214 310 249 286 l 214 0 l 99 0 l 99 644 l 214 644 l 214 375 q 367 508 290 442 q 504 644 443 574 l 639 644 q 495 499 579 574 q 331 354 411 424 z "},"Ĺ":{"ha":694,"x_min":126,"x_max":639,"o":"m 639 97 l 639 0 l 126 0 l 126 860 l 240 860 l 240 97 l 639 97 m 383 1079 l 208 910 l 150 961 l 308 1153 l 383 1079 z "},"ĺ":{"ha":694,"x_min":75,"x_max":625,"o":"m 469 -15 q 368 1 408 -15 q 304 51 328 18 q 271 134 281 85 q 261 249 261 183 l 261 844 l 75 844 l 75 942 l 375 942 l 375 249 q 381 169 375 200 q 401 120 388 139 q 433 94 414 101 q 479 88 453 88 q 554 97 519 88 q 608 118 589 107 l 625 21 q 601 10 617 17 q 565 -1 586 4 q 520 -11 544 -7 q 469 -15 496 -15 m 451 1063 l 243 988 l 217 1056 l 417 1153 l 451 1063 z "},"Ļ":{"ha":694,"x_min":126,"x_max":639,"o":"m 639 97 l 639 0 l 126 0 l 126 860 l 240 860 l 240 97 l 639 97 m 331 -62 l 442 -62 q 444 -77 443 -69 q 444 -90 444 -85 q 402 -203 444 -169 q 296 -236 360 -236 q 238 -228 268 -236 l 238 -161 l 258 -161 q 317 -141 304 -161 q 331 -81 331 -121 l 331 -62 z "},"ļ":{"ha":694,"x_min":75,"x_max":625,"o":"m 469 -15 q 368 1 408 -15 q 304 51 328 18 q 271 134 281 85 q 261 249 261 183 l 261 858 l 75 858 l 75 956 l 375 956 l 375 249 q 381 169 375 200 q 401 120 388 139 q 433 94 414 101 q 479 88 453 88 q 554 97 519 88 q 608 118 589 107 l 625 21 q 601 10 617 17 q 565 -1 586 4 q 520 -11 544 -7 q 469 -15 496 -15 m 406 -62 l 517 -62 q 519 -77 518 -69 q 519 -90 519 -85 q 477 -203 519 -169 q 371 -236 435 -236 q 313 -228 343 -236 l 313 -161 l 333 -161 q 392 -141 379 -161 q 406 -81 406 -121 l 406 -62 z "},"Ľ":{"ha":694,"x_min":126,"x_max":639,"o":"m 639 97 l 639 0 l 126 0 l 126 860 l 240 860 l 240 97 l 639 97 m 463 861 l 429 585 l 353 585 l 353 861 l 463 861 z "},"ľ":{"ha":694,"x_min":75,"x_max":625,"o":"m 469 -15 q 368 1 408 -15 q 304 51 328 18 q 271 134 281 85 q 261 249 261 183 l 261 858 l 75 858 l 75 956 l 375 956 l 375 249 q 381 169 375 200 q 401 120 388 139 q 433 94 414 101 q 479 88 453 88 q 554 97 519 88 q 608 118 589 107 l 625 21 q 601 10 617 17 q 565 -1 586 4 q 520 -11 544 -7 q 469 -15 496 -15 m 583 963 l 550 686 l 474 686 l 474 963 l 583 963 z "},"Ŀ":{"ha":694,"x_min":126,"x_max":639,"o":"m 639 97 l 639 0 l 126 0 l 126 860 l 240 860 l 240 97 l 639 97 m 504 367 q 445 390 469 367 q 421 451 421 413 q 445 512 421 489 q 504 535 469 535 q 563 512 539 535 q 588 451 588 489 q 563 390 588 413 q 504 367 539 367 z "},"ŀ":{"ha":694,"x_min":75,"x_max":749,"o":"m 469 -15 q 368 1 408 -15 q 304 51 328 18 q 271 134 281 85 q 261 249 261 183 l 261 858 l 75 858 l 75 956 l 375 956 l 375 249 q 381 169 375 200 q 401 120 388 139 q 433 94 414 101 q 479 88 453 88 q 554 97 519 88 q 608 118 589 107 l 625 21 q 601 10 617 17 q 565 -1 586 4 q 520 -11 544 -7 q 469 -15 496 -15 m 665 367 q 606 390 631 367 q 582 451 582 413 q 606 512 582 489 q 665 535 631 535 q 724 512 700 535 q 749 451 749 489 q 724 390 749 413 q 665 367 700 367 z "},"Ł":{"ha":694,"x_min":25,"x_max":639,"o":"m 639 97 l 639 0 l 157 0 l 157 356 l 65 308 l 25 390 l 157 458 l 157 860 l 272 860 l 272 518 l 421 594 l 460 513 l 272 415 l 272 97 l 639 97 z "},"ł":{"ha":694,"x_min":75,"x_max":625,"o":"m 469 -15 q 368 1 408 -15 q 304 51 328 18 q 271 134 281 85 q 261 249 261 183 l 261 424 l 169 376 l 131 453 l 261 519 l 261 858 l 75 858 l 75 956 l 375 956 l 375 579 l 483 635 l 522 558 l 375 482 l 375 249 q 381 169 375 200 q 401 120 388 139 q 433 94 414 101 q 479 88 453 88 q 554 97 519 88 q 608 118 589 107 l 625 21 q 601 10 617 17 q 565 -1 586 4 q 520 -11 544 -7 q 469 -15 496 -15 z "},"Ń":{"ha":694,"x_min":76,"x_max":618,"o":"m 501 0 q 413 209 454 115 q 333 385 371 303 q 257 540 294 467 q 181 686 219 613 l 181 0 l 76 0 l 76 860 l 193 860 q 292 678 250 756 q 370 527 335 600 q 439 377 406 454 q 514 199 472 300 l 514 860 l 618 860 l 618 0 l 501 0 m 482 1079 l 307 910 l 249 961 l 407 1153 l 482 1079 z "},"ń":{"ha":694,"x_min":99,"x_max":600,"o":"m 99 626 q 223 650 161 642 q 339 658 285 658 q 534 592 468 658 q 600 378 600 525 l 600 0 l 486 0 l 486 357 q 475 458 486 419 q 444 519 464 497 q 395 549 424 540 q 333 557 367 557 q 274 553 306 557 q 214 544 243 550 l 214 0 l 99 0 l 99 626 m 482 889 l 307 719 l 249 771 l 407 963 l 482 889 z "},"Ņ":{"ha":694,"x_min":76,"x_max":618,"o":"m 501 0 q 413 209 454 115 q 333 385 371 303 q 257 540 294 467 q 181 686 219 613 l 181 0 l 76 0 l 76 860 l 193 860 q 292 678 250 756 q 370 527 335 600 q 439 377 406 454 q 514 199 472 300 l 514 860 l 618 860 l 618 0 l 501 0 m 319 -62 l 431 -62 q 433 -77 432 -69 q 433 -90 433 -85 q 391 -203 433 -169 q 285 -236 349 -236 q 226 -228 257 -236 l 226 -161 l 247 -161 q 306 -141 293 -161 q 319 -81 319 -121 l 319 -62 z "},"ņ":{"ha":694,"x_min":99,"x_max":600,"o":"m 99 626 q 223 650 161 642 q 339 658 285 658 q 534 592 468 658 q 600 378 600 525 l 600 0 l 486 0 l 486 357 q 475 458 486 419 q 444 519 464 497 q 395 549 424 540 q 333 557 367 557 q 274 553 306 557 q 214 544 243 550 l 214 0 l 99 0 l 99 626 m 307 -62 l 418 -62 q 420 -77 419 -69 q 421 -90 421 -85 q 378 -203 421 -169 q 272 -236 336 -236 q 214 -228 244 -236 l 214 -161 l 235 -161 q 294 -141 281 -161 q 307 -81 307 -121 l 307 -62 z "},"Ň":{"ha":694,"x_min":76,"x_max":618,"o":"m 501 0 q 413 209 454 115 q 333 385 371 303 q 257 540 294 467 q 181 686 219 613 l 181 0 l 76 0 l 76 860 l 193 860 q 292 678 250 756 q 370 527 335 600 q 439 377 406 454 q 514 199 472 300 l 514 860 l 618 860 l 618 0 l 501 0 m 179 1097 l 226 1151 l 347 1043 l 468 1151 l 515 1097 l 347 919 l 179 1097 z "},"ň":{"ha":694,"x_min":99,"x_max":600,"o":"m 99 626 q 223 650 161 642 q 339 658 285 658 q 534 592 468 658 q 600 378 600 525 l 600 0 l 486 0 l 486 357 q 475 458 486 419 q 444 519 464 497 q 395 549 424 540 q 333 557 367 557 q 274 553 306 557 q 214 544 243 550 l 214 0 l 99 0 l 99 626 m 179 904 l 226 958 l 347 850 l 468 958 l 515 904 l 347 726 l 179 904 z "},"ŉ":{"ha":694,"x_min":15,"x_max":600,"o":"m 99 626 q 223 650 161 642 q 339 658 285 658 q 534 592 468 658 q 600 378 600 525 l 600 0 l 486 0 l 486 357 q 475 458 486 419 q 444 519 464 497 q 395 549 424 540 q 333 557 367 557 q 274 553 306 557 q 214 544 243 550 l 214 0 l 99 0 l 99 626 m 171 963 q 171 939 171 949 q 169 918 171 929 q 144 802 165 854 q 93 701 122 750 l 15 731 q 49 823 39 779 q 60 915 60 867 q 59 942 60 928 q 57 963 58 956 l 171 963 z "},"Ŋ":{"ha":694,"x_min":76,"x_max":618,"o":"m 514 29 q 448 170 486 90 q 365 338 410 250 q 273 515 321 425 q 181 686 225 604 l 181 0 l 76 0 l 76 860 l 193 860 q 276 710 232 792 q 365 544 321 628 q 447 380 408 460 q 514 235 486 300 l 514 860 l 618 860 l 618 0 q 613 -94 618 -51 q 590 -168 607 -137 q 538 -215 572 -199 q 449 -232 504 -232 q 408 -228 431 -232 q 372 -222 386 -225 l 383 -132 q 410 -136 394 -135 q 436 -137 426 -137 q 498 -108 482 -137 q 514 -21 514 -78 l 514 29 z "},"ŋ":{"ha":694,"x_min":99,"x_max":600,"o":"m 99 626 q 223 650 161 642 q 339 658 285 658 q 534 592 468 658 q 600 378 600 525 l 600 0 q 592 -101 600 -57 q 564 -174 585 -144 q 508 -217 543 -203 q 417 -232 472 -232 q 376 -228 399 -232 q 340 -222 354 -225 l 351 -132 q 378 -136 363 -135 q 404 -137 393 -137 q 468 -108 450 -137 q 486 -21 486 -78 l 486 357 q 475 458 486 419 q 444 519 464 497 q 395 549 424 540 q 333 557 367 557 q 274 553 306 557 q 214 544 243 550 l 214 0 l 99 0 l 99 626 z "},"Ō":{"ha":694,"x_min":40,"x_max":656,"o":"m 40 431 q 63 631 40 546 q 125 770 85 715 q 222 852 165 825 q 347 879 278 879 q 472 852 415 879 q 569 770 529 825 q 633 631 610 715 q 656 431 656 546 q 633 231 656 315 q 569 90 610 146 q 472 8 529 35 q 347 -18 415 -18 q 222 8 278 -18 q 125 90 165 35 q 63 231 85 146 q 40 431 40 315 m 157 431 q 203 171 157 261 q 344 81 249 81 q 490 171 442 81 q 539 431 539 261 q 490 690 539 600 q 344 781 442 781 q 203 690 249 781 q 157 431 157 600 m 171 1075 l 524 1075 l 524 986 l 171 986 l 171 1075 z "},"ō":{"ha":694,"x_min":56,"x_max":639,"o":"m 639 322 q 617 184 639 246 q 557 78 596 122 q 464 9 518 33 q 346 -15 410 -15 q 230 9 283 -15 q 138 78 176 33 q 77 184 99 122 q 56 322 56 246 q 77 461 56 399 q 138 567 99 524 q 230 635 176 611 q 346 660 283 660 q 464 635 410 660 q 557 567 518 611 q 617 461 596 524 q 639 322 639 399 m 521 322 q 474 495 521 432 q 346 558 426 558 q 220 495 267 558 q 174 322 174 432 q 220 151 174 214 q 346 88 267 88 q 474 151 426 88 q 521 322 521 214 m 171 882 l 524 882 l 524 793 l 171 793 l 171 882 z "},"Ŏ":{"ha":694,"x_min":40,"x_max":656,"o":"m 40 431 q 63 631 40 546 q 125 770 85 715 q 222 852 165 825 q 347 879 278 879 q 472 852 415 879 q 569 770 529 825 q 633 631 610 715 q 656 431 656 546 q 633 231 656 315 q 569 90 610 146 q 472 8 529 35 q 347 -18 415 -18 q 222 8 278 -18 q 125 90 165 35 q 63 231 85 146 q 40 431 40 315 m 157 431 q 203 171 157 261 q 344 81 249 81 q 490 171 442 81 q 539 431 539 261 q 490 690 539 600 q 344 781 442 781 q 203 690 249 781 q 157 431 157 600 m 347 950 q 282 962 313 950 q 228 995 251 974 q 193 1049 206 1017 q 182 1122 181 1081 l 257 1122 q 263 1092 258 1108 q 277 1063 267 1076 q 304 1042 288 1050 q 347 1033 321 1033 q 391 1042 374 1033 q 418 1063 408 1050 q 432 1092 428 1076 q 438 1122 436 1108 l 513 1122 q 501 1049 514 1081 q 466 995 489 1017 q 413 962 443 974 q 347 950 382 950 z "},"ŏ":{"ha":694,"x_min":56,"x_max":639,"o":"m 639 322 q 617 184 639 246 q 557 78 596 122 q 464 9 518 33 q 346 -15 410 -15 q 230 9 283 -15 q 138 78 176 33 q 77 184 99 122 q 56 322 56 246 q 77 461 56 399 q 138 567 99 524 q 230 635 176 611 q 346 660 283 660 q 464 635 410 660 q 557 567 518 611 q 617 461 596 524 q 639 322 639 399 m 521 322 q 474 495 521 432 q 346 558 426 558 q 220 495 267 558 q 174 322 174 432 q 220 151 174 214 q 346 88 267 88 q 474 151 426 88 q 521 322 521 214 m 347 757 q 282 769 313 757 q 228 802 251 781 q 193 856 206 824 q 182 929 181 888 l 257 929 q 263 899 258 915 q 277 870 267 883 q 304 849 288 857 q 347 840 321 840 q 391 849 374 840 q 418 870 408 857 q 432 899 428 883 q 438 929 436 915 l 513 929 q 501 856 514 888 q 466 802 489 824 q 413 769 443 781 q 347 757 382 757 z "},"Ő":{"ha":694,"x_min":40,"x_max":656,"o":"m 40 431 q 63 631 40 546 q 125 770 85 715 q 222 852 165 825 q 347 879 278 879 q 472 852 415 879 q 569 770 529 825 q 633 631 610 715 q 656 431 656 546 q 633 231 656 315 q 569 90 610 146 q 472 8 529 35 q 347 -18 415 -18 q 222 8 278 -18 q 125 90 165 35 q 63 231 85 146 q 40 431 40 315 m 157 431 q 203 171 157 261 q 344 81 249 81 q 490 171 442 81 q 539 431 539 261 q 490 690 539 600 q 344 781 442 781 q 203 690 249 781 q 157 431 157 600 m 401 1083 l 249 910 l 189 954 l 332 1153 l 401 1083 m 606 1083 l 453 910 l 393 954 l 536 1153 l 606 1083 z "},"ő":{"ha":694,"x_min":56,"x_max":639,"o":"m 639 322 q 617 184 639 246 q 557 78 596 122 q 464 9 518 33 q 346 -15 410 -15 q 230 9 283 -15 q 138 78 176 33 q 77 184 99 122 q 56 322 56 246 q 77 461 56 399 q 138 567 99 524 q 230 635 176 611 q 346 660 283 660 q 464 635 410 660 q 557 567 518 611 q 617 461 596 524 q 639 322 639 399 m 521 322 q 474 495 521 432 q 346 558 426 558 q 220 495 267 558 q 174 322 174 432 q 220 151 174 214 q 346 88 267 88 q 474 151 426 88 q 521 322 521 214 m 401 893 l 249 719 l 189 764 l 332 963 l 401 893 m 606 893 l 453 719 l 393 764 l 536 963 l 606 893 z "},"Ŕ":{"ha":694,"x_min":76,"x_max":643,"o":"m 599 597 q 557 458 599 518 q 444 364 515 397 q 491 288 465 331 q 543 198 517 246 q 595 99 569 150 q 643 0 621 49 l 521 0 q 430 192 479 100 q 335 340 381 283 q 310 339 326 339 q 289 339 294 339 l 192 339 l 192 0 l 76 0 l 76 847 q 124 857 97 853 q 180 863 151 861 q 236 867 208 865 q 286 868 264 868 q 520 800 442 868 q 599 597 599 732 m 296 769 q 234 769 264 769 q 192 765 204 768 l 192 433 l 265 433 q 355 440 315 433 q 423 466 394 447 q 467 517 451 485 q 482 603 482 550 q 467 685 482 653 q 426 735 451 717 q 367 762 401 754 q 296 769 333 769 m 469 1079 l 294 910 l 236 961 l 394 1153 l 469 1079 z "},"ŕ":{"ha":694,"x_min":149,"x_max":608,"o":"m 149 0 l 149 610 q 435 658 290 658 q 519 655 479 658 q 608 640 560 651 l 588 539 q 509 555 543 551 q 435 558 475 558 q 263 535 350 558 l 263 0 l 149 0 m 532 889 l 357 719 l 299 771 l 457 963 l 532 889 z "},"Ŗ":{"ha":694,"x_min":76,"x_max":643,"o":"m 599 597 q 557 458 599 518 q 444 364 515 397 q 491 288 465 331 q 543 198 517 246 q 595 99 569 150 q 643 0 621 49 l 521 0 q 430 192 479 100 q 335 340 381 283 q 310 339 326 339 q 289 339 294 339 l 192 339 l 192 0 l 76 0 l 76 847 q 124 857 97 853 q 180 863 151 861 q 236 867 208 865 q 286 868 264 868 q 520 800 442 868 q 599 597 599 732 m 296 769 q 234 769 264 769 q 192 765 204 768 l 192 433 l 265 433 q 355 440 315 433 q 423 466 394 447 q 467 517 451 485 q 482 603 482 550 q 467 685 482 653 q 426 735 451 717 q 367 762 401 754 q 296 769 333 769 m 282 -62 l 393 -62 q 395 -77 394 -69 q 396 -90 396 -85 q 353 -203 396 -169 q 247 -236 311 -236 q 189 -228 219 -236 l 189 -161 l 210 -161 q 269 -141 256 -161 q 282 -81 282 -121 l 282 -62 z "},"ŗ":{"ha":694,"x_min":58,"x_max":608,"o":"m 149 0 l 149 610 q 435 658 290 658 q 519 655 479 658 q 608 640 560 651 l 588 539 q 509 555 543 551 q 435 558 475 558 q 263 535 350 558 l 263 0 l 149 0 m 151 -62 l 263 -62 q 265 -77 264 -69 q 265 -90 265 -85 q 223 -203 265 -169 q 117 -236 181 -236 q 58 -228 89 -236 l 58 -161 l 79 -161 q 138 -141 125 -161 q 151 -81 151 -121 l 151 -62 z "},"Ř":{"ha":694,"x_min":76,"x_max":643,"o":"m 599 597 q 557 458 599 518 q 444 364 515 397 q 491 288 465 331 q 543 198 517 246 q 595 99 569 150 q 643 0 621 49 l 521 0 q 430 192 479 100 q 335 340 381 283 q 310 339 326 339 q 289 339 294 339 l 192 339 l 192 0 l 76 0 l 76 847 q 124 857 97 853 q 180 863 151 861 q 236 867 208 865 q 286 868 264 868 q 520 800 442 868 q 599 597 599 732 m 296 769 q 234 769 264 769 q 192 765 204 768 l 192 433 l 265 433 q 355 440 315 433 q 423 466 394 447 q 467 517 451 485 q 482 603 482 550 q 467 685 482 653 q 426 735 451 717 q 367 762 401 754 q 296 769 333 769 m 143 1097 l 190 1151 l 311 1043 l 432 1151 l 479 1097 l 311 919 l 143 1097 z "},"ř":{"ha":694,"x_min":149,"x_max":608,"o":"m 149 0 l 149 610 q 435 658 290 658 q 519 655 479 658 q 608 640 560 651 l 588 539 q 509 555 543 551 q 435 558 475 558 q 263 535 350 558 l 263 0 l 149 0 m 229 904 l 276 958 l 397 850 l 518 958 l 565 904 l 397 726 l 229 904 z "},"Ś":{"ha":694,"x_min":76,"x_max":618,"o":"m 325 81 q 458 114 413 81 q 504 214 504 147 q 488 283 504 254 q 443 333 471 311 q 381 370 415 354 q 310 400 346 386 q 230 438 268 417 q 162 486 192 458 q 115 551 132 514 q 97 640 97 589 q 168 816 97 753 q 365 879 239 879 q 434 874 400 879 q 497 863 468 869 q 549 846 526 856 q 586 826 572 836 l 550 731 q 474 764 522 747 q 365 781 425 781 q 257 749 303 781 q 211 656 211 718 q 224 594 211 619 q 260 551 238 569 q 314 517 283 532 q 381 486 344 501 q 477 442 433 464 q 552 389 521 419 q 601 317 583 358 q 618 215 618 275 q 542 42 618 103 q 325 -18 467 -18 q 239 -12 279 -18 q 167 4 199 -6 q 113 24 136 14 q 76 42 89 33 l 111 136 q 193 101 139 121 q 325 81 247 81 m 494 1079 l 319 910 l 261 961 l 419 1153 l 494 1079 z "},"ś":{"ha":694,"x_min":92,"x_max":603,"o":"m 488 161 q 459 218 488 196 q 388 257 431 240 q 296 290 346 274 q 203 329 246 306 q 133 388 161 353 q 104 478 104 422 q 167 608 104 556 q 365 660 231 660 q 474 652 418 660 q 571 632 531 644 l 550 529 q 519 541 539 535 q 475 552 500 547 q 422 560 450 557 q 367 563 393 563 q 217 481 217 563 q 245 431 217 451 q 317 394 274 411 q 410 360 360 378 q 503 318 460 343 q 574 258 546 293 q 603 168 603 222 q 535 33 603 81 q 319 -15 467 -15 q 197 -4 253 -15 q 92 29 142 7 l 114 133 q 216 97 163 111 q 331 82 269 82 q 488 161 488 82 m 482 889 l 307 719 l 249 771 l 407 963 l 482 889 z "},"Ŝ":{"ha":694,"x_min":76,"x_max":618,"o":"m 325 81 q 458 114 413 81 q 504 214 504 147 q 488 283 504 254 q 443 333 471 311 q 381 370 415 354 q 310 400 346 386 q 230 438 268 417 q 162 486 192 458 q 115 551 132 514 q 97 640 97 589 q 168 816 97 753 q 365 879 239 879 q 434 874 400 879 q 497 863 468 869 q 549 846 526 856 q 586 826 572 836 l 550 731 q 474 764 522 747 q 365 781 425 781 q 257 749 303 781 q 211 656 211 718 q 224 594 211 619 q 260 551 238 569 q 314 517 283 532 q 381 486 344 501 q 477 442 433 464 q 552 389 521 419 q 601 317 583 358 q 618 215 618 275 q 542 42 618 103 q 325 -18 467 -18 q 239 -12 279 -18 q 167 4 199 -6 q 113 24 136 14 q 76 42 89 33 l 111 136 q 193 101 139 121 q 325 81 247 81 m 360 1147 l 528 969 l 481 915 l 360 1024 l 239 915 l 192 969 l 360 1147 z "},"ŝ":{"ha":694,"x_min":92,"x_max":603,"o":"m 488 161 q 459 218 488 196 q 388 257 431 240 q 296 290 346 274 q 203 329 246 306 q 133 388 161 353 q 104 478 104 422 q 167 608 104 556 q 365 660 231 660 q 474 652 418 660 q 571 632 531 644 l 550 529 q 519 541 539 535 q 475 552 500 547 q 422 560 450 557 q 367 563 393 563 q 217 481 217 563 q 245 431 217 451 q 317 394 274 411 q 410 360 360 378 q 503 318 460 343 q 574 258 546 293 q 603 168 603 222 q 535 33 603 81 q 319 -15 467 -15 q 197 -4 253 -15 q 92 29 142 7 l 114 133 q 216 97 163 111 q 331 82 269 82 q 488 161 488 82 m 360 954 l 528 776 l 481 722 l 360 831 l 239 722 l 192 776 l 360 954 z "},"Ş":{"ha":694,"x_min":76,"x_max":618,"o":"m 365 -46 q 417 -83 401 -62 q 433 -144 433 -104 q 427 -174 433 -158 q 406 -203 421 -190 q 367 -226 392 -217 q 307 -235 343 -235 q 247 -230 275 -235 q 204 -218 219 -225 l 218 -147 q 250 -156 233 -153 q 288 -160 267 -160 q 332 -132 332 -160 q 281 -89 332 -104 l 271 -86 q 284 -53 276 -72 q 300 -18 292 -35 q 158 6 217 -14 q 76 42 100 26 l 111 136 q 193 101 139 121 q 325 81 247 81 q 458 114 413 81 q 504 214 504 147 q 488 283 504 254 q 443 333 471 311 q 381 370 415 354 q 310 400 346 386 q 230 438 268 417 q 162 486 192 458 q 115 551 132 514 q 97 640 97 589 q 168 816 97 753 q 365 879 239 879 q 434 874 400 879 q 497 863 468 869 q 549 846 526 856 q 586 826 572 836 l 550 731 q 474 764 522 747 q 365 781 425 781 q 257 749 303 781 q 211 656 211 718 q 224 594 211 619 q 260 551 238 569 q 314 517 283 532 q 381 486 344 501 q 477 442 433 464 q 552 389 521 419 q 601 317 583 358 q 618 215 618 275 q 557 56 618 115 q 381 -15 496 -4 l 365 -46 z "},"ş":{"ha":694,"x_min":92,"x_max":603,"o":"m 365 -46 q 417 -83 401 -62 q 433 -144 433 -104 q 427 -174 433 -158 q 406 -203 421 -190 q 367 -226 392 -217 q 307 -235 343 -235 q 247 -230 275 -235 q 204 -218 219 -225 l 218 -147 q 250 -156 233 -153 q 288 -160 267 -160 q 332 -132 332 -160 q 281 -89 332 -104 l 271 -86 q 285 -52 276 -71 q 301 -15 293 -33 q 92 29 182 -11 l 114 133 q 216 97 163 111 q 331 82 269 82 q 488 161 488 82 q 459 218 488 196 q 388 257 431 240 q 296 290 346 274 q 203 329 246 306 q 133 388 161 353 q 104 478 104 422 q 167 608 104 556 q 365 660 231 660 q 474 652 418 660 q 571 632 531 644 l 550 529 q 519 541 539 535 q 475 552 500 547 q 422 560 450 557 q 367 563 393 563 q 217 481 217 563 q 245 431 217 451 q 317 394 274 411 q 410 360 360 378 q 503 318 460 343 q 574 258 546 293 q 603 168 603 222 q 549 43 603 89 q 382 -12 496 -3 l 365 -46 z "},"Ţ":{"ha":694,"x_min":54,"x_max":640,"o":"m 365 -46 q 417 -83 401 -62 q 433 -144 433 -104 q 427 -174 433 -158 q 406 -203 421 -190 q 367 -226 392 -217 q 307 -235 343 -235 q 247 -230 275 -235 q 204 -218 219 -225 l 218 -147 q 250 -156 233 -153 q 288 -160 267 -160 q 332 -132 332 -160 q 281 -89 332 -104 l 271 -86 q 288 -44 278 -68 q 308 0 299 -19 l 290 0 l 290 763 l 54 763 l 54 860 l 640 860 l 640 763 l 404 763 l 404 0 l 389 0 l 365 -46 z "},"ţ":{"ha":694,"x_min":88,"x_max":625,"o":"m 453 -46 q 505 -83 489 -62 q 521 -144 521 -104 q 515 -174 521 -158 q 494 -203 508 -190 q 455 -226 479 -217 q 394 -235 431 -235 q 335 -230 363 -235 q 292 -218 307 -225 l 306 -147 q 338 -156 321 -153 q 375 -160 354 -160 q 419 -132 419 -160 q 368 -89 419 -104 l 358 -86 q 373 -50 364 -71 q 392 -11 382 -29 q 308 16 340 -4 q 256 69 275 36 q 231 147 238 101 q 224 249 224 192 l 224 549 l 88 549 l 88 644 l 224 644 l 224 825 l 338 844 l 338 644 l 610 644 l 610 549 l 338 549 l 338 249 q 344 169 338 200 q 367 120 351 139 q 408 94 383 101 q 469 88 433 88 q 550 96 519 88 q 608 118 581 104 l 625 21 q 567 0 607 13 q 468 -15 526 -12 l 453 -46 z "},"Ť":{"ha":694,"x_min":54,"x_max":640,"o":"m 640 860 l 640 763 l 404 763 l 404 0 l 290 0 l 290 763 l 54 763 l 54 860 l 640 860 m 179 1097 l 226 1151 l 347 1043 l 468 1151 l 515 1097 l 347 919 l 179 1097 z "},"ť":{"ha":694,"x_min":88,"x_max":625,"o":"m 338 644 l 610 644 l 610 549 l 338 549 l 338 249 q 344 169 338 200 q 367 120 351 139 q 408 94 383 101 q 469 88 433 88 q 550 96 519 88 q 608 118 581 104 l 625 21 q 563 -1 606 13 q 458 -15 521 -15 q 340 1 386 -15 q 269 51 294 18 q 233 134 243 85 q 224 249 224 183 l 224 549 l 88 549 l 88 644 l 224 644 l 224 825 l 338 844 l 338 644 m 546 963 l 513 722 l 436 722 l 436 963 l 546 963 z "},"Ŧ":{"ha":694,"x_min":54,"x_max":640,"o":"m 640 860 l 640 763 l 404 763 l 404 485 l 568 485 l 568 396 l 404 396 l 404 0 l 290 0 l 290 396 l 125 396 l 125 485 l 290 485 l 290 763 l 54 763 l 54 860 l 640 860 z "},"ŧ":{"ha":694,"x_min":88,"x_max":625,"o":"m 338 644 l 610 644 l 610 549 l 338 549 l 338 379 l 610 379 l 610 293 l 338 293 l 338 249 q 344 169 338 200 q 367 120 351 139 q 408 94 383 101 q 469 88 433 88 q 550 96 519 88 q 608 118 581 104 l 625 21 q 563 -1 606 13 q 458 -15 521 -15 q 340 1 386 -15 q 269 51 294 18 q 233 134 243 85 q 224 249 224 183 l 224 293 l 88 293 l 88 379 l 224 379 l 224 549 l 88 549 l 88 644 l 224 644 l 224 825 l 338 844 l 338 644 z "},"Ũ":{"ha":694,"x_min":67,"x_max":628,"o":"m 347 -18 q 217 4 271 -18 q 131 67 164 26 q 82 165 97 107 q 67 296 67 224 l 67 860 l 181 860 l 181 308 q 192 199 181 243 q 226 129 204 156 q 278 92 247 103 q 347 81 308 81 q 417 92 386 81 q 469 129 447 103 q 502 199 490 156 q 514 308 514 243 l 514 860 l 628 860 l 628 296 q 613 165 628 224 q 564 67 597 107 q 477 4 531 26 q 347 -18 424 -18 m 539 1075 q 524 1040 535 1060 q 499 1004 514 1021 q 463 976 483 988 q 415 964 442 964 q 373 974 397 964 q 333 990 349 983 q 275 1010 297 1010 q 240 992 257 1010 q 215 954 224 974 l 156 986 q 170 1021 160 1001 q 196 1057 181 1040 q 232 1085 211 1074 q 278 1097 253 1097 q 320 1087 296 1097 q 360 1069 344 1076 q 418 1050 396 1050 q 453 1068 436 1050 q 479 1106 471 1086 l 539 1075 z "},"ũ":{"ha":694,"x_min":94,"x_max":596,"o":"m 596 18 q 497 -3 558 8 q 351 -14 435 -14 q 229 8 278 -14 q 150 69 181 29 q 107 163 119 108 q 94 282 94 217 l 94 644 l 208 644 l 208 307 q 244 138 208 188 q 363 88 279 88 q 399 89 381 88 q 435 92 418 90 q 464 97 451 94 q 481 100 476 99 l 481 644 l 596 644 l 596 18 m 539 882 q 524 847 535 867 q 499 811 514 828 q 463 783 483 794 q 415 771 442 771 q 373 781 397 771 q 333 797 349 790 q 275 817 297 817 q 240 799 257 817 q 215 761 224 781 l 156 793 q 170 828 160 808 q 196 864 181 847 q 232 892 211 881 q 278 904 253 904 q 320 894 296 904 q 360 876 344 883 q 418 857 396 857 q 453 875 436 857 q 479 913 471 893 l 539 882 z "},"Ū":{"ha":694,"x_min":67,"x_max":628,"o":"m 347 -18 q 217 4 271 -18 q 131 67 164 26 q 82 165 97 107 q 67 296 67 224 l 67 860 l 181 860 l 181 308 q 192 199 181 243 q 226 129 204 156 q 278 92 247 103 q 347 81 308 81 q 417 92 386 81 q 469 129 447 103 q 502 199 490 156 q 514 308 514 243 l 514 860 l 628 860 l 628 296 q 613 165 628 224 q 564 67 597 107 q 477 4 531 26 q 347 -18 424 -18 m 171 1075 l 524 1075 l 524 986 l 171 986 l 171 1075 z "},"ū":{"ha":694,"x_min":94,"x_max":596,"o":"m 596 18 q 497 -3 558 8 q 351 -14 435 -14 q 229 8 278 -14 q 150 69 181 29 q 107 163 119 108 q 94 282 94 217 l 94 644 l 208 644 l 208 307 q 244 138 208 188 q 363 88 279 88 q 399 89 381 88 q 435 92 418 90 q 464 97 451 94 q 481 100 476 99 l 481 644 l 596 644 l 596 18 m 171 882 l 524 882 l 524 793 l 171 793 l 171 882 z "},"Ŭ":{"ha":694,"x_min":67,"x_max":628,"o":"m 347 -18 q 217 4 271 -18 q 131 67 164 26 q 82 165 97 107 q 67 296 67 224 l 67 860 l 181 860 l 181 308 q 192 199 181 243 q 226 129 204 156 q 278 92 247 103 q 347 81 308 81 q 417 92 386 81 q 469 129 447 103 q 502 199 490 156 q 514 308 514 243 l 514 860 l 628 860 l 628 296 q 613 165 628 224 q 564 67 597 107 q 477 4 531 26 q 347 -18 424 -18 m 347 950 q 282 962 313 950 q 228 995 251 974 q 193 1049 206 1017 q 182 1122 181 1081 l 257 1122 q 263 1092 258 1108 q 277 1063 267 1076 q 304 1042 288 1050 q 347 1033 321 1033 q 391 1042 374 1033 q 418 1063 408 1050 q 432 1092 428 1076 q 438 1122 436 1108 l 513 1122 q 501 1049 514 1081 q 466 995 489 1017 q 413 962 443 974 q 347 950 382 950 z "},"ŭ":{"ha":694,"x_min":94,"x_max":596,"o":"m 596 18 q 497 -3 558 8 q 351 -14 435 -14 q 229 8 278 -14 q 150 69 181 29 q 107 163 119 108 q 94 282 94 217 l 94 644 l 208 644 l 208 307 q 244 138 208 188 q 363 88 279 88 q 399 89 381 88 q 435 92 418 90 q 464 97 451 94 q 481 100 476 99 l 481 644 l 596 644 l 596 18 m 347 757 q 282 769 313 757 q 228 802 251 781 q 193 856 206 824 q 182 929 181 888 l 257 929 q 263 899 258 915 q 277 870 267 883 q 304 849 288 857 q 347 840 321 840 q 391 849 374 840 q 418 870 408 857 q 432 899 428 883 q 438 929 436 915 l 513 929 q 501 856 514 888 q 466 802 489 824 q 413 769 443 781 q 347 757 382 757 z "},"Ů":{"ha":694,"x_min":67,"x_max":628,"o":"m 347 -18 q 217 4 271 -18 q 131 67 164 26 q 82 165 97 107 q 67 296 67 224 l 67 860 l 181 860 l 181 308 q 192 199 181 243 q 226 129 204 156 q 278 92 247 103 q 347 81 308 81 q 417 92 386 81 q 469 129 447 103 q 502 199 490 156 q 514 308 514 243 l 514 860 l 628 860 l 628 296 q 613 165 628 224 q 564 67 597 107 q 477 4 531 26 q 347 -18 424 -18 m 475 1026 q 437 933 475 967 q 347 899 399 899 q 258 933 296 899 q 219 1026 219 967 q 258 1119 219 1085 q 347 1153 296 1153 q 437 1119 399 1153 q 475 1026 475 1085 m 413 1026 q 394 1076 413 1058 q 347 1094 375 1094 q 301 1076 319 1094 q 282 1026 282 1058 q 301 975 282 993 q 347 957 319 957 q 394 975 375 957 q 413 1026 413 993 z "},"ů":{"ha":694,"x_min":94,"x_max":596,"o":"m 596 18 q 497 -3 558 8 q 351 -14 435 -14 q 229 8 278 -14 q 150 69 181 29 q 107 163 119 108 q 94 282 94 217 l 94 644 l 208 644 l 208 307 q 244 138 208 188 q 363 88 279 88 q 399 89 381 88 q 435 92 418 90 q 464 97 451 94 q 481 100 476 99 l 481 644 l 596 644 l 596 18 m 475 840 q 437 747 475 781 q 347 713 399 713 q 258 747 296 713 q 219 840 219 781 q 258 933 219 899 q 347 967 296 967 q 437 933 399 967 q 475 840 475 899 m 413 840 q 394 890 413 872 q 347 908 375 908 q 301 890 319 908 q 282 840 282 872 q 301 789 282 807 q 347 771 319 771 q 394 789 375 771 q 413 840 413 807 z "},"Ű":{"ha":694,"x_min":67,"x_max":628,"o":"m 347 -18 q 217 4 271 -18 q 131 67 164 26 q 82 165 97 107 q 67 296 67 224 l 67 860 l 181 860 l 181 308 q 192 199 181 243 q 226 129 204 156 q 278 92 247 103 q 347 81 308 81 q 417 92 386 81 q 469 129 447 103 q 502 199 490 156 q 514 308 514 243 l 514 860 l 628 860 l 628 296 q 613 165 628 224 q 564 67 597 107 q 477 4 531 26 q 347 -18 424 -18 m 389 1083 l 236 910 l 176 954 l 319 1153 l 389 1083 m 593 1083 l 440 910 l 381 954 l 524 1153 l 593 1083 z "},"ű":{"ha":694,"x_min":94,"x_max":596,"o":"m 596 18 q 497 -3 558 8 q 351 -14 435 -14 q 229 8 278 -14 q 150 69 181 29 q 107 163 119 108 q 94 282 94 217 l 94 644 l 208 644 l 208 307 q 244 138 208 188 q 363 88 279 88 q 399 89 381 88 q 435 92 418 90 q 464 97 451 94 q 481 100 476 99 l 481 644 l 596 644 l 596 18 m 389 893 l 236 719 l 176 764 l 319 963 l 389 893 m 593 893 l 440 719 l 381 764 l 524 963 l 593 893 z "},"Ų":{"ha":694,"x_min":67,"x_max":628,"o":"m 333 -33 q 206 -9 257 -33 q 124 59 156 15 q 80 163 93 103 q 67 296 67 224 l 67 860 l 181 860 l 181 308 q 192 199 181 243 q 226 129 204 156 q 278 92 247 103 q 347 81 308 81 q 417 92 386 81 q 469 129 447 103 q 502 199 490 156 q 514 308 514 243 l 514 860 l 628 860 l 628 296 q 602 131 628 200 q 517 24 576 61 q 475 -6 501 14 q 429 -44 449 -25 q 399 -81 410 -64 q 389 -115 389 -97 q 439 -151 389 -151 q 461 -149 447 -151 q 490 -143 475 -147 l 499 -218 q 417 -232 468 -232 q 313 -207 346 -232 q 281 -137 281 -182 q 290 -87 281 -108 q 333 -33 300 -67 z "},"ų":{"ha":694,"x_min":94,"x_max":596,"o":"m 596 18 q 569 -6 588 10 q 533 -40 551 -21 q 500 -78 514 -58 q 486 -115 486 -99 q 536 -151 486 -151 q 558 -149 544 -151 q 586 -143 572 -147 l 596 -218 q 514 -232 564 -232 q 410 -207 443 -232 q 376 -137 376 -182 q 393 -83 376 -108 q 432 -35 410 -57 q 465 -6 449 -17 q 403 -11 433 -8 q 351 -14 374 -14 q 229 8 278 -14 q 150 69 181 29 q 107 163 119 108 q 94 282 94 217 l 94 644 l 208 644 l 208 307 q 244 138 208 188 q 363 88 279 88 q 399 89 381 88 q 435 92 418 90 q 464 97 451 94 q 481 100 476 99 l 481 644 l 596 644 l 596 18 z "},"Ŵ":{"ha":694,"x_min":44,"x_max":650,"o":"m 213 0 l 106 0 q 84 187 93 85 q 67 400 75 289 q 54 628 60 511 q 44 860 49 744 l 156 860 l 171 142 l 296 533 l 396 533 l 524 142 l 539 860 l 650 860 q 640 626 646 743 q 625 399 633 510 q 607 188 617 289 q 586 0 597 86 l 481 0 l 346 428 l 213 0 m 347 1147 l 515 969 l 468 915 l 347 1024 l 226 915 l 179 969 l 347 1147 z "},"ŵ":{"ha":694,"x_min":26,"x_max":668,"o":"m 476 0 q 440 86 456 47 q 410 164 425 125 q 381 245 396 203 q 347 342 367 288 q 313 245 328 288 q 283 164 297 203 q 252 86 268 125 q 215 0 236 47 l 129 0 q 65 338 90 171 q 26 644 39 506 l 135 644 q 144 538 139 590 q 156 429 149 486 q 172 306 163 372 q 192 156 181 239 q 229 253 214 211 q 257 332 244 294 q 281 408 269 369 q 307 496 293 447 l 393 496 q 418 408 407 447 q 442 332 429 369 q 468 253 454 294 q 503 157 482 211 q 525 299 515 233 q 542 422 535 364 q 554 533 549 479 q 564 644 560 588 l 668 644 q 651 496 661 575 q 628 333 642 417 q 597 165 614 250 q 563 0 581 79 l 476 0 m 344 954 l 513 776 l 465 722 l 344 831 l 224 722 l 176 776 l 344 954 z "},"Ŷ":{"ha":694,"x_min":18,"x_max":678,"o":"m 292 0 l 292 319 q 138 590 207 458 q 18 860 69 722 l 146 860 q 238 637 186 743 q 350 418 290 531 q 463 642 414 536 q 553 860 513 749 l 678 860 q 557 594 625 724 q 406 322 489 465 l 406 0 l 292 0 m 347 1147 l 515 969 l 468 915 l 347 1024 l 226 915 l 179 969 l 347 1147 z "},"ŷ":{"ha":694,"x_min":50,"x_max":640,"o":"m 71 -121 q 106 -132 83 -128 q 149 -136 129 -136 q 255 -106 217 -136 q 325 -8 293 -76 q 179 308 247 139 q 67 644 111 476 l 192 644 q 224 524 206 589 q 267 392 243 460 q 317 255 290 324 q 375 124 344 186 q 417 250 397 188 q 453 376 436 313 q 486 505 469 439 q 521 644 503 571 l 640 644 q 541 294 596 464 q 424 -19 486 125 q 373 -115 400 -75 q 314 -182 346 -156 q 242 -221 282 -208 q 150 -233 201 -233 q 92 -226 124 -233 q 50 -214 61 -219 l 71 -121 m 347 954 l 515 776 l 468 722 l 347 831 l 226 722 l 179 776 l 347 954 z "},"Ź":{"ha":694,"x_min":75,"x_max":632,"o":"m 621 771 q 522 626 576 710 q 410 450 467 542 q 299 266 353 358 q 206 97 246 174 l 632 97 l 632 0 l 75 0 l 75 75 q 170 255 118 163 q 276 436 222 347 q 385 608 331 525 q 489 763 439 692 l 96 763 l 96 860 l 621 860 l 621 771 m 482 1079 l 307 910 l 249 961 l 407 1153 l 482 1079 z "},"ź":{"ha":694,"x_min":101,"x_max":593,"o":"m 583 558 q 515 477 558 529 q 423 362 472 425 q 325 229 374 299 q 239 97 276 160 l 593 97 l 593 0 l 101 0 l 101 76 q 174 198 131 132 q 265 328 218 264 q 358 451 313 393 q 436 549 403 510 l 119 549 l 119 644 l 583 644 l 583 558 m 482 889 l 307 719 l 249 771 l 407 963 l 482 889 z "},"Ż":{"ha":694,"x_min":75,"x_max":632,"o":"m 621 771 q 522 626 576 710 q 410 450 467 542 q 299 266 353 358 q 206 97 246 174 l 632 97 l 632 0 l 75 0 l 75 75 q 170 255 118 163 q 276 436 222 347 q 385 608 331 525 q 489 763 439 692 l 96 763 l 96 860 l 621 860 l 621 771 m 347 946 q 288 969 313 946 q 264 1031 264 992 q 288 1091 264 1068 q 347 1114 313 1114 q 406 1091 382 1114 q 431 1031 431 1068 q 406 969 431 992 q 347 946 382 946 z "},"ż":{"ha":694,"x_min":101,"x_max":593,"o":"m 583 558 q 515 477 558 529 q 423 362 472 425 q 325 229 374 299 q 239 97 276 160 l 593 97 l 593 0 l 101 0 l 101 76 q 174 198 131 132 q 265 328 218 264 q 358 451 313 393 q 436 549 403 510 l 119 549 l 119 644 l 583 644 l 583 558 m 347 753 q 288 776 313 753 q 264 838 264 799 q 288 898 264 875 q 347 921 313 921 q 406 898 382 921 q 431 838 431 875 q 406 776 431 799 q 347 753 382 753 z "},"Ž":{"ha":694,"x_min":75,"x_max":632,"o":"m 621 771 q 522 626 576 710 q 410 450 467 542 q 299 266 353 358 q 206 97 246 174 l 632 97 l 632 0 l 75 0 l 75 75 q 170 255 118 163 q 276 436 222 347 q 385 608 331 525 q 489 763 439 692 l 96 763 l 96 860 l 621 860 l 621 771 m 179 1097 l 226 1151 l 347 1043 l 468 1151 l 515 1097 l 347 919 l 179 1097 z "},"ž":{"ha":694,"x_min":101,"x_max":593,"o":"m 583 558 q 515 477 558 529 q 423 362 472 425 q 325 229 374 299 q 239 97 276 160 l 593 97 l 593 0 l 101 0 l 101 76 q 174 198 131 132 q 265 328 218 264 q 358 451 313 393 q 436 549 403 510 l 119 549 l 119 644 l 583 644 l 583 558 m 179 904 l 226 958 l 347 850 l 468 958 l 515 904 l 347 726 l 179 904 z "},"ſ":{"ha":694,"x_min":224,"x_max":669,"o":"m 224 0 l 224 703 q 244 827 224 778 q 299 907 265 876 q 378 950 333 938 q 474 963 424 963 q 574 951 524 963 q 669 925 625 940 l 649 826 q 572 853 618 842 q 479 864 526 864 q 424 856 450 864 q 379 830 399 849 q 349 780 360 811 q 338 701 338 749 l 338 0 l 224 0 z "},"Ș":{"ha":694,"x_min":76,"x_max":618,"o":"m 325 81 q 458 114 413 81 q 504 214 504 147 q 488 283 504 254 q 443 333 471 311 q 381 370 415 354 q 310 400 346 386 q 230 438 268 417 q 162 486 192 458 q 115 551 132 514 q 97 640 97 589 q 168 816 97 753 q 365 879 239 879 q 434 874 400 879 q 497 863 468 869 q 549 846 526 856 q 586 826 572 836 l 550 731 q 474 764 522 747 q 365 781 425 781 q 257 749 303 781 q 211 656 211 718 q 224 594 211 619 q 260 551 238 569 q 314 517 283 532 q 381 486 344 501 q 477 442 433 464 q 552 389 521 419 q 601 317 583 358 q 618 215 618 275 q 542 42 618 103 q 325 -18 467 -18 q 239 -12 279 -18 q 167 4 199 -6 q 113 24 136 14 q 76 42 89 33 l 111 136 q 193 101 139 121 q 325 81 247 81 m 282 -62 l 393 -62 q 395 -77 394 -69 q 396 -90 396 -85 q 353 -203 396 -169 q 247 -236 311 -236 q 189 -228 219 -236 l 189 -161 l 210 -161 q 269 -141 256 -161 q 282 -81 282 -121 l 282 -62 z "},"ș":{"ha":694,"x_min":92,"x_max":603,"o":"m 488 161 q 459 218 488 196 q 388 257 431 240 q 296 290 346 274 q 203 329 246 306 q 133 388 161 353 q 104 478 104 422 q 167 608 104 556 q 365 660 231 660 q 474 652 418 660 q 571 632 531 644 l 550 529 q 519 541 539 535 q 475 552 500 547 q 422 560 450 557 q 367 563 393 563 q 217 481 217 563 q 245 431 217 451 q 317 394 274 411 q 410 360 360 378 q 503 318 460 343 q 574 258 546 293 q 603 168 603 222 q 535 33 603 81 q 319 -15 467 -15 q 197 -4 253 -15 q 92 29 142 7 l 114 133 q 216 97 163 111 q 331 82 269 82 q 488 161 488 82 m 282 -62 l 393 -62 q 395 -77 394 -69 q 396 -90 396 -85 q 353 -203 396 -169 q 247 -236 311 -236 q 189 -228 219 -236 l 189 -161 l 210 -161 q 269 -141 256 -161 q 282 -81 282 -121 l 282 -62 z "},"Ț":{"ha":694,"x_min":54,"x_max":640,"o":"m 640 860 l 640 763 l 404 763 l 404 0 l 290 0 l 290 763 l 54 763 l 54 860 l 640 860 m 292 -62 l 403 -62 q 405 -77 404 -69 q 406 -90 406 -85 q 363 -203 406 -169 q 257 -236 321 -236 q 199 -228 229 -236 l 199 -161 l 219 -161 q 278 -141 265 -161 q 292 -81 292 -121 l 292 -62 z "},"ț":{"ha":694,"x_min":88,"x_max":625,"o":"m 338 644 l 610 644 l 610 549 l 338 549 l 338 249 q 344 169 338 200 q 367 120 351 139 q 408 94 383 101 q 469 88 433 88 q 550 96 519 88 q 608 118 581 104 l 625 21 q 563 -1 606 13 q 458 -15 521 -15 q 340 1 386 -15 q 269 51 294 18 q 233 134 243 85 q 224 249 224 183 l 224 549 l 88 549 l 88 644 l 224 644 l 224 825 l 338 844 l 338 644 m 381 -62 l 492 -62 q 494 -77 493 -69 q 494 -90 494 -85 q 452 -203 494 -169 q 346 -236 410 -236 q 288 -228 318 -236 l 288 -161 l 308 -161 q 367 -141 354 -161 q 381 -81 381 -121 l 381 -62 z "},"ȷ":{"ha":694,"x_min":99,"x_max":533,"o":"m 158 549 l 158 644 l 533 644 l 533 7 q 515 -106 533 -60 q 465 -182 496 -153 q 392 -224 433 -211 q 306 -236 351 -236 q 199 -225 253 -236 q 99 -190 146 -214 l 133 -93 q 210 -122 168 -110 q 292 -133 253 -133 q 383 -105 347 -133 q 419 6 419 -76 l 419 549 l 158 549 z "},"ʼ":{"ha":694,"x_min":272,"x_max":428,"o":"m 428 963 q 428 939 428 949 q 426 918 428 929 q 401 802 422 854 q 350 701 379 750 l 272 731 q 306 823 296 779 q 317 915 317 867 q 316 942 317 928 q 314 963 315 956 l 428 963 z "},"ˇ":{"ha":694,"x_min":179,"x_max":515,"o":"m 179 904 l 226 958 l 347 850 l 468 958 l 515 904 l 347 726 l 179 904 z "},"ˉ":{"ha":694,"x_min":171,"x_max":524,"o":"m 171 882 l 524 882 l 524 793 l 171 793 l 171 882 z "},"˘":{"ha":694,"x_min":181,"x_max":514,"o":"m 347 757 q 282 769 313 757 q 228 802 251 781 q 193 856 206 824 q 182 929 181 888 l 257 929 q 263 899 258 915 q 277 870 267 883 q 304 849 288 857 q 347 840 321 840 q 391 849 374 840 q 418 870 408 857 q 432 899 428 883 q 438 929 436 915 l 513 929 q 501 856 514 888 q 466 802 489 824 q 413 769 443 781 q 347 757 382 757 z "},"˙":{"ha":694,"x_min":264,"x_max":431,"o":"m 347 753 q 288 776 313 753 q 264 838 264 799 q 288 898 264 875 q 347 921 313 921 q 406 898 382 921 q 431 838 431 875 q 406 776 431 799 q 347 753 382 753 z "},"˚":{"ha":694,"x_min":219,"x_max":475,"o":"m 475 840 q 437 747 475 781 q 347 713 399 713 q 258 747 296 713 q 219 840 219 781 q 258 933 219 899 q 347 967 296 967 q 437 933 399 967 q 475 840 475 899 m 413 840 q 394 890 413 872 q 347 908 375 908 q 301 890 319 908 q 282 840 282 872 q 301 789 282 807 q 347 771 319 771 q 394 789 375 771 q 413 840 413 807 z "},"˛":{"ha":694,"x_min":238,"x_max":457,"o":"m 375 -232 q 271 -207 304 -232 q 238 -137 238 -182 q 253 -83 238 -108 q 292 -33 269 -57 q 340 10 321 -1 l 456 10 q 423 -15 440 -1 q 388 -49 406 -29 q 358 -83 369 -68 q 347 -115 347 -97 q 397 -151 347 -151 q 419 -149 406 -151 q 447 -143 433 -147 l 457 -218 q 375 -232 425 -232 z "},"˝":{"ha":694,"x_min":139,"x_max":556,"o":"m 351 893 l 199 719 l 139 764 l 282 963 l 351 893 m 556 893 l 403 719 l 343 764 l 486 963 l 556 893 z "},"Ẁ":{"ha":694,"x_min":44,"x_max":650,"o":"m 213 0 l 106 0 q 84 187 93 85 q 67 400 75 289 q 54 628 60 511 q 44 860 49 744 l 156 860 l 171 142 l 296 533 l 396 533 l 524 142 l 539 860 l 650 860 q 640 626 646 743 q 625 399 633 510 q 607 188 617 289 q 586 0 597 86 l 481 0 l 346 428 l 213 0 m 300 1153 l 458 961 l 400 910 l 226 1079 l 300 1153 z "},"ẁ":{"ha":694,"x_min":26,"x_max":668,"o":"m 476 0 q 440 86 456 47 q 410 164 425 125 q 381 245 396 203 q 347 342 367 288 q 313 245 328 288 q 283 164 297 203 q 252 86 268 125 q 215 0 236 47 l 129 0 q 65 338 90 171 q 26 644 39 506 l 135 644 q 144 538 139 590 q 156 429 149 486 q 172 306 163 372 q 192 156 181 239 q 229 253 214 211 q 257 332 244 294 q 281 408 269 369 q 307 496 293 447 l 393 496 q 418 408 407 447 q 442 332 429 369 q 468 253 454 294 q 503 157 482 211 q 525 299 515 233 q 542 422 535 364 q 554 533 549 479 q 564 644 560 588 l 668 644 q 651 496 661 575 q 628 333 642 417 q 597 165 614 250 q 563 0 581 79 l 476 0 m 300 963 l 458 771 l 400 719 l 226 889 l 300 963 z "},"Ẃ":{"ha":694,"x_min":44,"x_max":650,"o":"m 213 0 l 106 0 q 84 187 93 85 q 67 400 75 289 q 54 628 60 511 q 44 860 49 744 l 156 860 l 171 142 l 296 533 l 396 533 l 524 142 l 539 860 l 650 860 q 640 626 646 743 q 625 399 633 510 q 607 188 617 289 q 586 0 597 86 l 481 0 l 346 428 l 213 0 m 469 1079 l 294 910 l 236 961 l 394 1153 l 469 1079 z "},"ẃ":{"ha":694,"x_min":26,"x_max":668,"o":"m 476 0 q 440 86 456 47 q 410 164 425 125 q 381 245 396 203 q 347 342 367 288 q 313 245 328 288 q 283 164 297 203 q 252 86 268 125 q 215 0 236 47 l 129 0 q 65 338 90 171 q 26 644 39 506 l 135 644 q 144 538 139 590 q 156 429 149 486 q 172 306 163 372 q 192 156 181 239 q 229 253 214 211 q 257 332 244 294 q 281 408 269 369 q 307 496 293 447 l 393 496 q 418 408 407 447 q 442 332 429 369 q 468 253 454 294 q 503 157 482 211 q 525 299 515 233 q 542 422 535 364 q 554 533 549 479 q 564 644 560 588 l 668 644 q 651 496 661 575 q 628 333 642 417 q 597 165 614 250 q 563 0 581 79 l 476 0 m 469 889 l 294 719 l 236 771 l 394 963 l 469 889 z "},"Ẅ":{"ha":694,"x_min":44,"x_max":650,"o":"m 213 0 l 106 0 q 84 187 93 85 q 67 400 75 289 q 54 628 60 511 q 44 860 49 744 l 156 860 l 171 142 l 296 533 l 396 533 l 524 142 l 539 860 l 650 860 q 640 626 646 743 q 625 399 633 510 q 607 188 617 289 q 586 0 597 86 l 481 0 l 346 428 l 213 0 m 229 957 q 179 978 201 957 q 157 1031 157 999 q 179 1083 157 1063 q 229 1103 201 1103 q 280 1083 258 1103 q 301 1031 301 1063 q 280 978 301 999 q 229 957 258 957 m 465 957 q 415 978 436 957 q 393 1031 393 999 q 415 1083 393 1063 q 465 1103 436 1103 q 516 1083 494 1103 q 538 1031 538 1063 q 516 978 538 999 q 465 957 494 957 z "},"ẅ":{"ha":694,"x_min":26,"x_max":668,"o":"m 476 0 q 440 86 456 47 q 410 164 425 125 q 381 245 396 203 q 347 342 367 288 q 313 245 328 288 q 283 164 297 203 q 252 86 268 125 q 215 0 236 47 l 129 0 q 65 338 90 171 q 26 644 39 506 l 135 644 q 144 538 139 590 q 156 429 149 486 q 172 306 163 372 q 192 156 181 239 q 229 253 214 211 q 257 332 244 294 q 281 408 269 369 q 307 496 293 447 l 393 496 q 418 408 407 447 q 442 332 429 369 q 468 253 454 294 q 503 157 482 211 q 525 299 515 233 q 542 422 535 364 q 554 533 549 479 q 564 644 560 588 l 668 644 q 651 496 661 575 q 628 333 642 417 q 597 165 614 250 q 563 0 581 79 l 476 0 m 229 764 q 179 785 201 764 q 157 838 157 806 q 179 890 157 869 q 229 910 201 910 q 280 890 258 910 q 301 838 301 869 q 280 785 301 806 q 229 764 258 764 m 465 764 q 415 785 436 764 q 393 838 393 806 q 415 890 393 869 q 465 910 436 910 q 516 890 494 910 q 538 838 538 869 q 516 785 538 806 q 465 764 494 764 z "},"Ỳ":{"ha":694,"x_min":18,"x_max":678,"o":"m 292 0 l 292 319 q 138 590 207 458 q 18 860 69 722 l 146 860 q 238 637 186 743 q 350 418 290 531 q 463 642 414 536 q 553 860 513 749 l 678 860 q 557 594 625 724 q 406 322 489 465 l 406 0 l 292 0 m 300 1153 l 458 961 l 400 910 l 226 1079 l 300 1153 z "},"ỳ":{"ha":694,"x_min":50,"x_max":640,"o":"m 71 -121 q 106 -132 83 -128 q 149 -136 129 -136 q 255 -106 217 -136 q 325 -8 293 -76 q 179 308 247 139 q 67 644 111 476 l 192 644 q 224 524 206 589 q 267 392 243 460 q 317 255 290 324 q 375 124 344 186 q 417 250 397 188 q 453 376 436 313 q 486 505 469 439 q 521 644 503 571 l 640 644 q 541 294 596 464 q 424 -19 486 125 q 373 -115 400 -75 q 314 -182 346 -156 q 242 -221 282 -208 q 150 -233 201 -233 q 92 -226 124 -233 q 50 -214 61 -219 l 71 -121 m 300 963 l 458 771 l 400 719 l 226 889 l 300 963 z "},"⁄":{"ha":694,"x_min":35,"x_max":658,"o":"m 132 0 l 35 0 l 561 860 l 658 860 l 132 0 z "},"⁰":{"ha":694,"x_min":161,"x_max":533,"o":"m 161 631 q 210 815 161 751 q 347 879 260 879 q 484 815 435 879 q 533 631 533 751 q 484 444 533 508 q 347 381 435 381 q 210 444 260 381 q 161 631 161 508 m 442 631 q 438 697 442 665 q 422 752 433 729 q 393 789 411 775 q 347 803 375 803 q 301 789 319 803 q 272 752 283 775 q 256 697 261 729 q 251 631 251 665 q 256 563 251 594 q 272 509 261 532 q 301 472 283 486 q 347 458 319 458 q 393 472 375 458 q 422 509 411 486 q 438 563 433 532 q 442 631 442 594 m 400 633 q 385 597 400 613 q 347 581 371 581 q 310 597 324 581 q 296 633 296 613 q 310 672 296 656 q 347 688 324 688 q 385 672 371 688 q 400 633 400 656 z "},"⁴":{"ha":694,"x_min":146,"x_max":533,"o":"m 471 869 l 471 581 l 533 581 l 533 507 l 471 507 l 471 390 l 388 390 l 388 507 l 146 507 l 146 564 q 190 635 163 594 q 250 717 217 675 q 319 799 283 758 q 392 869 356 839 l 471 869 m 388 767 q 308 677 349 726 q 239 581 268 628 l 388 581 l 388 767 z "},"⁵":{"ha":694,"x_min":176,"x_max":521,"o":"m 521 532 q 472 423 521 465 q 318 381 422 381 q 238 390 278 381 q 176 410 197 399 l 194 483 q 245 467 214 476 q 315 458 276 458 q 407 480 382 458 q 432 529 432 501 q 422 567 432 550 q 385 597 411 585 q 317 615 360 608 q 211 622 275 622 q 225 748 219 685 q 233 869 231 811 l 501 869 l 501 792 l 307 792 q 303 742 304 767 q 297 690 303 717 q 468 644 415 683 q 521 532 521 604 z "},"⁶":{"ha":694,"x_min":174,"x_max":536,"o":"m 174 585 q 260 797 174 724 q 494 872 346 869 l 503 796 q 424 787 461 794 q 356 764 386 779 q 303 727 325 749 q 272 676 281 706 q 320 690 297 688 q 363 693 343 693 q 443 681 410 693 q 497 647 476 668 q 527 599 518 626 q 536 540 536 571 q 526 485 536 513 q 494 433 515 457 q 440 395 472 410 q 363 381 407 381 q 221 435 268 381 q 174 585 174 489 m 354 621 q 260 606 306 621 q 279 496 257 538 q 361 454 301 454 q 401 463 385 454 q 427 483 417 471 q 442 511 438 496 q 446 539 446 526 q 424 600 446 579 q 354 621 403 621 z "},"⁷":{"ha":694,"x_min":186,"x_max":540,"o":"m 258 390 q 281 499 264 443 q 321 609 297 556 q 374 709 344 663 q 432 789 403 756 l 186 789 l 186 869 l 540 869 l 540 801 q 484 732 515 776 q 425 632 453 688 q 376 515 397 576 q 350 390 356 453 l 258 390 z "},"⁸":{"ha":694,"x_min":165,"x_max":529,"o":"m 529 521 q 483 419 529 458 q 346 381 436 381 q 258 394 293 381 q 203 427 224 407 q 174 471 182 447 q 165 517 165 494 q 188 582 165 551 q 239 632 210 613 q 194 682 211 653 q 178 743 178 711 q 223 839 178 799 q 346 879 268 879 q 424 867 392 879 q 476 835 456 854 q 506 794 496 817 q 515 749 515 771 q 497 686 515 714 q 450 639 479 658 q 510 589 494 617 q 529 521 526 561 m 251 517 q 256 496 251 507 q 272 476 261 485 q 301 460 283 467 q 346 454 319 454 q 419 473 397 454 q 440 517 440 492 q 405 571 440 551 q 307 606 369 590 q 266 565 281 586 q 251 517 251 544 m 429 750 q 410 785 429 765 q 346 806 392 806 q 281 786 300 806 q 263 747 263 767 q 289 699 263 722 q 374 665 315 676 q 414 703 399 683 q 429 750 429 722 z "},"⁹":{"ha":694,"x_min":183,"x_max":546,"o":"m 546 676 q 460 463 546 538 q 214 389 375 389 l 211 464 q 365 496 301 467 q 447 585 429 525 q 399 570 422 574 q 357 567 376 567 q 276 579 310 567 q 222 613 243 592 q 192 663 201 635 q 183 719 183 690 q 194 774 183 746 q 226 826 204 803 q 280 865 247 850 q 357 879 313 879 q 498 826 450 879 q 546 676 546 772 m 365 640 q 414 643 390 640 q 460 654 438 646 q 440 764 463 722 q 358 806 418 806 q 319 797 335 806 q 292 776 303 789 q 277 749 282 764 q 272 721 272 735 q 365 640 272 640 z "},"₀":{"ha":694,"x_min":161,"x_max":533,"o":"m 161 242 q 210 426 161 363 q 347 490 260 490 q 484 426 435 490 q 533 242 533 363 q 484 56 533 119 q 347 -8 435 -8 q 210 56 260 -8 q 161 242 161 119 m 442 242 q 438 308 442 276 q 422 363 433 340 q 393 400 411 386 q 347 414 375 414 q 301 400 319 414 q 272 363 283 386 q 256 308 261 340 q 251 242 251 276 q 256 174 251 206 q 272 120 261 143 q 301 83 283 97 q 347 69 319 69 q 393 83 375 69 q 422 120 411 97 q 438 174 433 143 q 442 242 442 206 m 400 244 q 385 208 400 224 q 347 192 371 192 q 310 208 324 192 q 296 244 296 224 q 310 283 296 267 q 347 299 324 299 q 385 283 371 299 q 400 244 400 267 z "},"₁":{"ha":694,"x_min":175,"x_max":532,"o":"m 321 81 l 321 367 q 258 335 293 349 q 199 314 224 321 l 175 382 q 268 423 222 397 q 347 481 314 449 l 408 481 l 408 81 l 532 81 l 532 1 l 185 1 l 185 81 l 321 81 z "},"₂":{"ha":694,"x_min":172,"x_max":522,"o":"m 503 353 q 491 302 503 326 q 459 253 479 278 q 413 204 439 229 q 357 154 386 179 q 315 116 336 136 q 292 81 294 96 l 522 81 l 522 1 l 192 1 q 197 74 188 43 q 225 132 207 106 q 267 180 243 158 q 317 224 292 201 q 385 290 358 260 q 411 350 411 321 q 335 413 411 413 q 295 407 314 413 q 261 394 276 401 q 235 378 246 386 q 217 364 224 369 l 172 425 q 237 469 194 447 q 335 490 279 490 q 462 455 421 490 q 503 353 503 419 z "},"₃":{"ha":694,"x_min":175,"x_max":519,"o":"m 314 69 q 405 90 381 69 q 429 142 429 110 q 418 177 429 163 q 388 201 407 192 q 344 215 369 211 q 293 219 319 219 l 269 219 l 269 290 l 300 290 q 337 294 318 290 q 371 305 356 297 q 397 325 386 313 q 407 357 407 338 q 384 401 407 388 q 325 414 361 414 q 263 402 292 414 q 214 381 235 390 l 182 449 q 244 476 201 463 q 328 490 286 490 q 456 454 418 490 q 493 360 493 418 q 425 261 493 300 q 494 216 469 247 q 519 140 519 185 q 472 35 519 78 q 315 -8 425 -8 q 237 1 276 -8 q 175 21 197 10 l 193 94 q 251 76 221 83 q 314 69 282 69 z "},"₄":{"ha":694,"x_min":146,"x_max":533,"o":"m 471 481 l 471 192 l 533 192 l 533 118 l 471 118 l 471 1 l 388 1 l 388 118 l 146 118 l 146 175 q 190 246 163 206 q 250 328 217 286 q 319 410 283 369 q 392 481 356 450 l 471 481 m 388 378 q 308 288 349 338 q 239 192 268 239 l 388 192 l 388 378 z "},"₅":{"ha":694,"x_min":176,"x_max":521,"o":"m 521 143 q 472 34 521 76 q 318 -8 422 -8 q 238 1 278 -8 q 176 21 197 10 l 194 94 q 245 78 214 88 q 315 69 276 69 q 407 91 382 69 q 432 140 432 113 q 422 178 432 161 q 385 208 411 196 q 317 226 360 219 q 211 233 275 233 q 225 359 219 296 q 233 481 231 422 l 501 481 l 501 403 l 307 403 q 303 353 304 378 q 297 301 303 328 q 468 255 415 294 q 521 143 521 215 z "},"₆":{"ha":694,"x_min":174,"x_max":536,"o":"m 174 196 q 260 408 174 335 q 494 483 346 481 l 503 407 q 424 398 461 406 q 356 375 386 390 q 303 338 325 360 q 272 288 281 317 q 320 301 297 299 q 363 304 343 304 q 443 292 410 304 q 497 258 476 279 q 527 210 518 238 q 536 151 536 182 q 526 96 536 124 q 494 44 515 68 q 440 6 472 21 q 363 -8 407 -8 q 221 46 268 -8 q 174 196 174 100 m 354 232 q 260 217 306 232 q 279 107 257 149 q 361 65 301 65 q 401 74 385 65 q 427 94 417 82 q 442 122 438 107 q 446 150 446 138 q 424 211 446 190 q 354 232 403 232 z "},"₇":{"ha":694,"x_min":186,"x_max":540,"o":"m 258 1 q 281 110 264 54 q 321 220 297 167 q 374 320 344 274 q 432 400 403 367 l 186 400 l 186 481 l 540 481 l 540 413 q 484 343 515 388 q 425 243 453 299 q 376 126 397 188 q 350 1 356 64 l 258 1 z "},"₈":{"ha":694,"x_min":165,"x_max":529,"o":"m 529 132 q 483 31 529 69 q 346 -8 436 -8 q 258 5 293 -8 q 203 38 224 18 q 174 82 182 58 q 165 128 165 106 q 188 193 165 163 q 239 243 210 224 q 194 293 211 264 q 178 354 178 322 q 223 450 178 410 q 346 490 268 490 q 424 478 392 490 q 476 447 456 465 q 506 405 496 428 q 515 360 515 382 q 497 297 515 325 q 450 250 479 269 q 510 200 494 228 q 529 132 526 172 m 251 128 q 256 107 251 118 q 272 87 261 96 q 301 72 283 78 q 346 65 319 65 q 419 84 397 65 q 440 128 440 103 q 405 182 440 163 q 307 217 369 201 q 266 176 281 197 q 251 128 251 156 m 429 361 q 410 397 429 376 q 346 417 392 417 q 281 397 300 417 q 263 358 263 378 q 289 310 263 333 q 374 276 315 288 q 414 314 399 294 q 429 361 429 333 z "},"₉":{"ha":694,"x_min":183,"x_max":546,"o":"m 546 288 q 460 74 546 149 q 214 0 375 0 l 211 75 q 365 107 301 78 q 447 196 429 136 q 399 181 422 185 q 357 178 376 178 q 276 190 310 178 q 222 224 243 203 q 192 274 201 246 q 183 331 183 301 q 194 385 183 357 q 226 438 204 414 q 280 476 247 461 q 357 490 313 490 q 498 437 450 490 q 546 288 546 383 m 365 251 q 414 254 390 251 q 460 265 438 257 q 440 375 463 333 q 358 417 418 417 q 319 408 335 417 q 292 388 303 400 q 277 360 282 375 q 272 332 272 346 q 365 251 272 251 z "},"ℓ":{"ha":694,"x_min":74,"x_max":596,"o":"m 200 317 l 200 675 q 217 816 200 760 q 261 904 233 872 q 326 949 289 936 q 404 963 364 963 q 490 943 457 963 q 541 892 522 924 q 566 824 560 861 q 572 750 572 786 q 501 509 572 618 q 314 303 431 400 l 314 249 q 343 122 314 161 q 435 82 372 82 q 501 97 475 82 q 550 128 528 113 l 596 42 q 519 -2 564 14 q 415 -18 475 -18 q 313 0 354 -18 q 246 49 271 18 q 210 122 221 81 q 200 207 200 163 l 200 217 l 118 158 l 74 225 l 200 317 m 314 406 q 438 562 393 478 q 482 751 482 646 q 479 793 482 772 q 468 831 476 814 q 445 858 460 847 q 407 868 431 868 q 371 861 388 868 q 342 833 354 854 q 322 776 329 813 q 314 679 314 739 l 314 406 z "},"℮":{"ha":694,"x_min":38,"x_max":657,"o":"m 156 254 q 150 251 150 254 l 150 99 q 152 90 150 93 q 157 82 154 86 q 243 20 196 42 q 349 -1 290 -1 q 460 24 410 -1 q 549 92 511 50 l 593 92 q 488 13 553 43 q 347 -17 422 -17 q 226 6 282 -17 q 128 65 169 28 q 62 153 86 103 q 38 261 38 204 q 62 371 38 319 q 128 460 86 422 q 226 519 169 497 q 347 542 282 542 q 467 519 411 542 q 566 460 524 497 q 633 371 608 422 q 657 261 657 319 l 657 254 l 156 254 m 543 428 q 536 446 543 436 q 452 503 500 482 q 349 525 404 525 q 244 503 292 525 q 158 443 196 481 q 150 424 150 435 l 150 275 q 156 269 150 269 l 539 269 q 543 275 543 269 l 543 428 z "},"⅓":{"ha":694,"x_min":17,"x_max":667,"o":"m 114 0 l 17 0 l 543 860 l 640 860 l 114 0 m 419 76 q 458 65 435 71 q 508 60 481 60 q 563 69 540 60 q 585 100 585 78 q 558 139 585 131 q 479 147 532 147 l 463 147 l 463 217 l 493 217 q 549 224 529 217 q 568 257 568 232 q 551 283 568 276 q 514 290 533 290 q 469 283 494 290 q 428 269 444 276 l 401 329 q 456 351 422 342 q 526 360 490 360 q 572 355 550 360 q 612 340 594 350 q 640 312 629 329 q 650 269 650 294 q 640 228 650 249 q 608 192 629 207 q 667 101 667 164 q 658 62 667 82 q 632 26 650 42 q 585 0 614 10 q 515 -10 557 -10 q 399 10 450 -10 l 419 76 m 22 779 q 103 818 71 799 q 169 869 136 838 l 226 869 l 226 522 l 144 522 l 144 756 q 94 731 117 740 q 46 713 71 721 l 22 779 z "},"⅔":{"ha":694,"x_min":29,"x_max":671,"o":"m 144 0 l 47 0 l 574 860 l 671 860 l 144 0 m 306 592 l 306 522 l 31 522 q 29 538 29 526 q 29 554 29 550 q 58 623 29 599 q 122 669 86 647 l 153 690 q 198 725 185 710 q 211 760 211 740 q 195 794 211 783 q 157 806 179 806 q 114 797 136 806 q 75 771 92 789 l 29 825 q 90 865 54 851 q 161 878 125 878 q 260 843 228 878 q 293 764 293 808 q 274 703 293 728 q 230 658 256 678 q 176 624 204 639 q 131 592 149 608 l 306 592 m 419 76 q 458 65 435 71 q 508 60 481 60 q 563 69 540 60 q 585 100 585 78 q 558 139 585 131 q 479 147 532 147 l 463 147 l 463 217 l 493 217 q 549 224 529 217 q 568 257 568 232 q 551 283 568 276 q 514 290 533 290 q 469 283 494 290 q 428 269 444 276 l 401 329 q 456 351 422 342 q 526 360 490 360 q 572 355 550 360 q 612 340 594 350 q 640 312 629 329 q 650 269 650 294 q 608 192 650 225 q 667 101 667 165 q 658 62 667 82 q 632 26 650 42 q 585 0 614 10 q 515 -10 557 -10 q 399 10 450 -10 l 419 76 z "},"⅛":{"ha":694,"x_min":-1,"x_max":654,"o":"m 354 96 q 367 138 354 113 q 414 178 379 163 q 380 210 393 190 q 367 261 367 229 q 378 305 367 286 q 410 336 390 324 q 454 354 429 349 q 506 360 479 360 q 556 353 531 360 q 600 335 581 347 q 631 303 619 322 q 643 261 643 285 q 633 222 643 242 q 590 185 622 203 q 636 152 618 172 q 654 97 654 132 q 641 51 654 71 q 607 17 628 31 q 559 -3 586 4 q 504 -10 532 -10 q 448 -4 475 -10 q 400 14 421 1 q 367 47 379 26 q 354 96 354 67 m 96 0 l -1 0 l 525 860 l 622 860 l 96 0 m 22 779 q 103 818 71 799 q 169 869 136 838 l 226 869 l 226 522 l 144 522 l 144 756 q 94 731 117 740 q 46 713 71 721 l 22 779 m 572 96 q 544 131 572 121 q 479 153 515 142 q 436 96 436 131 q 458 68 436 76 q 504 60 481 60 q 551 69 531 60 q 572 96 572 78 m 449 258 q 469 228 449 239 q 521 210 490 218 q 561 258 561 233 q 546 281 561 272 q 501 290 531 290 q 465 281 482 290 q 449 258 449 272 z "},"⅜":{"ha":694,"x_min":15,"x_max":654,"o":"m 354 96 q 366 138 354 113 q 414 179 378 163 q 381 210 394 190 q 367 261 367 229 q 378 305 367 286 q 410 336 390 324 q 454 354 429 349 q 506 360 479 360 q 556 353 531 360 q 600 335 581 347 q 631 303 619 322 q 643 261 643 285 q 633 222 643 242 q 592 185 624 201 q 636 152 618 172 q 654 97 654 132 q 641 51 654 71 q 607 17 628 31 q 559 -3 586 4 q 504 -10 532 -10 q 448 -4 475 -10 q 400 14 421 1 q 367 47 379 26 q 354 96 354 67 m 111 0 l 15 0 l 540 860 l 639 860 l 111 0 m 47 597 q 85 585 63 590 q 136 579 108 579 q 191 588 168 579 q 214 621 214 597 q 187 658 214 650 q 107 667 160 667 l 90 667 l 90 736 l 122 736 q 176 744 157 736 q 196 776 196 751 q 178 803 196 797 q 142 810 161 810 q 97 803 122 810 q 56 789 72 796 l 29 849 q 84 870 50 861 q 154 879 118 879 q 200 874 178 879 q 240 859 222 869 q 267 831 257 849 q 278 789 278 814 q 267 748 278 768 q 236 713 257 728 q 280 676 264 699 q 296 621 296 653 q 288 581 296 601 q 260 545 279 561 q 213 519 242 529 q 143 510 185 510 q 26 529 78 510 l 47 597 m 572 96 q 544 131 572 121 q 479 153 515 142 q 436 96 436 131 q 458 68 436 76 q 504 60 481 60 q 551 69 531 60 q 572 96 572 78 m 449 258 q 469 228 449 239 q 521 210 490 218 q 561 258 561 233 q 546 281 561 272 q 501 290 531 290 q 465 281 482 290 q 449 258 449 272 z "},"⅝":{"ha":694,"x_min":15,"x_max":654,"o":"m 354 96 q 366 138 354 113 q 414 179 378 163 q 381 210 394 190 q 367 261 367 229 q 378 305 367 286 q 410 336 390 324 q 454 354 429 349 q 506 360 479 360 q 556 353 531 360 q 600 335 581 347 q 631 303 619 322 q 643 261 643 285 q 633 222 643 242 q 592 185 624 201 q 636 152 618 172 q 654 97 654 132 q 641 51 654 71 q 607 17 628 31 q 559 -3 586 4 q 504 -10 532 -10 q 448 -4 475 -10 q 400 14 421 1 q 367 47 379 26 q 354 96 354 67 m 111 0 l 15 0 l 540 860 l 639 860 l 111 0 m 572 96 q 544 131 572 121 q 479 153 515 142 q 436 96 436 131 q 458 68 436 76 q 504 60 481 60 q 551 69 531 60 q 572 96 572 78 m 449 258 q 469 228 449 239 q 521 210 490 218 q 561 258 561 233 q 546 281 561 272 q 501 290 531 290 q 465 281 482 290 q 449 258 449 272 m 142 749 q 257 716 219 746 q 294 632 294 686 q 254 543 294 576 q 132 510 214 510 q 67 519 99 510 q 18 539 35 528 l 38 606 q 76 589 51 599 q 129 579 100 579 q 189 590 165 579 q 213 628 213 601 q 180 673 213 660 q 58 686 147 686 q 65 740 63 718 q 69 781 67 761 q 72 820 71 800 q 75 869 74 840 l 279 869 l 279 800 l 146 800 l 142 749 z "},"⅞":{"ha":694,"x_min":15,"x_max":654,"o":"m 354 96 q 366 138 354 113 q 414 179 378 163 q 381 210 394 190 q 367 261 367 229 q 378 305 367 286 q 410 336 390 324 q 454 354 429 349 q 506 360 479 360 q 556 353 531 360 q 600 335 581 347 q 631 303 619 322 q 643 261 643 285 q 633 222 643 242 q 592 185 624 201 q 636 152 618 172 q 654 97 654 132 q 641 51 654 71 q 607 17 628 31 q 559 -3 586 4 q 504 -10 532 -10 q 448 -4 475 -10 q 400 14 421 1 q 367 47 379 26 q 354 96 354 67 m 111 0 l 15 0 l 540 860 l 639 860 l 111 0 m 572 96 q 544 131 572 121 q 479 153 515 142 q 436 96 436 131 q 458 68 436 76 q 504 60 481 60 q 551 69 531 60 q 572 96 572 78 m 449 258 q 469 228 449 239 q 521 210 490 218 q 561 258 561 233 q 546 281 561 272 q 501 290 531 290 q 465 281 482 290 q 449 258 449 272 m 97 522 q 115 606 106 569 q 138 673 125 642 q 167 734 150 704 q 210 800 185 764 l 65 800 l 65 869 l 308 869 l 308 813 q 254 744 275 775 q 219 681 233 714 q 197 611 206 649 q 179 522 188 574 l 97 522 z "},"⅕":{"ha":694,"x_min":15,"x_max":654,"o":"m 22 779 q 103 818 71 799 q 169 869 136 838 l 226 869 l 226 522 l 144 522 l 144 756 q 94 731 117 740 q 46 713 71 721 l 22 779 m 501 226 q 617 194 579 224 q 654 110 654 164 q 614 21 654 54 q 492 -12 574 -12 q 426 -3 458 -12 q 378 17 394 6 l 397 83 q 435 67 411 76 q 489 57 460 57 q 549 68 525 57 q 572 106 572 79 q 540 151 572 138 q 418 164 507 164 q 424 217 422 196 q 428 258 426 239 q 432 298 431 278 q 435 347 433 318 l 639 347 l 639 278 l 506 278 l 501 226 m 111 0 l 15 0 l 540 860 l 639 860 l 111 0 z "},"⅖":{"ha":694,"x_min":29,"x_max":672,"o":"m 501 226 q 617 194 579 224 q 654 110 654 164 q 614 21 654 54 q 492 -12 574 -12 q 426 -3 458 -12 q 378 17 394 6 l 397 83 q 435 67 411 76 q 489 57 460 57 q 549 68 525 57 q 572 106 572 79 q 540 151 572 138 q 418 164 507 164 q 424 217 422 196 q 428 258 426 239 q 432 298 431 278 q 435 347 433 318 l 639 347 l 639 278 l 506 278 l 501 226 m 146 0 l 49 0 l 575 860 l 672 860 l 146 0 m 304 589 l 304 519 l 29 519 l 29 551 q 57 620 29 596 q 121 667 85 644 l 151 688 q 197 724 183 707 q 210 761 210 742 q 194 796 210 785 q 156 807 178 807 q 113 798 135 807 q 74 771 90 789 l 29 826 q 88 866 53 853 q 160 879 124 879 q 259 844 226 879 q 292 765 292 810 q 273 703 292 729 q 228 658 254 678 q 174 622 203 639 q 128 589 146 606 l 304 589 z "},"⅗":{"ha":694,"x_min":26,"x_max":661,"o":"m 47 597 q 85 585 63 590 q 136 579 108 579 q 191 588 168 579 q 214 621 214 597 q 187 658 214 650 q 107 667 160 667 l 90 667 l 90 736 l 122 736 q 176 744 157 736 q 196 776 196 751 q 178 803 196 797 q 142 810 161 810 q 97 803 122 810 q 56 789 72 796 l 29 849 q 84 870 50 861 q 154 879 118 879 q 200 874 178 879 q 240 859 222 869 q 267 831 257 849 q 278 789 278 814 q 267 747 278 768 q 236 711 257 726 q 296 621 296 683 q 288 581 296 601 q 260 545 279 561 q 213 519 242 529 q 143 510 185 510 q 26 529 78 510 l 47 597 m 501 226 q 617 194 579 224 q 654 110 654 164 q 614 21 654 54 q 492 -12 574 -12 q 426 -3 458 -12 q 378 17 394 6 l 397 83 q 435 67 411 76 q 489 57 460 57 q 549 68 525 57 q 572 106 572 79 q 540 151 572 138 q 418 164 507 164 q 424 217 422 196 q 428 258 426 239 q 432 298 431 278 q 435 347 433 318 l 639 347 l 639 278 l 506 278 l 501 226 m 135 0 l 38 0 l 564 860 l 661 860 l 135 0 z "},"⅘":{"ha":694,"x_min":21,"x_max":674,"o":"m 501 226 q 617 194 579 224 q 654 110 654 164 q 614 21 654 54 q 492 -12 574 -12 q 426 -3 458 -12 q 378 17 394 6 l 397 83 q 435 67 411 76 q 489 57 460 57 q 549 68 525 57 q 572 106 572 79 q 540 151 572 138 q 418 164 507 164 q 424 217 422 196 q 428 258 426 239 q 432 298 431 278 q 435 347 433 318 l 639 347 l 639 278 l 506 278 l 501 226 m 283 869 l 283 658 l 332 658 l 332 589 l 283 589 l 283 522 l 201 522 l 201 589 l 21 589 l 21 646 q 91 762 58 710 q 168 869 124 814 l 283 869 m 201 810 q 148 733 171 772 q 103 658 125 694 l 201 658 l 201 810 m 147 0 l 50 0 l 576 860 l 674 860 l 147 0 z "},"⅙":{"ha":694,"x_min":-1,"x_max":622,"o":"m 589 290 q 483 271 524 288 q 424 217 442 254 q 481 235 456 235 q 578 199 547 235 q 610 114 610 163 q 601 67 610 90 q 576 26 593 44 q 535 -2 560 8 q 479 -12 511 -12 q 369 30 403 -12 q 335 139 335 72 q 349 222 335 182 q 394 293 364 263 q 472 342 425 324 q 582 360 518 360 l 589 290 m 22 779 q 103 818 71 799 q 169 869 136 838 l 226 869 l 226 522 l 144 522 l 144 756 q 94 731 117 740 q 46 713 71 721 l 22 779 m 474 165 q 411 146 442 165 q 428 78 411 99 q 476 57 446 57 q 519 74 504 57 q 533 111 533 92 q 519 149 533 133 q 474 165 504 165 m 96 0 l -1 0 l 525 860 l 622 860 l 96 0 z "},"⅚":{"ha":694,"x_min":39,"x_max":663,"o":"m 589 290 q 483 271 524 288 q 424 217 442 254 q 481 235 456 235 q 578 199 547 235 q 610 114 610 163 q 601 67 610 90 q 576 26 593 44 q 535 -2 560 8 q 479 -12 511 -12 q 369 30 403 -12 q 335 139 335 72 q 349 222 335 182 q 394 293 364 263 q 472 342 425 324 q 582 360 518 360 l 589 290 m 165 749 q 281 716 243 746 q 318 632 318 686 q 278 543 318 576 q 156 510 238 510 q 90 519 122 510 q 42 539 58 528 l 61 606 q 99 589 75 599 q 153 579 124 579 q 213 590 189 579 q 236 628 236 601 q 203 673 236 660 q 82 686 171 686 q 88 740 86 718 q 92 781 90 761 q 96 820 94 800 q 99 869 97 840 l 303 869 l 303 800 l 169 800 l 165 749 m 474 165 q 411 146 442 165 q 428 78 411 99 q 476 57 446 57 q 519 74 504 57 q 533 111 533 92 q 519 149 533 133 q 474 165 504 165 m 136 0 l 39 0 l 565 860 l 663 860 l 136 0 z "},"":{"ha":694,"x_min":-1,"x_max":649,"o":"m 22 779 q 103 818 71 799 q 169 869 136 838 l 226 869 l 226 522 l 144 522 l 144 756 q 94 731 117 740 q 46 713 71 721 l 22 779 m 436 0 q 454 83 444 47 q 476 151 464 119 q 507 212 489 182 q 550 278 525 242 l 406 278 l 406 347 l 649 347 l 649 290 q 594 222 615 253 q 559 160 574 192 q 535 90 544 128 q 518 0 526 51 l 436 0 m 96 0 l -1 0 l 525 860 l 622 860 l 96 0 z "},"":{"ha":694,"x_min":29,"x_max":671,"o":"m 144 0 l 47 0 l 574 860 l 671 860 l 144 0 m 304 589 l 304 519 l 29 519 l 29 551 q 57 620 29 596 q 121 667 85 644 l 151 688 q 197 724 183 707 q 210 761 210 742 q 194 796 210 785 q 156 807 178 807 q 113 798 135 807 q 74 771 90 789 l 29 826 q 88 866 53 853 q 160 879 124 879 q 259 844 226 879 q 292 765 292 810 q 273 703 292 729 q 228 658 254 678 q 174 622 203 638 q 128 589 146 606 l 304 589 m 436 0 q 454 83 444 47 q 476 151 464 119 q 507 212 489 182 q 550 278 525 242 l 406 278 l 406 347 l 649 347 l 649 290 q 594 222 615 253 q 559 160 574 192 q 535 90 544 128 q 518 0 526 51 l 436 0 z "},"":{"ha":694,"x_min":26,"x_max":653,"o":"m 47 597 q 85 585 63 590 q 136 579 108 579 q 191 588 168 579 q 214 621 214 597 q 187 658 214 650 q 107 667 160 667 l 90 667 l 90 736 l 122 736 q 176 744 157 736 q 196 776 196 751 q 178 803 196 797 q 142 810 161 810 q 97 803 122 810 q 56 789 72 796 l 29 849 q 84 870 50 861 q 154 879 118 879 q 200 874 178 879 q 240 859 222 869 q 267 831 257 849 q 278 789 278 814 q 267 747 278 768 q 236 711 257 726 q 296 621 296 683 q 288 581 296 601 q 260 545 279 561 q 213 519 242 529 q 143 510 185 510 q 26 529 78 510 l 47 597 m 436 0 q 454 83 444 47 q 476 151 464 119 q 507 212 489 182 q 550 278 525 242 l 406 278 l 406 347 l 649 347 l 649 290 q 594 222 615 253 q 559 160 574 192 q 535 90 544 128 q 518 0 526 51 l 436 0 m 126 0 l 29 0 l 556 860 l 653 860 l 126 0 z "},"":{"ha":694,"x_min":21,"x_max":667,"o":"m 449 0 q 467 83 457 47 q 489 151 476 119 q 519 212 501 182 q 563 278 538 242 l 418 278 l 418 347 l 661 347 l 661 290 q 607 222 628 253 q 572 160 586 192 q 548 90 557 128 q 531 0 539 51 l 449 0 m 283 869 l 283 658 l 332 658 l 332 589 l 283 589 l 283 522 l 201 522 l 201 589 l 21 589 l 21 646 q 91 762 58 710 q 168 869 124 814 l 283 869 m 201 810 q 148 733 171 772 q 103 658 125 694 l 201 658 l 201 810 m 140 0 l 43 0 l 569 860 l 667 860 l 140 0 z "},"":{"ha":694,"x_min":18,"x_max":661,"o":"m 142 749 q 257 716 219 746 q 294 632 294 686 q 254 543 294 576 q 132 510 214 510 q 67 519 99 510 q 18 539 35 528 l 38 606 q 76 589 51 599 q 129 579 100 579 q 189 590 165 579 q 213 628 213 601 q 180 673 213 660 q 58 686 147 686 q 65 740 63 718 q 69 781 67 761 q 72 820 71 800 q 75 869 74 840 l 279 869 l 279 800 l 146 800 l 142 749 m 449 0 q 467 83 457 47 q 489 151 476 119 q 519 212 501 182 q 563 278 538 242 l 418 278 l 418 347 l 661 347 l 661 290 q 607 222 628 253 q 572 160 586 192 q 548 90 557 128 q 531 0 539 51 l 449 0 m 118 0 l 21 0 l 547 860 l 644 860 l 118 0 z "},"":{"ha":694,"x_min":29,"x_max":658,"o":"m 132 0 l 35 0 l 561 860 l 658 860 l 132 0 m 283 813 q 178 793 218 810 q 119 740 138 776 q 175 757 146 757 q 272 721 240 757 q 304 636 304 685 q 296 590 304 613 q 271 549 288 567 q 230 520 254 531 q 172 510 206 510 q 63 552 97 510 q 29 661 29 594 q 44 744 29 704 q 88 815 58 785 q 165 864 118 846 q 275 882 211 882 l 283 813 m 436 0 q 454 83 444 47 q 476 151 464 119 q 507 212 489 182 q 550 278 525 242 l 406 278 l 406 347 l 649 347 l 649 290 q 594 222 615 253 q 559 160 574 192 q 535 90 544 128 q 518 0 526 51 l 436 0 m 168 688 q 136 682 151 688 q 106 668 121 676 q 123 600 106 621 q 169 579 140 579 q 212 597 197 579 q 226 633 226 614 q 212 672 226 656 q 168 688 197 688 z "},"":{"ha":694,"x_min":-1,"x_max":651,"o":"m 397 57 q 501 76 461 60 q 560 128 542 92 q 504 113 529 113 q 408 149 439 113 q 376 233 376 185 q 385 280 376 257 q 410 320 393 303 q 451 349 426 338 q 507 360 475 360 q 617 317 583 360 q 651 208 651 275 q 637 125 651 165 q 592 54 622 85 q 515 6 561 24 q 404 -12 468 -12 l 397 57 m 22 779 q 103 818 71 799 q 169 869 136 838 l 226 869 l 226 522 l 144 522 l 144 756 q 94 731 117 740 q 46 713 71 721 l 22 779 m 513 182 q 574 200 540 182 q 510 290 572 290 q 467 273 482 290 q 453 236 453 256 q 467 198 453 214 q 513 182 482 182 m 96 0 l -1 0 l 525 860 l 622 860 l 96 0 z "},"":{"ha":694,"x_min":29,"x_max":664,"o":"m 397 57 q 501 76 461 60 q 560 128 542 92 q 504 113 529 113 q 408 149 439 113 q 376 233 376 185 q 385 280 376 257 q 410 320 393 303 q 451 349 426 338 q 507 360 475 360 q 617 317 583 360 q 651 208 651 275 q 637 125 651 165 q 592 54 622 85 q 515 6 561 24 q 404 -12 468 -12 l 397 57 m 304 589 l 304 519 l 29 519 l 29 551 q 57 620 29 596 q 121 667 85 644 l 151 688 q 197 724 183 707 q 210 761 210 742 q 194 796 210 785 q 156 807 178 807 q 113 798 135 807 q 74 771 90 789 l 29 826 q 88 866 53 853 q 160 879 124 879 q 259 844 226 879 q 292 765 292 810 q 273 703 292 729 q 228 658 254 678 q 174 622 203 639 q 128 589 146 606 l 304 589 m 513 182 q 574 200 540 182 q 510 290 572 290 q 467 273 482 290 q 453 236 453 256 q 467 198 453 214 q 513 182 482 182 m 138 0 l 40 0 l 567 860 l 664 860 l 138 0 z "},"":{"ha":694,"x_min":21,"x_max":669,"o":"m 397 57 q 501 76 461 60 q 560 128 542 92 q 504 113 529 113 q 408 149 439 113 q 376 233 376 185 q 385 280 376 257 q 410 320 393 303 q 451 349 426 338 q 507 360 475 360 q 617 317 583 360 q 651 208 651 275 q 637 125 651 165 q 592 54 622 85 q 515 6 561 24 q 404 -12 468 -12 l 397 57 m 283 869 l 283 658 l 332 658 l 332 589 l 283 589 l 283 522 l 201 522 l 201 589 l 21 589 l 21 646 q 91 762 58 710 q 168 869 124 814 l 283 869 m 513 182 q 574 200 540 182 q 510 290 572 290 q 467 273 482 290 q 453 236 453 256 q 467 198 453 214 q 513 182 482 182 m 201 810 q 148 733 171 772 q 103 658 125 694 l 201 658 l 201 810 m 143 0 l 46 0 l 572 860 l 669 860 l 143 0 z "},"":{"ha":694,"x_min":18,"x_max":651,"o":"m 397 57 q 501 76 461 60 q 560 128 542 92 q 504 113 529 113 q 408 149 439 113 q 376 233 376 185 q 385 280 376 257 q 410 320 393 303 q 451 349 426 338 q 507 360 475 360 q 617 317 583 360 q 651 208 651 275 q 637 125 651 165 q 592 54 622 85 q 515 6 561 24 q 404 -12 468 -12 l 397 57 m 142 749 q 257 716 219 746 q 294 632 294 686 q 254 543 294 576 q 132 510 214 510 q 67 519 99 510 q 18 539 35 528 l 38 606 q 76 589 51 599 q 129 579 100 579 q 189 590 165 579 q 213 628 213 601 q 180 673 213 660 q 58 686 147 686 q 65 740 63 718 q 69 781 67 761 q 72 820 71 800 q 75 869 74 840 l 279 869 l 279 800 l 146 800 l 142 749 m 513 182 q 574 200 540 182 q 510 290 572 290 q 467 273 482 290 q 453 236 453 256 q 467 198 453 214 q 513 182 482 182 m 118 0 l 21 0 l 547 860 l 644 860 l 118 0 z "},"":{"ha":694,"x_min":15,"x_max":651,"o":"m 111 0 l 15 0 l 540 860 l 639 860 l 111 0 m 397 57 q 502 76 461 60 q 561 129 543 92 q 504 113 532 113 q 408 149 439 113 q 376 233 376 185 q 385 280 376 257 q 410 320 393 303 q 451 349 426 338 q 507 360 475 360 q 617 317 583 360 q 651 208 651 275 q 637 125 651 165 q 592 54 622 85 q 515 6 561 24 q 404 -12 468 -12 l 397 57 m 97 522 q 115 606 106 569 q 138 673 125 642 q 167 734 150 704 q 210 800 185 764 l 65 800 l 65 869 l 308 869 l 308 813 q 254 744 275 775 q 219 681 233 714 q 197 611 206 649 q 179 522 188 574 l 97 522 m 513 182 q 574 200 542 182 q 510 290 574 290 q 467 273 482 290 q 453 236 453 256 q 467 198 453 214 q 513 182 482 182 z "},"":{"ha":694,"x_min":26,"x_max":668,"o":"m 26 615 q 38 658 26 632 q 86 699 50 683 q 52 731 65 711 q 39 782 39 750 q 51 825 39 807 q 82 856 63 843 q 126 874 101 868 q 178 879 151 879 q 228 873 203 879 q 272 854 253 867 q 302 824 290 842 q 314 782 314 806 q 304 742 314 761 q 263 704 294 722 q 307 672 289 692 q 325 617 325 651 q 312 570 325 590 q 278 537 299 550 q 230 517 257 524 q 175 510 203 510 q 119 515 146 510 q 72 533 93 521 q 39 566 51 546 q 26 615 26 586 m 397 57 q 501 76 461 60 q 560 128 542 92 q 504 113 529 113 q 408 149 439 113 q 376 233 376 185 q 385 280 376 257 q 410 320 393 303 q 451 349 426 338 q 507 360 475 360 q 617 317 583 360 q 651 208 651 275 q 637 125 651 165 q 592 54 622 85 q 515 6 561 24 q 404 -12 468 -12 l 397 57 m 513 182 q 574 200 540 182 q 510 290 572 290 q 467 273 482 290 q 453 236 453 256 q 467 198 453 214 q 513 182 482 182 m 243 615 q 235 636 243 628 q 215 651 228 644 q 185 662 201 657 q 150 672 168 667 q 108 615 108 653 q 130 588 108 596 q 175 579 151 579 q 223 588 203 579 q 243 615 243 597 m 121 778 q 142 748 121 758 q 193 729 164 738 q 232 778 232 753 q 217 801 232 792 q 172 810 203 810 q 137 801 153 810 q 121 778 121 792 m 142 0 l 44 0 l 571 860 l 668 860 l 142 0 z "},"∂":{"ha":694,"x_min":53,"x_max":621,"o":"m 264 864 q 196 856 228 864 q 136 836 164 849 l 119 932 q 198 955 156 947 q 283 963 240 963 q 449 922 383 963 q 552 815 514 882 q 606 663 590 749 q 621 485 621 576 q 606 313 621 401 q 553 151 590 224 q 455 31 517 78 q 300 -15 393 -15 q 192 10 239 -15 q 115 76 146 35 q 68 172 83 118 q 53 285 53 226 q 71 406 53 346 q 126 512 89 465 q 217 588 163 558 q 347 617 272 617 q 440 601 400 617 q 504 567 481 585 q 442 787 496 710 q 264 864 388 864 m 354 519 q 269 498 306 519 q 210 442 233 476 q 176 363 188 407 q 165 276 165 319 q 174 203 165 239 q 201 141 183 168 q 245 98 218 114 q 308 82 272 82 q 404 118 367 82 q 464 210 442 154 q 496 331 486 265 q 506 456 506 397 q 429 505 469 490 q 354 519 389 519 z "},"∆":{"ha":694,"x_min":13,"x_max":682,"o":"m 13 0 q 75 233 44 124 q 137 445 106 342 q 203 650 168 549 q 279 860 238 751 l 421 860 q 495 653 458 765 q 566 426 532 540 q 629 201 600 311 q 682 0 658 92 l 13 0 m 346 760 q 309 656 332 722 q 260 502 286 589 q 206 312 233 415 q 153 97 178 208 l 538 97 q 485 312 513 208 q 431 502 457 415 q 382 656 404 589 q 346 760 360 722 z "},"∏":{"ha":694,"x_min":81,"x_max":614,"o":"m 614 860 l 614 -135 l 500 -135 l 500 763 l 194 763 l 194 -135 l 81 -135 l 81 860 l 614 860 z "}}}
